<svg width="1920" height="2240" viewBox="0 0 1920 2240" fill="none" xmlns="http://www.w3.org/2000/svg">
<g clip-path="url(#clip0)">
<rect width="1920" height="2240" fill="white"/>
<rect width="1920" height="2240" fill="white"/>
<mask id="path-2-inside-1" fill="white">
<path d="M1883.83 320.101C1893.53 395.226 1876.98 470.808 1858.83 539.644C1836.17 612.1 1812.21 678.228 1799.7 741.435C1792.31 773.828 1788.61 804.895 1791.33 835.149C1791.87 842.792 1793.39 850.06 1794.32 857.807C1795.04 865.718 1796.18 873.568 1797.75 881.453C1800.96 897.211 1806.05 912.883 1813.49 928.734C1817.22 936.699 1821.3 944.214 1825.68 951.328C1829.86 958.532 1833.06 965.821 1837.34 972.504C1845.6 986.062 1855.19 998.168 1865.99 1009.28C1876.81 1020.46 1888.88 1030.57 1901.98 1040.02C1913.72 1049.79 1926.21 1058.96 1939.85 1067.64C1966.96 1084.93 1997.78 1100.36 2030.46 1115.77C2063.53 1131.06 2093.75 1147.07 2126.99 1164.12C2159.55 1181.22 2192.44 1199.84 2223.81 1221.53C2255.2 1243.15 2280.55 1268.25 2304.76 1297.66C2316.52 1312.39 2327.43 1328.24 2337.21 1345.36C2347.2 1362.54 2355.91 1380.95 2360.56 1400.66C2371.32 1440.1 2376 1485.14 2372.69 1535.65C2364.62 1585.59 2349.92 1628.24 2330.69 1663.87C2321.67 1681.9 2309.07 1697.62 2295.54 1711.81C2282.19 1726.06 2268.09 1738.79 2253.26 1750.18C2223.17 1772.81 2192.89 1790.9 2157.56 1804.19C2122.17 1817.47 2086.12 1827.43 2050.59 1836.04C2014.5 1844.33 1981.51 1852.44 1945.89 1859.13C1910.69 1865.97 1877.34 1873.41 1847.08 1883.54C1831.91 1888.56 1817.73 1894.39 1804.09 1901.01C1789.24 1906.95 1775.23 1913.8 1762.23 1921.91C1749.2 1930.1 1737.17 1939.49 1726.15 1950.58C1720.5 1956.04 1715.75 1962.37 1710.07 1968.34C1704.15 1974.16 1698.54 1980.42 1693.18 1987.23C1682.39 2000.84 1673.88 2014.85 1667.27 2029.34C1663.92 2036.55 1661.11 2043.95 1658.63 2051.44C1655.96 2058.8 1652.86 2065.48 1650.6 2072.79C1641.15 2101.48 1637.81 2132.6 1637.7 2165.89C1635.72 2230.36 1644.24 2300.6 1649.99 2376.61C1652.19 2448.03 1651.3 2525.61 1625.01 2596.17C1611.17 2630.29 1591.45 2663.43 1564.02 2694.36C1557.08 2701.94 1550.02 2709.95 1541.87 2716.77C1533.57 2723.29 1524.81 2729.7 1515.49 2735.88C1496.84 2748.19 1476.12 2759.67 1453.16 2770C1441.66 2775.16 1430.35 2779.74 1419.22 2783.71C1408 2787.48 1396.43 2789.33 1385.39 2791.45C1363.15 2795.28 1341.73 2797.09 1321.22 2797.03C1300.72 2797.02 1281.14 2795.12 1262.42 2791.74C1243.31 2787.02 1224.97 2780.47 1207.5 2772.95C1172.57 2757.85 1141.1 2738.04 1112.02 2715.85C1083.03 2694.03 1055.62 2665.01 1030.16 2638.57C1005.5 2611.77 980.915 2585.04 956.897 2558.96C933.265 2533.75 909.619 2506.01 885.471 2484.65C873.341 2473.69 861.098 2463.7 848.356 2455C835.689 2446.44 822.623 2439.16 808.906 2430.68C781.418 2415.12 751.634 2405.33 716.634 2403.34C682.165 2396.62 651.009 2398.77 620.834 2407.13C605.619 2411.96 591.236 2415.78 577.016 2420.95C562.773 2426.31 548.564 2432.94 534.301 2440.6C506.096 2455.4 476.861 2476.55 448.273 2495.17C419.035 2514.58 389.149 2534.49 359.208 2554.38C328.547 2573.78 295.352 2595.24 262.298 2609.28C229.132 2623.71 193.987 2635.12 156.676 2641.16C138.027 2644.17 118.787 2645.98 99.1017 2645.88C80.1363 2644.53 60.7135 2641.46 40.7813 2636.46C20.864 2631.42 0.445424 2624.45 -20.3457 2615.17C-30.5904 2610.39 -41.4006 2605.77 -51.4623 2599.33C-61.3793 2592.64 -71.3497 2585.45 -81.311 2577.57C-101.354 2561.82 -119.007 2545.57 -134.305 2529C-141.986 2520.69 -149.07 2512.29 -155.636 2503.86C-162.082 2495.26 -167.132 2485.73 -172.153 2476.63C-191.849 2439.78 -203.593 2402.68 -209.432 2366.13C-219.178 2291.04 -202.607 2215.42 -184.463 2146.58C-161.839 2074.09 -137.82 2008.01 -125.316 1944.81C-117.942 1912.43 -114.226 1881.35 -116.98 1851.13C-117.532 1843.49 -119.047 1836.21 -119.978 1828.4C-120.657 1820.53 -121.768 1812.66 -123.379 1804.77C-126.621 1789.07 -131.691 1773.41 -139.129 1757.5C-142.869 1749.51 -146.9 1742.05 -151.303 1734.92C-155.552 1727.71 -158.662 1720.38 -163.007 1713.68C-171.194 1700.2 -180.797 1688.07 -191.624 1676.94C-202.467 1665.82 -214.532 1655.7 -227.649 1646.27C-239.373 1636.49 -251.867 1627.32 -265.518 1618.65C-292.612 1601.34 -323.373 1585.83 -356.078 1570.48C-389.169 1555.16 -419.444 1539.13 -452.598 1522.12C-485.206 1504.95 -518.071 1486.38 -549.412 1464.73C-580.819 1443.1 -606.199 1418.03 -630.375 1388.59C-642.137 1373.86 -653.062 1357.98 -662.874 1340.83C-672.8 1323.72 -681.565 1305.3 -686.22 1285.59C-696.927 1246.14 -701.649 1201.13 -698.334 1150.55C-690.236 1100.65 -675.58 1058.04 -656.302 1022.37C-647.324 1004.38 -634.674 988.623 -621.189 974.396C-607.876 960.169 -593.697 947.449 -578.875 936.064C-548.783 913.426 -518.543 895.376 -483.148 882.033C-447.863 868.77 -411.72 858.796 -376.245 850.237C-340.119 841.917 -307.102 833.787 -271.545 827.144C-236.3 820.268 -202.959 812.839 -172.694 802.705C-157.524 797.681 -143.346 791.857 -129.713 785.235C-114.916 779.303 -100.89 772.477 -87.8691 764.287C-74.8147 756.14 -62.7562 746.726 -51.7468 735.678C-46.1088 730.216 -41.353 723.881 -35.6673 717.909C-29.7909 712.127 -24.1995 705.781 -18.7629 699.007C-7.98804 685.409 0.480453 671.435 7.09236 656.942C10.443 649.658 13.2691 642.278 15.7712 634.809C18.3933 627.488 21.5558 620.759 23.7928 613.467C33.2503 584.778 36.5891 553.656 36.648 520.399C38.6676 455.874 30.1766 385.64 24.402 309.58C22.1816 238.241 23.0519 160.679 49.3302 90.0602C63.2292 55.964 82.942 22.8649 110.333 -8.07206C117.283 -15.6589 124.393 -23.7107 132.535 -30.5202C140.777 -37.0692 149.588 -43.4479 158.911 -49.6279C177.518 -61.937 198.299 -73.4272 221.241 -83.7497C232.719 -88.8823 244.049 -93.4833 255.177 -97.4544C266.413 -101.235 277.972 -103.081 289.025 -105.213C311.27 -109.04 332.628 -110.803 353.142 -110.741C373.638 -110.732 393.247 -108.865 411.942 -105.459C431.045 -100.732 449.423 -94.2065 466.849 -86.7624C501.744 -71.5969 533.325 -51.8102 562.379 -29.5927C591.391 -7.7516 709.318 -36.5833 734.734 -10.1028C759.398 16.6944 693.208 166.028 717.234 192.098C718.24 210.402 778.701 170.717 802.866 192.098C814.946 203.065 813.294 222.555 826.02 231.27C838.669 239.773 851.738 247.126 865.494 255.577C892.999 271.122 921.37 234.882 956.296 236.833C990.765 243.585 970.178 240.915 1000.31 232.596C1015.61 227.741 1002.28 212.335 1016.51 207.192C1030.78 201.847 1095.73 180.928 1109.99 173.297C1138.25 158.458 1201.17 189.447 1229.8 170.833C1258.99 151.431 1279.01 182.721 1308.96 162.825C1339.62 143.361 1439.67 193.942 1472.73 179.897C1505.98 165.474 1526.56 161.62 1546.73 179.897C1565.31 176.937 1651.62 207.073 1671.23 207.192C1690.18 208.522 1674.76 165.787 1694.67 170.833C1714.65 175.831 1673.91 61.8413 1694.67 71.0676C1704.96 75.8212 1715.8 80.4904 1725.82 86.9611C1735.74 93.5721 1745.7 100.814 1755.73 108.675C1775.74 124.409 1793.36 140.72 1808.69 157.295C1816.32 165.541 1823.46 173.971 1830.04 182.39C1836.44 191.029 1841.49 200.552 1846.52 209.651C1866.26 246.473 1878 283.569 1883.84 320.113L1883.83 320.101Z"/>
</mask>
<path d="M1883.83 320.101C1893.53 395.226 1876.98 470.808 1858.83 539.644C1836.17 612.1 1812.21 678.228 1799.7 741.435C1792.31 773.828 1788.61 804.895 1791.33 835.149C1791.87 842.792 1793.39 850.06 1794.32 857.807C1795.04 865.718 1796.18 873.568 1797.75 881.453C1800.96 897.211 1806.05 912.883 1813.49 928.734C1817.22 936.699 1821.3 944.214 1825.68 951.328C1829.86 958.532 1833.06 965.821 1837.34 972.504C1845.6 986.062 1855.19 998.168 1865.99 1009.28C1876.81 1020.46 1888.88 1030.57 1901.98 1040.02C1913.72 1049.79 1926.21 1058.96 1939.85 1067.64C1966.96 1084.93 1997.78 1100.36 2030.46 1115.77C2063.53 1131.06 2093.75 1147.07 2126.99 1164.12C2159.55 1181.22 2192.44 1199.84 2223.81 1221.53C2255.2 1243.15 2280.55 1268.25 2304.76 1297.66C2316.52 1312.39 2327.43 1328.24 2337.21 1345.36C2347.2 1362.54 2355.91 1380.95 2360.56 1400.66C2371.32 1440.1 2376 1485.14 2372.69 1535.65C2364.62 1585.59 2349.92 1628.24 2330.69 1663.87C2321.67 1681.9 2309.07 1697.62 2295.54 1711.81C2282.19 1726.06 2268.09 1738.79 2253.26 1750.18C2223.17 1772.81 2192.89 1790.9 2157.56 1804.19C2122.17 1817.47 2086.12 1827.43 2050.59 1836.04C2014.5 1844.33 1981.51 1852.44 1945.89 1859.13C1910.69 1865.97 1877.34 1873.41 1847.08 1883.54C1831.91 1888.56 1817.73 1894.39 1804.09 1901.01C1789.24 1906.95 1775.23 1913.8 1762.23 1921.91C1749.2 1930.1 1737.17 1939.49 1726.15 1950.58C1720.5 1956.04 1715.75 1962.37 1710.07 1968.34C1704.15 1974.16 1698.54 1980.42 1693.18 1987.23C1682.39 2000.84 1673.88 2014.85 1667.27 2029.34C1663.92 2036.55 1661.11 2043.95 1658.63 2051.44C1655.96 2058.8 1652.86 2065.48 1650.6 2072.79C1641.15 2101.48 1637.81 2132.6 1637.7 2165.89C1635.72 2230.36 1644.24 2300.6 1649.99 2376.61C1652.19 2448.03 1651.3 2525.61 1625.01 2596.17C1611.17 2630.29 1591.45 2663.43 1564.02 2694.36C1557.08 2701.94 1550.02 2709.95 1541.87 2716.77C1533.57 2723.29 1524.81 2729.7 1515.49 2735.88C1496.84 2748.19 1476.12 2759.67 1453.16 2770C1441.66 2775.16 1430.35 2779.74 1419.22 2783.71C1408 2787.48 1396.43 2789.33 1385.39 2791.45C1363.15 2795.28 1341.73 2797.09 1321.22 2797.03C1300.72 2797.02 1281.14 2795.12 1262.42 2791.74C1243.31 2787.02 1224.97 2780.47 1207.5 2772.95C1172.57 2757.85 1141.1 2738.04 1112.02 2715.85C1083.03 2694.03 1055.62 2665.01 1030.16 2638.57C1005.5 2611.77 980.915 2585.04 956.897 2558.96C933.265 2533.75 909.619 2506.01 885.471 2484.65C873.341 2473.69 861.098 2463.7 848.356 2455C835.689 2446.44 822.623 2439.16 808.906 2430.68C781.418 2415.12 751.634 2405.33 716.634 2403.34C682.165 2396.62 651.009 2398.77 620.834 2407.13C605.619 2411.96 591.236 2415.78 577.016 2420.95C562.773 2426.31 548.564 2432.94 534.301 2440.6C506.096 2455.4 476.861 2476.55 448.273 2495.17C419.035 2514.58 389.149 2534.49 359.208 2554.38C328.547 2573.78 295.352 2595.24 262.298 2609.28C229.132 2623.71 193.987 2635.12 156.676 2641.16C138.027 2644.17 118.787 2645.98 99.1017 2645.88C80.1363 2644.53 60.7135 2641.46 40.7813 2636.46C20.864 2631.42 0.445424 2624.45 -20.3457 2615.17C-30.5904 2610.39 -41.4006 2605.77 -51.4623 2599.33C-61.3793 2592.64 -71.3497 2585.45 -81.311 2577.57C-101.354 2561.82 -119.007 2545.57 -134.305 2529C-141.986 2520.69 -149.07 2512.29 -155.636 2503.86C-162.082 2495.26 -167.132 2485.73 -172.153 2476.63C-191.849 2439.78 -203.593 2402.68 -209.432 2366.13C-219.178 2291.04 -202.607 2215.42 -184.463 2146.58C-161.839 2074.09 -137.82 2008.01 -125.316 1944.81C-117.942 1912.43 -114.226 1881.35 -116.98 1851.13C-117.532 1843.49 -119.047 1836.21 -119.978 1828.4C-120.657 1820.53 -121.768 1812.66 -123.379 1804.77C-126.621 1789.07 -131.691 1773.41 -139.129 1757.5C-142.869 1749.51 -146.9 1742.05 -151.303 1734.92C-155.552 1727.71 -158.662 1720.38 -163.007 1713.68C-171.194 1700.2 -180.797 1688.07 -191.624 1676.94C-202.467 1665.82 -214.532 1655.7 -227.649 1646.27C-239.373 1636.49 -251.867 1627.32 -265.518 1618.65C-292.612 1601.34 -323.373 1585.83 -356.078 1570.48C-389.169 1555.16 -419.444 1539.13 -452.598 1522.12C-485.206 1504.95 -518.071 1486.38 -549.412 1464.73C-580.819 1443.1 -606.199 1418.03 -630.375 1388.59C-642.137 1373.86 -653.062 1357.98 -662.874 1340.83C-672.8 1323.72 -681.565 1305.3 -686.22 1285.59C-696.927 1246.14 -701.649 1201.13 -698.334 1150.55C-690.236 1100.65 -675.58 1058.04 -656.302 1022.37C-647.324 1004.38 -634.674 988.623 -621.189 974.396C-607.876 960.169 -593.697 947.449 -578.875 936.064C-548.783 913.426 -518.543 895.376 -483.148 882.033C-447.863 868.77 -411.72 858.796 -376.245 850.237C-340.119 841.917 -307.102 833.787 -271.545 827.144C-236.3 820.268 -202.959 812.839 -172.694 802.705C-157.524 797.681 -143.346 791.857 -129.713 785.235C-114.916 779.303 -100.89 772.477 -87.8691 764.287C-74.8147 756.14 -62.7562 746.726 -51.7468 735.678C-46.1088 730.216 -41.353 723.881 -35.6673 717.909C-29.7909 712.127 -24.1995 705.781 -18.7629 699.007C-7.98804 685.409 0.480453 671.435 7.09236 656.942C10.443 649.658 13.2691 642.278 15.7712 634.809C18.3933 627.488 21.5558 620.759 23.7928 613.467C33.2503 584.778 36.5891 553.656 36.648 520.399C38.6676 455.874 30.1766 385.64 24.402 309.58C22.1816 238.241 23.0519 160.679 49.3302 90.0602C63.2292 55.964 82.942 22.8649 110.333 -8.07206C117.283 -15.6589 124.393 -23.7107 132.535 -30.5202C140.777 -37.0692 149.588 -43.4479 158.911 -49.6279C177.518 -61.937 198.299 -73.4272 221.241 -83.7497C232.719 -88.8823 244.049 -93.4833 255.177 -97.4544C266.413 -101.235 277.972 -103.081 289.025 -105.213C311.27 -109.04 332.628 -110.803 353.142 -110.741C373.638 -110.732 393.247 -108.865 411.942 -105.459C431.045 -100.732 449.423 -94.2065 466.849 -86.7624C501.744 -71.5969 533.325 -51.8102 562.379 -29.5927C591.391 -7.7516 709.318 -36.5833 734.734 -10.1028C759.398 16.6944 693.208 166.028 717.234 192.098C718.24 210.402 778.701 170.717 802.866 192.098C814.946 203.065 813.294 222.555 826.02 231.27C838.669 239.773 851.738 247.126 865.494 255.577C892.999 271.122 921.37 234.882 956.296 236.833C990.765 243.585 970.178 240.915 1000.31 232.596C1015.61 227.741 1002.28 212.335 1016.51 207.192C1030.78 201.847 1095.73 180.928 1109.99 173.297C1138.25 158.458 1201.17 189.447 1229.8 170.833C1258.99 151.431 1279.01 182.721 1308.96 162.825C1339.62 143.361 1439.67 193.942 1472.73 179.897C1505.98 165.474 1526.56 161.62 1546.73 179.897C1565.31 176.937 1651.62 207.073 1671.23 207.192C1690.18 208.522 1674.76 165.787 1694.67 170.833C1714.65 175.831 1673.91 61.8413 1694.67 71.0676C1704.96 75.8212 1715.8 80.4904 1725.82 86.9611C1735.74 93.5721 1745.7 100.814 1755.73 108.675C1775.74 124.409 1793.36 140.72 1808.69 157.295C1816.32 165.541 1823.46 173.971 1830.04 182.39C1836.44 191.029 1841.49 200.552 1846.52 209.651C1866.26 246.473 1878 283.569 1883.84 320.113L1883.83 320.101Z" stroke="#862D91" stroke-width="4" mask="url(#path-2-inside-1)"/>
<g filter="url(#filter0_i)">
<path d="M959.763 104.537C946.089 142.61 901.509 161.455 860.195 146.617C818.872 131.776 796.468 88.8739 810.141 50.8009C823.817 12.7216 868.395 -6.11627 909.719 8.72477C951.032 23.5624 973.439 66.4575 959.763 104.537ZM961.976 -179.134C948.977 -177.212 937.296 -172.56 926.891 -167.121C916.563 -161.983 907.278 -154.653 898.903 -147.776C882.106 -133.558 868.65 -117.451 854.878 -104.263C841.12 -90.2707 827.338 -79.8921 807.034 -71.5042C786.906 -62.7916 769.209 -59.884 748.463 -59.2876C728.388 -58.1738 706.005 -59.1446 683.113 -56.5813C671.903 -55.1743 659.683 -53.4307 648.692 -49.5538C637.403 -45.8146 625.957 -40.7047 616.006 -32.9365C595.535 -17.8994 578.319 7.59032 575.785 45.6581C573.599 83.7846 587.685 112.59 605.673 131.769C614.937 141.392 625.477 148.848 635.916 154.895C647.003 160.71 658.199 165.133 669.056 168.813C680.501 172.242 691.641 174.948 702.117 177.547C713.205 179.856 723.489 182.173 733.365 184.783C753.634 189.766 771.023 196.073 789.739 208.7C808.59 221.103 820.867 234.764 832.942 250.798C838.542 258.797 850.849 244.5 850.849 276.295C856.941 285.52 859.016 241.776 866.361 250.798C881.14 268.385 924.357 154.569 926.891 250.798C926.891 154.569 968.972 217.163 1005.36 202C1041.57 186.484 1031.83 200.754 1039.86 177.547C1047.55 153.561 1063.52 190.261 1057.87 168.813C1054.84 157.949 1080.7 190.948 1076.7 180.853C1073.09 170.801 1069.58 161.157 1066.31 152.168C1060.3 133.577 1056.44 116.359 1057.88 95.3815C1059.01 74.3501 1064.71 58.3024 1073.38 41.0983C1077.46 32.5851 1082.04 23.9873 1087.15 14.8377C1091.6 5.92021 1096.41 -3.52371 1100.78 -13.6332C1104.56 -23.4971 1107.93 -34.0616 1110.01 -45.4546C1111.51 -56.5508 1111.84 -68.6044 1109.53 -81.1558C1104.6 -105.854 1088.94 -134.003 1054.92 -156.819C1020.72 -179.375 987.912 -183.719 961.974 -179.134" fill="#80C342"/>
</g>
<path d="M961.976 -179.134C948.977 -177.212 937.296 -172.56 926.891 -167.121C916.563 -161.983 907.278 -154.653 898.903 -147.776C882.106 -133.558 868.65 -117.451 854.878 -104.263C841.12 -90.2707 827.338 -79.8921 807.034 -71.5042C786.906 -62.7916 769.209 -59.884 748.463 -59.2876C728.388 -58.1738 706.005 -59.1446 683.113 -56.5813C671.903 -55.1743 659.683 -53.4307 648.692 -49.5538C637.403 -45.8146 625.957 -40.7047 616.006 -32.9365C595.535 -17.8994 578.319 7.59032 575.785 45.6581C573.599 83.7846 587.685 112.59 605.673 131.769C614.937 141.392 625.477 148.848 635.916 154.895C647.003 160.71 658.199 165.133 669.056 168.813C680.501 172.242 691.641 174.948 702.117 177.547C713.205 179.856 723.489 182.173 733.365 184.783C753.634 189.766 771.023 196.073 789.739 208.7C808.59 221.103 820.867 234.764 832.942 250.798C838.542 258.797 850.849 244.5 850.849 276.295C856.941 285.52 859.016 241.776 866.361 250.798C881.14 268.385 924.357 154.569 926.891 250.798C926.891 154.569 968.972 217.163 1005.36 202C1041.57 186.484 1031.83 200.754 1039.86 177.547C1047.55 153.561 1063.52 190.261 1057.87 168.813C1054.84 157.949 1080.7 190.948 1076.7 180.853C1073.09 170.801 1069.58 161.157 1066.31 152.168C1060.3 133.577 1056.44 116.359 1057.88 95.3815C1059.01 74.3501 1064.71 58.3024 1073.38 41.0983C1077.46 32.5851 1082.04 23.9873 1087.15 14.8377C1091.6 5.92021 1096.41 -3.52371 1100.78 -13.6332C1104.56 -23.4971 1107.93 -34.0616 1110.01 -45.4546C1111.51 -56.5508 1111.84 -68.6044 1109.53 -81.1558C1104.6 -105.854 1088.94 -134.003 1054.92 -156.819C1020.72 -179.375 987.912 -183.719 961.974 -179.134M959.763 104.537C946.089 142.61 901.509 161.455 860.195 146.617C818.872 131.776 796.468 88.8739 810.141 50.8009C823.817 12.7216 868.395 -6.11627 909.719 8.72477C951.032 23.5624 973.439 66.4575 959.763 104.537Z" stroke="#80C342"/>
<path fill-rule="evenodd" clip-rule="evenodd" d="M1610.5 251.5C1759 293.095 1802.01 267.595 1929.5 251.5C2029.27 119.366 2143.71 -347.111 2165.29 -489.501C2186.71 -630.776 2197.84 -772.724 2142.17 -891.418C2085.28 -1012.71 1996.1 -1129.82 1847.34 -1167.41C1702.48 -1204.01 1524.37 -1104.45 1360.46 -1088.92C1198.32 -1073.55 1044.56 -1150.07 888.901 -1076.57C733.231 -1003.06 658.525 -844.013 565.131 -713.359C476.151 -588.882 347.644 -458.348 355.733 -330.696C363.826 -202.978 654.164 -127.332 705.5 -15.4999C760.84 105.052 583.422 134.484 660 251.5C710.719 329 807.5 267.595 957.5 267.595C1118.06 267.595 1439.74 203.672 1610.5 251.5Z" fill="#862D91"/>
<path d="M1168.1 444H1172.74V435.18H1177.96C1182.75 435.18 1186.1 431.724 1186.1 426.756C1186.1 421.788 1182.75 418.44 1177.96 418.44H1168.1V444ZM1172.74 431.148V422.436H1177.17C1179.8 422.436 1181.38 424.128 1181.38 426.756C1181.38 429.42 1179.8 431.148 1177.1 431.148H1172.74ZM1189.42 437.448C1189.42 442.452 1191.83 444.432 1195.79 444.432C1198.92 444.432 1201.3 442.452 1202.16 440.58H1202.23C1202.23 440.58 1202.12 441.156 1202.12 441.84V444H1206.52V425.64H1201.98V434.064C1201.98 437.34 1200.14 440.256 1196.83 440.256C1194.56 440.256 1193.99 438.744 1193.99 436.512V425.64H1189.42V437.448ZM1211.46 444H1215.71V442.812C1215.71 442.092 1215.64 441.588 1215.64 441.588H1215.71C1216.9 443.424 1219.1 444.432 1221.26 444.432C1226.12 444.432 1229.68 440.652 1229.68 434.82C1229.68 429.132 1226.51 425.208 1221.54 425.208C1219.28 425.208 1217.08 426.288 1216 427.944H1215.93C1215.93 427.944 1216.04 427.296 1216.04 426.396V418.44H1211.46V444ZM1215.89 434.928C1215.89 430.86 1218.12 429.132 1220.54 429.132C1223.2 429.132 1225.07 431.4 1225.07 434.892C1225.07 438.528 1222.98 440.58 1220.46 440.58C1217.4 440.58 1215.89 437.772 1215.89 434.928ZM1233.58 438.276C1233.58 443.532 1236.71 444.18 1239.23 444.18C1239.84 444.18 1240.34 444.108 1240.67 444.072V440.076C1240.42 440.112 1240.16 440.112 1239.98 440.112C1238.8 440.112 1238.11 439.608 1238.11 437.592V418.44H1233.58V438.276ZM1243.98 422.508H1248.56V418.44H1243.98V422.508ZM1243.98 444H1248.56V425.64H1243.98V444ZM1252.32 434.82C1252.32 440.148 1256.21 444.432 1262.3 444.432C1265.25 444.432 1268.13 443.28 1269.86 441.444L1268.09 438.204C1266.72 439.536 1264.64 440.544 1262.69 440.544C1259.16 440.544 1256.97 437.88 1256.97 434.784C1256.97 431.652 1259.16 429.096 1262.55 429.096C1264.35 429.096 1266.15 429.924 1267.3 431.076L1269.35 427.944C1267.59 426.036 1264.78 425.208 1262.3 425.208C1256.21 425.208 1252.32 429.6 1252.32 434.82ZM1271.76 438.924C1271.76 442.272 1274.49 444.432 1277.81 444.432C1280.29 444.432 1282.49 443.064 1283.6 441.12H1283.67C1283.67 441.12 1283.57 441.696 1283.57 442.452V444H1287.81V432.516C1287.81 427.872 1284.97 425.208 1280.18 425.208C1277.45 425.208 1274.49 426.252 1272.98 427.476L1274.67 430.752C1276.15 429.744 1277.99 428.988 1279.79 428.988C1281.69 428.988 1283.24 429.816 1283.24 432.228V432.48H1282.45C1278.38 432.48 1271.76 433.416 1271.76 438.924ZM1276.29 438.528C1276.29 435.936 1280.18 435.612 1282.49 435.612H1283.28V436.116C1283.28 438.348 1281.62 440.94 1279.07 440.94C1277.23 440.94 1276.29 439.752 1276.29 438.528ZM1293.4 437.268C1293.4 443.424 1298.47 444.18 1301.03 444.18C1301.64 444.18 1302.07 444.108 1302.43 444.072V440.076C1302.07 440.148 1301.86 440.148 1301.61 440.148C1300.35 440.148 1297.97 439.716 1297.97 436.692V429.528H1302.15V425.892H1297.97V420.636H1293.51V425.892H1291.02V429.528H1293.4V437.268ZM1305.93 422.508H1310.5V418.44H1305.93V422.508ZM1305.93 444H1310.5V425.64H1305.93V444ZM1314.27 434.82C1314.27 440.472 1318.77 444.432 1324.35 444.432C1329.93 444.432 1334.43 440.472 1334.43 434.82C1334.43 429.204 1329.93 425.208 1324.31 425.208C1318.77 425.208 1314.27 429.204 1314.27 434.82ZM1318.91 434.82C1318.91 431.436 1321.36 429.096 1324.35 429.096C1327.34 429.096 1329.82 431.436 1329.82 434.82C1329.82 438.24 1327.34 440.544 1324.35 440.544C1321.36 440.544 1318.91 438.24 1318.91 434.82ZM1338.2 444H1342.77V435.396C1342.77 432.084 1344.83 429.384 1348.07 429.384C1350.37 429.384 1350.95 430.896 1350.95 433.128V444H1355.52V432.192C1355.52 427.332 1353.18 425.208 1349.11 425.208C1345.4 425.208 1343.35 427.548 1342.59 429.096H1342.52C1342.52 429.096 1342.59 428.52 1342.59 427.8V425.64H1338.2V444Z" fill="white"/>
<path d="M1379.5 444L1366.94 425.25H1392.06L1379.5 444Z" fill="white"/>
<g filter="url(#filter1_i)">
<path d="M1419.02 697.743C1452.93 743.968 1441.25 810.191 1392.93 845.639C1344.6 881.096 1277.93 872.349 1244.02 826.123C1210.1 779.889 1221.78 713.676 1270.11 678.219C1318.43 642.771 1385.1 651.509 1419.02 697.743ZM1091.34 467.569C1083.79 484.011 1080.39 501.134 1078.88 517.425C1077.07 533.386 1078.59 549.911 1080.27 565.03C1084.14 595.692 1092.71 624.041 1097.66 650.41C1103.55 677.408 1105.22 701.534 1099.68 731.538C1094.65 761.602 1084.7 784.22 1069.78 808.478C1055.97 832.383 1037.99 857.259 1023.74 885.557C1016.94 899.535 1009.76 914.94 1005.99 930.651C1001.84 946.591 999.155 963.811 1000.68 981.451C1002.73 1016.98 1019.37 1057.17 1061.66 1090.62C1104.28 1123.73 1148.33 1130.69 1184.13 1125.47C1202.28 1122.57 1218.87 1116.47 1233.74 1109.36C1248.84 1101.32 1262.4 1092.03 1274.84 1082.54C1287.44 1072.17 1298.96 1061.58 1309.87 1051.65C1320.89 1040.8 1331.32 1030.87 1341.79 1021.64C1362.83 1002.41 1383.24 987.538 1411.98 976.218C1440.57 964.564 1465.67 961.453 1493.38 960.48C1506.88 960.479 1521.35 960.443 1536.46 960.415C1551.75 960.835 1566.5 959.991 1582.5 958.812C1614.04 955.985 1646.98 948.241 1677.71 927.108C1707.27 905.873 1735.57 870.067 1745.36 816.189C1754.6 762.23 1739.93 720.769 1719.03 692.941C1696.97 664.885 1668.2 649.019 1639.05 638.278C1624.15 633.036 1610.36 628.458 1595.63 624.944C1581.24 621.022 1567.41 617.299 1554.51 613.836C1528.4 605.806 1505.5 596.414 1482.23 577.936C1458.67 559.754 1444.33 540.344 1430.88 516.599C1424.06 505.094 1417.53 492.945 1410.75 479.748C1403.74 467.492 1396.4 454.399 1387.95 441.281C1379.35 429.023 1369.62 416.689 1357.96 405.156C1346.2 394.538 1332.45 384.488 1316.15 377.06C1283.76 362.895 1239.3 358.25 1187.2 378.946C1135.27 400.042 1105.54 434.161 1091.34 467.571" fill="#80C342"/>
</g>
<path d="M1091.34 467.569C1083.79 484.011 1080.39 501.134 1078.88 517.425C1077.07 533.386 1078.59 549.911 1080.27 565.03C1084.14 595.692 1092.71 624.041 1097.66 650.41C1103.55 677.408 1105.22 701.534 1099.68 731.538C1094.65 761.602 1084.7 784.22 1069.78 808.478C1055.97 832.383 1037.99 857.259 1023.74 885.557C1016.94 899.535 1009.76 914.94 1005.99 930.651C1001.84 946.591 999.155 963.811 1000.68 981.451C1002.73 1016.98 1019.37 1057.17 1061.66 1090.62C1104.28 1123.73 1148.33 1130.69 1184.13 1125.47C1202.28 1122.57 1218.87 1116.47 1233.74 1109.36C1248.84 1101.32 1262.4 1092.03 1274.84 1082.54C1287.44 1072.17 1298.96 1061.58 1309.87 1051.65C1320.89 1040.8 1331.32 1030.87 1341.79 1021.64C1362.83 1002.41 1383.24 987.538 1411.98 976.218C1440.57 964.564 1465.67 961.453 1493.38 960.48C1506.88 960.479 1521.35 960.443 1536.46 960.415C1551.75 960.835 1566.5 959.991 1582.5 958.812C1614.04 955.985 1646.98 948.241 1677.71 927.108C1707.27 905.873 1735.57 870.067 1745.36 816.189C1754.6 762.23 1739.93 720.769 1719.03 692.941C1696.97 664.885 1668.2 649.019 1639.05 638.278C1624.15 633.036 1610.36 628.458 1595.63 624.944C1581.24 621.022 1567.41 617.299 1554.51 613.836C1528.4 605.806 1505.5 596.414 1482.23 577.936C1458.67 559.754 1444.33 540.344 1430.88 516.599C1424.06 505.094 1417.53 492.945 1410.75 479.748C1403.74 467.492 1396.4 454.399 1387.95 441.281C1379.35 429.023 1369.62 416.689 1357.96 405.156C1346.2 394.538 1332.45 384.488 1316.15 377.06C1283.76 362.895 1239.3 358.25 1187.2 378.946C1135.27 400.042 1105.54 434.161 1091.34 467.571M1419.02 697.743C1452.93 743.968 1441.25 810.191 1392.93 845.639C1344.6 881.096 1277.93 872.349 1244.02 826.123C1210.1 779.889 1221.78 713.676 1270.11 678.219C1318.43 642.771 1385.1 651.509 1419.02 697.743Z" stroke="#80C342"/>
<g clip-path="url(#clip1)">
<path d="M1425.96 749.936C1423.44 754.105 1419.57 757.257 1415.89 760.006C1411.83 762.758 1407.95 765.141 1404.78 767.83C1403.11 769.169 1401.68 770.587 1400.6 772.219C1400.32 772.626 1400.11 773.052 1399.85 773.479C1399.56 773.906 1399.31 774.347 1399.07 774.807C1398.6 775.727 1398.24 776.719 1397.98 777.812C1397.85 778.361 1397.76 778.902 1397.7 779.434C1397.62 779.962 1397.49 780.456 1397.44 780.962C1397.32 781.973 1397.32 782.963 1397.43 783.951C1397.53 784.942 1397.74 785.93 1398.03 786.925C1398.24 787.882 1398.5 788.839 1398.85 789.817C1399.54 791.762 1400.49 793.761 1401.54 795.832C1402.61 797.913 1403.51 799.917 1404.52 802.092C1405.5 804.244 1406.43 806.485 1407.16 808.821C1407.89 811.154 1408.18 813.423 1408.23 815.864C1408.24 817.072 1408.16 818.303 1407.97 819.553C1407.79 820.814 1407.5 822.086 1406.95 823.264C1405.91 825.677 1404.35 828.132 1402.15 830.545C1399.74 832.742 1397.28 834.308 1394.87 835.341C1393.69 835.892 1392.42 836.185 1391.16 836.364C1389.91 836.553 1388.68 836.635 1387.47 836.622C1385.03 836.57 1382.76 836.281 1380.43 835.551C1378.09 834.818 1375.85 833.892 1373.7 832.917C1371.53 831.905 1369.52 831.007 1367.44 829.932C1365.37 828.882 1363.37 827.936 1361.42 827.247C1360.45 826.899 1359.49 826.631 1358.53 826.424C1357.54 826.135 1356.55 825.925 1355.56 825.818C1354.57 825.715 1353.58 825.711 1352.57 825.833C1352.07 825.885 1351.57 826.015 1351.04 826.091C1350.51 826.15 1349.97 826.243 1349.42 826.374C1348.33 826.632 1347.33 827 1346.41 827.468C1345.96 827.699 1345.52 827.961 1345.09 828.24C1344.66 828.505 1344.23 828.718 1343.82 828.997C1342.19 830.068 1340.77 831.503 1339.43 833.177C1336.75 836.346 1334.37 840.222 1331.61 844.28C1328.86 847.965 1325.71 851.838 1321.54 854.351C1319.47 855.522 1317.14 856.41 1314.5 856.882C1313.84 856.989 1313.16 857.113 1312.47 857.133C1311.79 857.133 1311.08 857.109 1310.36 857.051C1308.92 856.932 1307.4 856.689 1305.82 856.3C1305.02 856.104 1304.26 855.887 1303.54 855.646C1302.81 855.391 1302.15 855.026 1301.5 854.696C1300.22 854.007 1299.05 853.25 1298.01 852.434C1296.96 851.622 1296.04 850.75 1295.22 849.838C1294.44 848.843 1293.77 847.786 1293.18 846.716C1292 844.571 1291.19 842.326 1290.6 840.055C1290 837.807 1289.76 835.26 1289.53 832.919C1289.34 830.591 1289.16 828.271 1288.98 826.005C1288.79 823.799 1288.7 821.464 1288.32 819.431C1288.14 818.399 1287.92 817.41 1287.62 816.467C1287.32 815.534 1286.94 814.649 1286.58 813.679C1285.8 811.806 1284.68 810.132 1282.98 808.645C1281.49 806.941 1279.81 805.815 1277.94 805.041C1276.97 804.681 1276.09 804.304 1275.15 804.001C1274.21 803.707 1273.22 803.478 1272.19 803.299C1270.16 802.927 1267.82 802.833 1265.62 802.639C1263.35 802.459 1261.03 802.278 1258.71 802.094C1256.37 801.856 1253.81 801.622 1251.57 801.019C1249.3 800.432 1247.05 799.615 1244.91 798.441C1243.83 797.854 1242.78 797.182 1241.78 796.397C1240.87 795.578 1240 794.654 1239.19 793.612C1238.37 792.569 1237.61 791.409 1236.92 790.118C1236.59 789.471 1236.23 788.81 1235.97 788.087C1235.74 787.357 1235.52 786.599 1235.33 785.807C1234.93 784.22 1234.69 782.702 1234.57 781.261C1234.51 780.538 1234.49 779.834 1234.49 779.149C1234.51 778.461 1234.63 777.781 1234.74 777.123C1235.21 774.486 1236.1 772.152 1237.27 770.079C1239.78 765.91 1243.66 762.756 1247.34 760.007C1251.4 757.251 1255.27 754.874 1258.44 752.185C1260.12 750.846 1261.55 749.427 1262.62 747.796C1262.9 747.389 1263.12 746.962 1263.38 746.532C1263.66 746.108 1263.92 745.668 1264.16 745.207C1264.62 744.287 1264.99 743.298 1265.25 742.201C1265.38 741.65 1265.47 741.115 1265.53 740.581C1265.6 740.049 1265.74 739.557 1265.79 739.047C1265.91 738.044 1265.91 737.052 1265.8 736.063C1265.69 735.073 1265.48 734.085 1265.19 733.09C1264.99 732.133 1264.72 731.175 1264.37 730.198C1263.68 728.253 1262.74 726.252 1261.69 724.183C1260.61 722.1 1259.71 720.093 1258.71 717.922C1257.73 715.766 1256.8 713.528 1256.07 711.195C1255.34 708.861 1255.05 706.592 1255 704.151C1254.99 702.943 1255.07 701.71 1255.26 700.457C1255.43 699.202 1255.73 697.927 1256.28 696.749C1257.31 694.338 1258.88 691.883 1261.07 689.466C1263.49 687.273 1265.94 685.707 1268.35 684.674C1269.53 684.123 1270.81 683.83 1272.07 683.648C1273.31 683.458 1274.55 683.379 1275.76 683.393C1278.2 683.445 1280.46 683.734 1282.8 684.464C1285.13 685.194 1287.38 686.123 1289.53 687.097C1291.7 688.11 1293.71 689.008 1295.79 690.082C1297.86 691.132 1299.86 692.079 1301.81 692.768C1302.78 693.116 1303.74 693.384 1304.7 693.591C1305.69 693.878 1306.68 694.09 1307.67 694.193C1308.66 694.3 1309.65 694.303 1310.66 694.183C1311.16 694.131 1311.66 694 1312.19 693.925C1312.72 693.866 1313.26 693.768 1313.81 693.642C1314.9 693.384 1315.89 693.016 1316.81 692.547C1317.27 692.313 1317.71 692.053 1318.14 691.776C1318.57 691.511 1319 691.298 1319.4 691.019C1321.04 689.948 1322.45 688.512 1323.79 686.839C1326.48 683.668 1328.86 679.794 1331.61 675.733C1334.36 672.051 1337.51 668.178 1341.68 665.661C1343.76 664.494 1346.09 663.607 1348.73 663.134C1349.38 663.027 1350.07 662.903 1350.76 662.883C1351.44 662.879 1352.14 662.907 1352.87 662.965C1354.31 663.082 1355.83 663.327 1357.41 663.716C1358.2 663.912 1358.96 664.129 1359.69 664.37C1360.41 664.624 1361.08 664.989 1361.73 665.32C1363.01 666.008 1364.17 666.766 1365.22 667.582C1366.26 668.394 1367.18 669.265 1368 670.178C1368.79 671.173 1369.46 672.23 1370.05 673.295C1371.22 675.442 1372.04 677.69 1372.63 679.96C1373.23 682.21 1373.46 684.756 1373.7 687.097C1373.88 689.425 1374.06 691.745 1374.24 694.01C1374.44 696.217 1374.53 698.551 1374.91 700.586C1375.08 701.617 1375.31 702.605 1375.61 703.549C1375.91 704.478 1376.28 705.366 1376.65 706.337C1377.42 708.21 1378.55 709.883 1380.25 711.366C1381.74 713.071 1383.41 714.201 1385.28 714.975C1386.26 715.337 1387.14 715.709 1388.07 716.013C1389.01 716.309 1390 716.537 1391.04 716.717C1393.07 717.089 1395.4 717.182 1397.61 717.378C1399.87 717.557 1402.2 717.738 1404.52 717.922C1406.87 718.157 1409.41 718.392 1411.66 718.995C1413.93 719.585 1416.18 720.399 1418.32 721.575C1419.39 722.162 1420.45 722.835 1421.44 723.618C1422.35 724.436 1423.23 725.36 1424.04 726.404C1424.86 727.447 1425.61 728.607 1426.3 729.895C1426.63 730.542 1427 731.206 1427.25 731.929C1427.49 732.656 1427.71 733.415 1427.9 734.208C1428.29 735.794 1428.54 737.314 1428.65 738.756C1428.71 739.474 1428.74 740.182 1428.74 740.867C1428.72 741.555 1428.59 742.235 1428.48 742.893C1428.01 745.53 1427.13 747.864 1425.96 749.937L1425.96 749.936ZM1331.61 641.505C1266.17 641.505 1213.11 694.56 1213.11 760.006C1213.11 825.452 1266.17 878.505 1331.61 878.505C1397.06 878.505 1450.11 825.452 1450.11 760.006C1450.11 694.56 1397.06 641.505 1331.61 641.505" fill="#862D91"/>
<path d="M1355.52 750.103C1348.12 750.103 1342.11 744.1 1342.11 736.695C1342.11 729.288 1348.12 723.285 1355.52 723.285C1362.93 723.285 1368.93 729.288 1368.93 736.695C1368.93 744.1 1362.93 750.103 1355.52 750.103ZM1404.52 734.28C1403.39 732.326 1401.86 730.737 1400.28 729.395C1398.76 728.048 1396.92 726.992 1395.22 726.055C1391.73 724.199 1388.12 722.981 1385 721.546C1381.74 720.16 1379.1 718.564 1376.4 715.819C1373.65 713.12 1372.06 710.476 1370.67 707.216C1369.24 704.093 1368.02 700.484 1366.16 696.996C1365.22 695.296 1364.17 693.456 1362.82 691.932C1361.48 690.353 1359.89 688.827 1357.94 687.69C1354.08 685.298 1348.62 684.018 1341.91 685.786C1335.21 687.613 1331.12 691.492 1328.92 695.441C1327.84 697.46 1327.21 699.559 1326.81 701.561C1326.5 703.653 1326.43 705.682 1326.46 707.616C1326.58 709.628 1326.81 711.551 1327.01 713.362C1327.29 715.254 1327.53 717.019 1327.69 718.736C1328.09 722.238 1328.08 725.358 1327.06 729.049C1326.09 732.749 1324.5 735.477 1322.48 738.309C1321.45 739.654 1320.35 741.098 1319.2 742.605C1317.98 744.098 1316.95 745.629 1315.85 747.31C1313.73 750.659 1312.02 754.506 1311.87 759.113C1311.83 763.609 1313.39 769.046 1318.26 773.959C1323.17 778.823 1328.61 780.392 1333.1 780.344C1337.71 780.196 1341.56 778.489 1344.91 776.37C1346.59 775.269 1348.12 774.231 1349.61 773.02C1351.12 771.872 1352.56 770.766 1353.91 769.734C1356.74 767.72 1359.47 766.126 1363.17 765.157C1366.86 764.139 1369.98 764.129 1373.48 764.524C1375.2 764.686 1376.96 764.923 1378.85 765.212C1380.67 765.41 1382.59 765.635 1384.6 765.752C1386.54 765.791 1388.56 765.723 1390.65 765.405C1392.66 765.009 1394.76 764.374 1396.78 763.292C1400.72 761.101 1404.6 757.011 1406.43 750.308C1408.2 743.592 1406.92 738.136 1404.52 734.28" fill="#80C342"/>
</g>
</g>
<defs>
<filter id="filter0_i" x="575.061" y="-181.268" width="540.638" height="463.349" filterUnits="userSpaceOnUse" color-interpolation-filters="sRGB">
<feFlood flood-opacity="0" result="BackgroundImageFix"/>
<feBlend mode="normal" in="SourceGraphic" in2="BackgroundImageFix" result="shape"/>
<feColorMatrix in="SourceAlpha" type="matrix" values="0 0 0 0 0 0 0 0 0 0 0 0 0 0 0 0 0 0 127 0" result="hardAlpha"/>
<feOffset dx="10" dy="4"/>
<feGaussianBlur stdDeviation="2"/>
<feComposite in2="hardAlpha" operator="arithmetic" k2="-1" k3="1"/>
<feColorMatrix type="matrix" values="0 0 0 0 0 0 0 0 0 0 0 0 0 0 0 0 0 0 0.19 0"/>
<feBlend mode="normal" in2="shape" result="effect1_innerShadow"/>
</filter>
<filter id="filter1_i" x="756.301" y="229.301" width="1064.67" height="1057.49" filterUnits="userSpaceOnUse" color-interpolation-filters="sRGB">
<feFlood flood-opacity="0" result="BackgroundImageFix"/>
<feBlend mode="normal" in="SourceGraphic" in2="BackgroundImageFix" result="shape"/>
<feColorMatrix in="SourceAlpha" type="matrix" values="0 0 0 0 0 0 0 0 0 0 0 0 0 0 0 0 0 0 127 0" result="hardAlpha"/>
<feOffset dx="10" dy="10"/>
<feGaussianBlur stdDeviation="2"/>
<feComposite in2="hardAlpha" operator="arithmetic" k2="-1" k3="1"/>
<feColorMatrix type="matrix" values="0 0 0 0 0 0 0 0 0 0 0 0 0 0 0 0 0 0 0.25 0"/>
<feBlend mode="normal" in2="shape" result="effect1_innerShadow"/>
</filter>
<clipPath id="clip0">
<rect width="1920" height="2240" fill="white"/>
</clipPath>
<clipPath id="clip1">
<rect width="237" height="237" fill="white" transform="translate(1212.85 641)"/>
</clipPath>
</defs>
</svg>
