<svg width="414" height="5962" viewBox="0 0 414 5962" fill="none" xmlns="http://www.w3.org/2000/svg">
<g clip-path="url(#clip0)">
<rect width="414" height="5962" fill="white"/>
<rect width="414" height="5962" fill="white"/>
<g filter="url(#filter0_i)">
<path d="M-71.0843 474.03C-48.3559 476.028 -31.6189 496.909 -33.7079 520.668C-35.7975 544.432 -55.9217 562.072 -78.6501 560.073C-101.382 558.074 -118.115 537.194 -116.026 513.43C-113.936 489.671 -93.8165 472.031 -71.0843 474.03ZM-225.964 511.571C-223.031 518.147 -218.801 523.657 -214.327 528.389C-210.029 533.121 -204.688 537.006 -199.726 540.473C-189.542 547.369 -178.813 552.25 -169.629 557.696C-160.009 563.025 -152.354 568.859 -144.837 578.396C-137.169 587.796 -133.017 596.709 -129.682 607.541C-126.161 617.951 -123.442 629.858 -118.724 641.551C-116.33 647.256 -113.607 653.447 -109.9 658.7C-106.224 664.129 -101.779 669.453 -96.1026 673.628C-84.939 682.345 -68.5526 687.924 -47.4436 684.063C-26.353 680.011 -55.2833 611.688 -47.4436 599.608C-43.5449 593.422 -35.4877 605.925 -33.7079 599.608C-32.1484 592.982 -47.8735 605.821 -47.4436 599.608C-101.01 559.811 -70.9808 605.473 -71.0843 599.608C-131.922 587.227 -39.5201 592.778 -39.531 587.227C-39.7574 575.884 6.17839 560.831 10.3422 549.262C14.3645 537.653 20.026 529.33 27.0101 520.79C30.5554 516.753 34.3459 512.414 38.3038 507.89C42.4457 503.427 46.0662 498.796 49.9163 493.701C57.3538 483.527 63.6886 471.643 65.4396 456.903C66.8503 442.489 63.5767 424.621 50.0347 407.547C36.326 390.614 20.0751 384.113 6.26562 383.054C-7.91827 382.285 -20.2178 386.721 -31.0845 392.617C-36.5636 395.695 -41.5532 398.615 -46.473 402.098C-51.4251 405.372 -56.1712 408.531 -60.5939 411.479C-69.8513 417.177 -78.6724 421.557 -90.3101 423.665C-101.934 425.935 -111.505 425.127 -122.137 422.913C-127.367 421.93 -132.716 420.693 -138.443 419.255C-143.947 418.131 -149.791 416.888 -155.933 415.97C-161.857 415.323 -168.101 414.995 -174.611 415.452C-180.874 416.18 -187.489 417.651 -193.993 420.577C-206.734 426.542 -219.799 438.619 -227.292 459.633C-234.62 480.701 -232.226 498.552 -225.964 511.572" fill="#80C342"/>
</g>
<path d="M-225.964 511.571C-223.031 518.147 -218.801 523.657 -214.327 528.389C-210.029 533.121 -204.688 537.006 -199.726 540.473C-189.541 547.369 -178.813 552.25 -169.629 557.696C-160.009 563.025 -152.354 568.859 -144.837 578.396C-137.169 587.796 -133.017 596.709 -129.682 607.541C-126.161 617.951 -123.442 629.858 -118.724 641.551C-116.33 647.256 -113.607 653.447 -109.9 658.7C-106.224 664.129 -101.779 669.453 -96.1026 673.628C-84.9389 682.345 -68.5526 687.924 -47.4436 684.063C-26.353 680.011 -55.2833 611.688 -47.4436 599.608M-47.4436 599.608C-43.5449 593.422 -35.4877 605.925 -33.7079 599.608C-32.1484 592.982 -47.8735 605.821 -47.4436 599.608ZM-47.4436 599.608C-101.01 559.811 -70.9808 605.473 -71.0843 599.608C-131.922 587.227 -39.5201 592.778 -39.531 587.227C-39.7574 575.884 6.17839 560.831 10.3422 549.262C14.3645 537.653 20.026 529.33 27.0101 520.79C30.5554 516.753 34.3459 512.414 38.3038 507.89C42.4457 503.427 46.0662 498.796 49.9163 493.701C57.3538 483.527 63.6886 471.643 65.4396 456.903C66.8503 442.489 63.5767 424.621 50.0347 407.547C36.326 390.614 20.0751 384.113 6.26562 383.054C-7.91827 382.285 -20.2178 386.721 -31.0845 392.617C-36.5636 395.695 -41.5532 398.615 -46.473 402.098C-51.4251 405.372 -56.1712 408.531 -60.5939 411.479C-69.8513 417.177 -78.6724 421.557 -90.3101 423.665C-101.934 425.935 -111.505 425.127 -122.137 422.913C-127.367 421.93 -132.716 420.693 -138.443 419.255C-143.947 418.13 -149.791 416.888 -155.933 415.97C-161.857 415.323 -168.101 414.995 -174.611 415.452C-180.874 416.18 -187.489 417.651 -193.993 420.577C-206.734 426.542 -219.799 438.619 -227.292 459.633C-234.62 480.701 -232.226 498.552 -225.964 511.572M-71.0843 474.03C-48.3559 476.028 -31.6189 496.909 -33.7079 520.668C-35.7975 544.432 -55.9217 562.072 -78.6501 560.073C-101.382 558.074 -118.115 537.194 -116.026 513.43C-113.936 489.671 -93.8165 472.031 -71.0843 474.03Z" stroke="#80C342"/>
<mask id="path-4-inside-1" fill="white">
<path d="M10.7762 354.767C15.0043 361.735 16.6708 369.924 17.8869 377.519C18.8168 385.673 19.3436 393.262 20.8687 400.05C21.5541 403.573 22.5441 406.8 24.1298 409.659C24.516 410.388 24.9829 411.036 25.4114 411.758C25.8267 412.506 26.2809 413.228 26.7793 413.935C27.7814 415.344 28.9655 416.66 30.3873 417.889C31.1012 418.507 31.8305 419.065 32.5711 419.57C33.2959 420.093 33.9283 420.668 34.64 421.135C36.0434 422.101 37.5138 422.865 39.0604 423.476C40.6108 424.093 42.2391 424.55 43.9389 424.894C45.5185 425.331 47.1461 425.677 48.8659 425.921C52.2849 426.411 55.9874 426.553 59.8719 426.607C63.7905 426.634 67.4592 426.859 71.4702 427.052C75.4172 427.279 79.4622 427.642 83.4927 428.375C87.5207 429.1 91.1067 430.438 94.7688 432.253C96.5677 433.178 98.3309 434.252 100.038 435.501C101.77 436.747 103.428 438.171 104.745 439.904C107.522 443.31 109.945 447.538 111.821 452.663C113.204 457.947 113.618 462.807 113.28 467.178C113.179 469.359 112.625 471.472 111.913 473.476C111.222 475.478 110.39 477.363 109.429 479.149C107.457 482.726 105.268 485.863 102.374 488.755C99.473 491.647 96.3633 494.243 93.2449 496.681C90.0577 499.114 87.1674 501.389 83.9573 503.643C80.7943 505.893 77.8394 508.118 75.306 510.47C74.0336 511.645 72.8928 512.854 71.841 514.117C70.6391 515.367 69.5605 516.669 68.6354 518.05C67.712 519.44 66.9383 520.904 66.3375 522.49C66.0207 523.281 65.8297 524.117 65.531 524.96C65.2027 525.798 64.9243 526.666 64.6939 527.578C64.2261 529.402 63.9997 531.163 63.9813 532.887C63.967 533.747 64.0134 534.602 64.0954 535.451C64.1536 536.296 64.14 537.093 64.2364 537.914C64.5576 541.164 65.5856 544.38 67.0262 547.666C69.6406 554.107 73.5401 560.647 77.4184 567.88C80.7481 574.819 84.0416 582.503 84.5324 590.633C84.6585 594.614 84.164 598.763 82.8153 603.039C82.463 604.096 82.1184 605.201 81.6138 606.239C81.0828 607.252 80.5006 608.276 79.8534 609.302C78.5567 611.35 77.0189 613.409 75.2122 615.454C74.3059 616.477 73.394 617.434 72.473 618.324C71.5341 619.197 70.477 619.899 69.4843 620.601C67.4639 621.974 65.4371 623.111 63.4176 624.023C61.402 624.94 59.3947 625.629 57.4059 626.135C55.3215 626.525 53.2326 626.699 51.1875 626.741C47.0951 626.816 43.1376 626.273 39.3109 625.387C35.5092 624.535 31.5497 622.903 27.894 621.436C24.3011 619.9 20.7194 618.366 17.2214 616.872C13.7988 615.445 10.2651 613.77 6.95975 612.746C5.28945 612.209 3.65048 611.773 2.0184 611.486C0.399969 611.21 -1.20221 611.077 -2.92062 610.855C-6.30127 610.552 -9.65624 610.921 -13.1845 612.291C-16.8663 613.172 -19.8356 614.779 -22.4382 616.952C-23.7238 618.109 -24.9711 619.13 -26.144 620.276C-27.3107 621.442 -28.4188 622.731 -29.4871 624.124C-31.6151 626.845 -33.5681 630.237 -35.567 633.352C-37.5957 636.574 -39.6663 639.873 -41.7431 643.174C-43.9123 646.457 -46.2408 650.057 -48.8788 652.92C-51.5107 655.827 -54.4689 658.524 -57.8741 660.79C-59.5762 661.921 -61.3892 662.961 -63.329 663.832C-65.2525 664.548 -67.296 665.115 -69.4735 665.514C-71.6515 665.909 -73.963 666.136 -76.4114 666.153C-77.6274 666.139 -78.8916 666.168 -80.1615 665.984C-81.428 665.769 -82.7218 665.507 -84.0448 665.176C-86.7015 664.522 -89.1455 663.71 -91.3717 662.763C-92.4891 662.287 -93.5518 661.777 -94.5651 661.239C-95.5735 660.681 -96.4852 659.968 -97.3757 659.296C-100.919 656.546 -103.69 653.416 -105.857 650.076C-110.088 643.113 -111.755 634.919 -112.971 627.324C-113.907 619.168 -114.425 611.582 -115.95 604.794C-116.637 601.273 -117.626 598.045 -119.214 595.19C-119.601 594.462 -120.067 593.813 -120.499 593.085C-120.909 592.34 -121.361 591.614 -121.863 590.908C-122.866 589.507 -124.047 588.191 -125.472 586.955C-126.188 586.335 -126.91 585.781 -127.653 585.275C-128.386 584.755 -129.011 584.172 -129.73 583.707C-131.122 582.745 -132.595 581.979 -134.145 581.367C-135.695 580.757 -137.323 580.299 -139.024 579.957C-140.603 579.518 -142.231 579.173 -143.951 578.93C-147.369 578.438 -151.069 578.286 -154.954 578.238C-158.875 578.209 -162.55 577.985 -166.552 577.793C-170.506 577.56 -174.547 577.201 -178.572 576.471C-182.603 575.745 -186.191 574.41 -189.851 572.592C-191.649 571.666 -193.415 570.591 -195.128 569.34C-196.849 568.099 -198.514 566.676 -199.831 564.942C-202.603 561.534 -205.029 557.31 -206.908 552.178C-208.286 546.898 -208.703 542.043 -208.362 537.666C-208.263 535.491 -207.706 533.372 -207 531.367C-206.312 529.369 -205.472 527.481 -204.511 525.695C-202.539 522.118 -200.352 518.985 -197.454 516.086C-194.563 513.2 -191.444 510.599 -188.329 508.168C-185.14 505.731 -182.248 503.452 -179.041 501.206C-175.876 498.951 -172.921 496.727 -170.387 494.373C-169.115 493.199 -167.975 491.991 -166.923 490.728C-165.727 489.481 -164.645 488.181 -163.722 486.791C-162.794 485.404 -162.018 483.936 -161.417 482.355C-161.101 481.564 -160.91 480.727 -160.611 479.884C-160.285 479.051 -160.012 478.176 -159.773 477.265C-159.306 475.443 -159.082 473.687 -159.064 471.963C-159.052 471.095 -159.096 470.241 -159.175 469.393C-159.237 468.554 -159.219 467.75 -159.317 466.931C-159.637 463.681 -160.666 460.465 -162.109 457.185C-164.723 450.736 -168.619 444.196 -172.502 436.959C-175.83 430.029 -179.125 422.347 -179.619 414.212C-179.738 410.23 -179.243 406.086 -177.898 401.812C-177.546 400.753 -177.197 399.641 -176.694 398.606C-176.169 397.592 -175.58 396.569 -174.933 395.543C-173.64 393.497 -172.098 391.434 -170.292 389.39C-169.387 388.371 -168.474 387.41 -167.553 386.521C-166.613 385.645 -165.557 384.946 -164.563 384.241C-162.543 382.868 -160.52 381.739 -158.5 380.827C-156.485 379.91 -154.475 379.216 -152.489 378.715C-150.404 378.326 -148.313 378.146 -146.275 378.1C-142.183 378.032 -138.216 378.568 -134.391 379.457C-130.586 380.311 -126.63 381.942 -122.977 383.413C-119.384 384.95 -115.801 386.481 -112.302 387.975C-108.879 389.4 -105.346 391.076 -102.038 392.101C-100.372 392.641 -98.731 393.073 -97.0998 393.362C-95.4856 393.633 -93.8802 393.773 -92.1593 393.99C-88.7775 394.291 -85.4226 393.922 -81.9036 392.551C-78.2203 391.673 -75.2448 390.067 -72.6451 387.899C-71.3525 386.735 -70.1143 385.713 -68.9394 384.569C-67.7691 383.404 -66.6653 382.116 -65.5953 380.725C-63.4642 377.998 -61.5145 374.611 -59.511 371.495C-57.4866 368.277 -55.4146 364.972 -53.337 361.671C-51.1707 358.381 -48.8445 354.791 -46.2056 351.927C-43.5659 349.017 -40.613 346.318 -37.2044 344.052C-35.5067 342.929 -33.688 341.885 -31.7542 341.019C-29.8334 340.302 -27.7864 339.729 -25.6088 339.335C-23.4271 338.933 -21.12 338.714 -18.6761 338.694C-17.4572 338.702 -16.1886 338.677 -14.9214 338.866C-13.6571 339.073 -12.363 339.341 -11.034 339.667C-8.38108 340.322 -5.93749 341.14 -3.70761 342.087C-2.59784 342.558 -1.52872 343.069 -0.514288 343.604C0.490833 344.169 1.40272 344.882 2.29355 345.553C5.83909 348.298 8.61065 351.428 10.7776 354.767L10.7762 354.767Z"/>
</mask>
<path d="M10.7762 354.767C15.0043 361.735 16.6708 369.924 17.8869 377.519C18.8168 385.673 19.3436 393.262 20.8687 400.05C21.5541 403.573 22.5441 406.8 24.1298 409.659C24.516 410.388 24.9829 411.036 25.4114 411.758C25.8267 412.506 26.2809 413.228 26.7793 413.935C27.7814 415.344 28.9655 416.66 30.3873 417.889C31.1012 418.507 31.8305 419.065 32.5711 419.57C33.2959 420.093 33.9283 420.668 34.64 421.135C36.0434 422.101 37.5138 422.865 39.0604 423.476C40.6108 424.093 42.2391 424.55 43.9389 424.894C45.5185 425.331 47.1461 425.677 48.8659 425.921C52.2849 426.411 55.9874 426.553 59.8719 426.607C63.7905 426.634 67.4592 426.859 71.4702 427.052C75.4172 427.279 79.4622 427.642 83.4927 428.375C87.5207 429.1 91.1067 430.438 94.7688 432.253C96.5677 433.178 98.3309 434.252 100.038 435.501C101.77 436.747 103.428 438.171 104.745 439.904C107.522 443.31 109.945 447.538 111.821 452.663C113.204 457.947 113.618 462.807 113.28 467.178C113.179 469.359 112.625 471.472 111.913 473.476C111.222 475.478 110.39 477.363 109.429 479.149C107.457 482.726 105.268 485.863 102.374 488.755C99.473 491.647 96.3633 494.243 93.2449 496.681C90.0577 499.114 87.1674 501.389 83.9573 503.643C80.7943 505.893 77.8394 508.118 75.306 510.47C74.0336 511.645 72.8928 512.854 71.841 514.117C70.6391 515.367 69.5605 516.669 68.6354 518.05C67.712 519.44 66.9383 520.904 66.3375 522.49C66.0207 523.281 65.8297 524.117 65.531 524.96C65.2027 525.798 64.9243 526.666 64.6939 527.578C64.2261 529.402 63.9997 531.163 63.9813 532.887C63.967 533.747 64.0134 534.602 64.0954 535.451C64.1536 536.296 64.14 537.093 64.2364 537.914C64.5576 541.164 65.5856 544.38 67.0262 547.666C69.6406 554.107 73.5401 560.647 77.4184 567.88C80.7481 574.819 84.0416 582.503 84.5324 590.633C84.6585 594.614 84.164 598.763 82.8153 603.039C82.463 604.096 82.1184 605.201 81.6138 606.239C81.0828 607.252 80.5006 608.276 79.8534 609.302C78.5567 611.35 77.0189 613.409 75.2122 615.454C74.3059 616.477 73.394 617.434 72.473 618.324C71.5341 619.197 70.477 619.899 69.4843 620.601C67.4639 621.974 65.4371 623.111 63.4176 624.023C61.402 624.94 59.3947 625.629 57.4059 626.135C55.3215 626.525 53.2326 626.699 51.1875 626.741C47.0951 626.816 43.1376 626.273 39.3109 625.387C35.5092 624.535 31.5497 622.903 27.894 621.436C24.3011 619.9 20.7194 618.366 17.2214 616.872C13.7988 615.445 10.2651 613.77 6.95975 612.746C5.28945 612.209 3.65048 611.773 2.0184 611.486C0.399969 611.21 -1.20221 611.077 -2.92062 610.855C-6.30127 610.552 -9.65624 610.921 -13.1845 612.291C-16.8663 613.172 -19.8356 614.779 -22.4382 616.952C-23.7238 618.109 -24.9711 619.13 -26.144 620.276C-27.3107 621.442 -28.4188 622.731 -29.4871 624.124C-31.6151 626.845 -33.5681 630.237 -35.567 633.352C-37.5957 636.574 -39.6663 639.873 -41.7431 643.174C-43.9123 646.457 -46.2408 650.057 -48.8788 652.92C-51.5107 655.827 -54.4689 658.524 -57.8741 660.79C-59.5762 661.921 -61.3892 662.961 -63.329 663.832C-65.2525 664.548 -67.296 665.115 -69.4735 665.514C-71.6515 665.909 -73.963 666.136 -76.4114 666.153C-77.6274 666.139 -78.8916 666.168 -80.1615 665.984C-81.428 665.769 -82.7218 665.507 -84.0448 665.176C-86.7015 664.522 -89.1455 663.71 -91.3717 662.763C-92.4891 662.287 -93.5518 661.777 -94.5651 661.239C-95.5735 660.681 -96.4852 659.968 -97.3757 659.296C-100.919 656.546 -103.69 653.416 -105.857 650.076C-110.088 643.113 -111.755 634.919 -112.971 627.324C-113.907 619.168 -114.425 611.582 -115.95 604.794C-116.637 601.273 -117.626 598.045 -119.214 595.19C-119.601 594.462 -120.067 593.813 -120.499 593.085C-120.909 592.34 -121.361 591.614 -121.863 590.908C-122.866 589.507 -124.047 588.191 -125.472 586.955C-126.188 586.335 -126.91 585.781 -127.653 585.275C-128.386 584.755 -129.011 584.172 -129.73 583.707C-131.122 582.745 -132.595 581.979 -134.145 581.367C-135.695 580.757 -137.323 580.299 -139.024 579.957C-140.603 579.518 -142.231 579.173 -143.951 578.93C-147.369 578.438 -151.069 578.286 -154.954 578.238C-158.875 578.209 -162.55 577.985 -166.552 577.793C-170.506 577.56 -174.547 577.201 -178.572 576.471C-182.603 575.745 -186.191 574.41 -189.851 572.592C-191.649 571.666 -193.415 570.591 -195.128 569.34C-196.849 568.099 -198.514 566.676 -199.831 564.942C-202.603 561.534 -205.029 557.31 -206.908 552.178C-208.286 546.898 -208.703 542.043 -208.362 537.666C-208.263 535.491 -207.706 533.372 -207 531.367C-206.312 529.369 -205.472 527.481 -204.511 525.695C-202.539 522.118 -200.352 518.985 -197.454 516.086C-194.563 513.2 -191.444 510.599 -188.329 508.168C-185.14 505.731 -182.248 503.452 -179.041 501.206C-175.876 498.951 -172.921 496.727 -170.387 494.373C-169.115 493.199 -167.975 491.991 -166.923 490.728C-165.727 489.481 -164.645 488.181 -163.722 486.791C-162.794 485.404 -162.018 483.936 -161.417 482.355C-161.101 481.564 -160.91 480.727 -160.611 479.884C-160.285 479.051 -160.012 478.176 -159.773 477.265C-159.306 475.443 -159.082 473.687 -159.064 471.963C-159.052 471.095 -159.096 470.241 -159.175 469.393C-159.237 468.554 -159.219 467.75 -159.317 466.931C-159.637 463.681 -160.666 460.465 -162.109 457.185C-164.723 450.736 -168.619 444.196 -172.502 436.959C-175.83 430.029 -179.125 422.347 -179.619 414.212C-179.738 410.23 -179.243 406.086 -177.898 401.812C-177.546 400.753 -177.197 399.641 -176.694 398.606C-176.169 397.592 -175.58 396.569 -174.933 395.543C-173.64 393.497 -172.098 391.434 -170.292 389.39C-169.387 388.371 -168.474 387.41 -167.553 386.521C-166.613 385.645 -165.557 384.946 -164.563 384.241C-162.543 382.868 -160.52 381.739 -158.5 380.827C-156.485 379.91 -154.475 379.216 -152.489 378.715C-150.404 378.326 -148.313 378.146 -146.275 378.1C-142.183 378.032 -138.216 378.568 -134.391 379.457C-130.586 380.311 -126.63 381.942 -122.977 383.413C-119.384 384.95 -115.801 386.481 -112.302 387.975C-108.879 389.4 -105.346 391.076 -102.038 392.101C-100.372 392.641 -98.731 393.073 -97.0998 393.362C-95.4856 393.633 -93.8802 393.773 -92.1593 393.99C-88.7775 394.291 -85.4226 393.922 -81.9036 392.551C-78.2203 391.673 -75.2448 390.067 -72.6451 387.899C-71.3525 386.735 -70.1143 385.713 -68.9394 384.569C-67.7691 383.404 -66.6653 382.116 -65.5953 380.725C-63.4642 377.998 -61.5145 374.611 -59.511 371.495C-57.4866 368.277 -55.4146 364.972 -53.337 361.671C-51.1707 358.381 -48.8445 354.791 -46.2056 351.927C-43.5659 349.017 -40.613 346.318 -37.2044 344.052C-35.5067 342.929 -33.688 341.885 -31.7542 341.019C-29.8334 340.302 -27.7864 339.729 -25.6088 339.335C-23.4271 338.933 -21.12 338.714 -18.6761 338.694C-17.4572 338.702 -16.1886 338.677 -14.9214 338.866C-13.6571 339.073 -12.363 339.341 -11.034 339.667C-8.38108 340.322 -5.93749 341.14 -3.70761 342.087C-2.59784 342.558 -1.52872 343.069 -0.514288 343.604C0.490833 344.169 1.40272 344.882 2.29355 345.553C5.83909 348.298 8.61065 351.428 10.7776 354.767L10.7762 354.767Z" fill="#862D91" stroke="#862D91" stroke-width="2" mask="url(#path-4-inside-1)"/>
<path fill-rule="evenodd" clip-rule="evenodd" d="M242.482 531.621C260.936 557.515 273.883 586.741 275.89 618.478C277.891 650.116 273.567 683.874 253.672 708.561C234.695 732.11 172.08 650.788 145.814 665.778C113.054 684.475 125.622 679.169 88.7569 671.207C52.2668 663.326 50.8165 700.508 37.129 665.778C27.3428 640.948 -22.9854 667.483 -28.141 641.295C-34.4362 609.318 -10.6074 560.965 3.58093 531.621C17.5547 502.72 47.756 518.836 77.1406 505.909C107.965 492.348 134.027 460.932 167.298 466.106C200.972 471.342 222.706 503.872 242.482 531.621Z" fill="white"/>
<g filter="url(#filter1_i)">
<path d="M209.593 17.8211C206.267 27.0806 195.425 31.6637 185.378 28.0552C175.328 24.4458 169.879 14.0118 173.204 4.75232C176.53 -4.50869 187.372 -9.09014 197.422 -5.48074C207.469 -1.87217 212.919 8.56006 209.593 17.8211ZM210.131 -51.1687C206.97 -50.7012 204.129 -49.5699 201.598 -48.247C199.086 -46.9975 196.828 -45.2149 194.791 -43.5422C190.706 -40.0844 187.434 -36.1671 184.084 -32.9597C180.738 -29.5568 177.387 -27.0327 172.449 -24.9927C167.553 -22.8738 163.249 -22.1666 158.204 -22.0216C153.322 -21.7507 147.878 -21.9868 142.31 -21.3634C139.584 -21.0212 136.612 -20.5972 133.939 -19.6543C131.194 -18.7449 128.41 -17.5022 125.99 -15.6129C121.011 -11.9558 116.824 -5.75665 116.208 3.50156C115.676 12.7741 119.102 19.7796 123.477 24.4441C125.73 26.7844 128.293 28.5978 130.832 30.0684C133.528 31.4826 136.251 32.5582 138.892 33.4533C141.675 34.2871 144.385 34.9452 146.932 35.5775C149.629 36.139 152.13 36.7024 154.532 37.3372C159.462 38.5491 163.691 40.083 168.242 43.1539C172.827 46.1704 175.813 49.4927 178.749 53.3924C180.111 55.3376 183.105 51.8606 183.105 59.5934C184.586 61.8368 185.091 51.1981 186.877 53.3924C190.471 57.6695 200.982 29.9891 201.598 53.3923C201.598 29.9891 211.833 45.2121 220.682 41.5245C229.489 37.751 227.12 41.2214 229.073 35.5775C230.942 29.7441 234.827 38.6695 233.454 33.4533C232.717 30.8112 239.006 38.8367 238.033 36.3814C237.153 33.9367 236.302 31.5913 235.506 29.4052C234.044 24.8837 233.105 20.6962 233.454 15.5945C233.731 10.4796 235.117 6.57672 237.226 2.39261C238.217 0.322185 239.331 -1.76885 240.573 -3.99406C241.656 -6.16282 242.826 -8.45962 243.888 -10.9183C244.809 -13.3172 245.627 -15.8865 246.135 -18.6573C246.498 -21.356 246.578 -24.2875 246.017 -27.34C244.817 -33.3467 241.01 -40.1927 232.734 -45.7415C224.418 -51.2273 216.439 -52.2836 210.131 -51.1687" fill="#80C342"/>
</g>
<path d="M210.131 -51.1687C206.97 -50.7012 204.129 -49.5699 201.598 -48.247C199.086 -46.9975 196.828 -45.2149 194.791 -43.5422C190.706 -40.0844 187.434 -36.1671 184.084 -32.9597C180.738 -29.5568 177.387 -27.0327 172.449 -24.9927C167.553 -22.8738 163.249 -22.1666 158.204 -22.0216C153.322 -21.7507 147.878 -21.9868 142.31 -21.3634C139.584 -21.0212 136.612 -20.5972 133.939 -19.6543C131.194 -18.7449 128.41 -17.5022 125.99 -15.6129C121.011 -11.9558 116.824 -5.75665 116.208 3.50156C115.676 12.7741 119.102 19.7796 123.477 24.4441C125.73 26.7844 128.293 28.5978 130.832 30.0684C133.528 31.4826 136.251 32.5582 138.892 33.4533C141.675 34.2871 144.385 34.9452 146.932 35.5775C149.629 36.139 152.13 36.7024 154.532 37.3372C159.462 38.5491 163.691 40.083 168.242 43.1539C172.827 46.1704 175.813 49.4927 178.749 53.3924C180.111 55.3376 183.105 51.8606 183.105 59.5934C184.586 61.8368 185.091 51.1981 186.877 53.3923C190.471 57.6695 200.982 29.9891 201.598 53.3923C201.598 29.9891 211.833 45.2121 220.682 41.5245C229.489 37.751 227.12 41.2214 229.073 35.5775C230.942 29.7441 234.827 38.6695 233.454 33.4533C232.717 30.8112 239.006 38.8367 238.033 36.3814C237.153 33.9367 236.302 31.5913 235.506 29.4052C234.044 24.8837 233.105 20.6962 233.454 15.5945C233.731 10.4796 235.117 6.57672 237.226 2.3926C238.217 0.322182 239.331 -1.76885 240.573 -3.99405C241.656 -6.16282 242.826 -8.45961 243.888 -10.9183C244.809 -13.3172 245.627 -15.8865 246.135 -18.6573C246.498 -21.356 246.578 -24.2875 246.017 -27.34C244.817 -33.3467 241.01 -40.1927 232.734 -45.7415C224.418 -51.2273 216.439 -52.2836 210.131 -51.1687M209.593 17.8211C206.267 27.0806 195.425 31.6637 185.378 28.0552C175.328 24.4458 169.879 14.0118 173.204 4.75232C176.53 -4.5087 187.372 -9.09013 197.422 -5.48074C207.469 -1.87217 212.919 8.56006 209.593 17.8211Z" stroke="#80C342" stroke-width="0.243204"/>
<path fill-rule="evenodd" clip-rule="evenodd" d="M367.854 53.5634C403.97 63.6794 414.43 57.4777 445.436 53.5634C469.701 21.428 497.533 -92.021 502.782 -126.651C507.991 -161.009 510.697 -195.531 497.158 -224.398C483.322 -253.898 461.635 -282.378 425.454 -291.519C390.223 -300.421 346.907 -276.209 307.045 -272.431C267.611 -268.694 230.215 -287.304 192.359 -269.428C154.499 -251.55 136.331 -212.869 113.617 -181.094C91.9766 -150.82 60.7232 -119.074 62.6904 -88.0288C64.6587 -56.9673 135.27 -38.5698 147.755 -11.3719C161.214 17.9467 118.065 25.1048 136.689 53.5634C149.024 72.4117 172.562 57.4777 209.042 57.4777C248.09 57.4777 326.326 41.9313 367.854 53.5634Z" fill="#862D91"/>
<path d="M482.842 752.184C483.3 731.712 466.478 714.718 445.269 714.235C424.056 713.752 406.491 729.962 406.033 750.434C405.575 770.91 422.397 787.9 443.61 788.383C464.819 788.866 482.384 772.66 482.842 752.184ZM434.492 886.639C428.966 883.372 424.508 879.055 420.763 874.597C417 870.295 414.089 865.147 411.509 860.378C406.409 850.612 403.144 840.559 399.229 831.828C395.46 822.72 391.051 815.315 383.356 807.668C375.796 799.899 368.323 795.314 359.073 791.269C350.215 787.101 339.954 783.499 330.079 778.134C325.269 775.436 320.063 772.395 315.782 768.569C311.342 764.754 307.071 760.263 303.935 754.786C297.321 743.967 293.993 728.798 299.473 710.349C305.12 691.935 316.482 680.878 327.928 675.077C333.779 672.211 339.829 670.599 345.588 669.636C351.598 668.899 357.415 668.84 362.95 669.07C368.707 669.527 374.201 670.269 379.376 670.941C384.777 671.861 389.817 672.632 394.724 673.19C404.73 674.513 413.667 674.687 424.302 672.115C434.959 669.674 442.871 665.445 451.105 660.059C455.021 657.295 459.228 654.342 463.614 651.258C467.966 648.004 472.414 645.232 477.296 642.301C487.018 636.671 498.145 632.194 511.347 632.088C524.228 632.253 539.703 636.938 553.472 650.705C567.101 664.607 571.257 679.746 570.841 692.169C570.133 704.898 565.007 715.432 558.731 724.544C555.474 729.127 552.404 733.29 548.843 737.335C545.464 741.429 542.207 745.351 539.168 749.005C533.224 756.7 528.488 764.136 525.485 774.31C522.34 784.455 522.118 793.073 523.035 802.776C523.392 807.538 523.962 812.432 524.673 817.683C525.128 822.704 525.654 828.04 525.864 833.609C525.856 838.958 525.535 844.561 524.494 850.323C523.237 855.838 521.289 861.594 518.066 867.107C511.545 877.883 499.59 888.346 480.278 892.954C460.936 897.41 445.388 893.511 434.491 886.639" fill="#80C342"/>
<path d="M434.492 886.639C428.966 883.372 424.508 879.055 420.763 874.597C417 870.295 414.089 865.147 411.509 860.378C406.409 850.612 403.144 840.559 399.229 831.828C395.46 822.72 391.051 815.315 383.356 807.668C375.796 799.899 368.323 795.314 359.073 791.269C350.215 787.101 339.954 783.499 330.079 778.134C325.269 775.436 320.063 772.395 315.782 768.569C311.342 764.754 307.071 760.263 303.935 754.786C297.321 743.967 293.993 728.798 299.473 710.349C305.12 691.935 316.482 680.878 327.928 675.077C333.779 672.211 339.829 670.599 345.588 669.636C351.598 668.899 357.415 668.84 362.95 669.07C368.707 669.527 374.201 670.269 379.376 670.941C384.777 671.861 389.817 672.632 394.724 673.19C404.73 674.513 413.667 674.687 424.302 672.115C434.959 669.674 442.871 665.445 451.105 660.059C455.021 657.295 459.228 654.342 463.614 651.258C467.966 648.004 472.414 645.232 477.296 642.301C487.018 636.671 498.145 632.194 511.347 632.088C524.228 632.253 539.703 636.938 553.472 650.705C567.101 664.607 571.257 679.746 570.841 692.169C570.133 704.898 565.007 715.432 558.731 724.544C555.474 729.127 552.404 733.29 548.843 737.335C545.464 741.429 542.207 745.351 539.168 749.005C533.224 756.7 528.488 764.136 525.485 774.31C522.34 784.455 522.118 793.073 523.035 802.776C523.392 807.538 523.962 812.432 524.673 817.683C525.128 822.704 525.654 828.04 525.864 833.609C525.856 838.958 525.535 844.561 524.494 850.323C523.237 855.838 521.289 861.594 518.066 867.107C511.545 877.883 499.59 888.346 480.278 892.954C460.936 897.41 445.388 893.511 434.491 886.639M482.842 752.184C483.3 731.712 466.478 714.718 445.269 714.235C424.056 713.752 406.491 729.962 406.033 750.434C405.575 770.91 422.397 787.9 443.61 788.383C464.819 788.866 482.384 772.66 482.842 752.184Z" stroke="#80C342"/>
<mask id="path-11-inside-2" fill="white">
<path d="M601.579 713.906C596.494 709.964 590.235 707.932 584.402 706.308C578.106 704.86 572.218 703.779 567.042 701.982C564.347 701.133 561.909 700.069 559.81 698.569C559.273 698.201 558.807 697.776 558.279 697.375C557.731 696.982 557.205 696.561 556.695 696.106C555.68 695.193 554.753 694.145 553.914 692.917C553.492 692.3 553.119 691.676 552.788 691.049C552.442 690.432 552.047 689.883 551.743 689.281C551.108 688.091 550.638 686.865 550.292 685.593C549.943 684.317 549.727 682.994 549.604 681.625C549.398 680.342 549.268 679.029 549.226 677.652C549.136 674.915 549.345 671.986 549.636 668.92C549.952 665.83 550.093 662.92 550.287 659.743C550.45 656.613 550.514 653.394 550.288 650.154C550.068 646.916 549.33 643.973 548.227 640.929C547.658 639.43 546.97 637.947 546.141 636.492C545.316 635.018 544.345 633.587 543.103 632.397C540.68 629.91 537.582 627.63 533.737 625.702C529.725 624.149 525.961 623.396 522.514 623.279C520.8 623.168 519.1 623.419 517.472 623.804C515.848 624.172 514.302 624.663 512.823 625.263C509.856 626.503 507.215 627.953 504.704 629.98C502.194 632.012 499.897 634.234 497.722 636.477C495.545 638.775 493.517 640.853 491.479 643.185C489.447 645.479 487.453 647.613 485.396 649.402C484.368 650.302 483.324 651.095 482.246 651.813C481.165 652.65 480.055 653.386 478.895 653.993C477.729 654.599 476.517 655.08 475.226 655.414C474.58 655.595 473.91 655.672 473.225 655.833C472.542 656.018 471.839 656.162 471.107 656.263C469.64 656.472 468.244 656.496 466.894 656.359C466.22 656.295 465.556 656.183 464.899 656.044C464.244 655.924 463.619 655.865 462.985 655.717C460.472 655.179 458.046 654.087 455.601 652.663C450.79 650.038 446.012 646.392 440.691 642.702C435.553 639.469 429.828 636.2 423.514 635.1C420.412 634.652 417.126 634.677 413.667 635.365C412.81 635.55 411.916 635.724 411.061 636.031C410.223 636.36 409.373 636.729 408.515 637.149C406.802 637.991 405.06 639.022 403.305 640.266C402.427 640.891 401.6 641.525 400.826 642.173C400.062 642.836 399.422 643.608 398.787 644.328C397.54 645.8 396.477 647.297 395.59 648.808C394.7 650.316 393.988 651.837 393.421 653.36C392.937 654.968 392.62 656.598 392.412 658.206C392.001 661.424 392.085 664.59 392.448 667.683C392.787 670.753 393.722 674.016 394.554 677.025C395.446 679.991 396.336 682.947 397.204 685.835C398.025 688.657 399.03 691.588 399.546 694.282C399.822 695.645 400.022 696.975 400.106 698.286C400.183 699.586 400.149 700.86 400.174 702.233C400.12 704.923 399.543 707.534 398.168 710.194C397.162 713.018 395.65 715.217 393.726 717.077C392.711 717.988 391.806 718.881 390.809 719.705C389.797 720.522 388.693 721.282 387.512 722.001C385.201 723.439 382.381 724.681 379.774 725.982C377.08 727.298 374.322 728.64 371.563 729.987C368.809 731.408 365.793 732.927 363.328 734.755C360.829 736.573 358.465 738.668 356.401 741.152C355.369 742.394 354.401 743.731 353.552 745.183C352.827 746.636 352.208 748.196 351.708 749.877C351.212 751.558 350.835 753.36 350.611 755.287C350.517 756.247 350.386 757.24 350.421 758.257C350.48 759.274 350.573 760.316 350.718 761.388C351.001 763.538 351.425 765.535 351.974 767.372C352.249 768.295 352.557 769.177 352.89 770.022C353.24 770.866 353.719 771.647 354.168 772.407C356.013 775.44 358.221 777.898 360.646 779.899C365.726 783.843 371.989 785.876 377.822 787.5C384.119 788.953 390.005 790.027 395.181 791.824C397.875 792.674 400.314 793.736 402.41 795.238C402.945 795.607 403.413 796.031 403.945 796.435C404.492 796.824 405.021 797.244 405.529 797.701C406.538 798.614 407.466 799.66 408.309 800.892C408.732 801.51 409.104 802.127 409.435 802.757C409.779 803.38 410.181 803.924 410.483 804.531C411.115 805.713 411.586 806.94 411.932 808.215C412.275 809.49 412.493 810.813 412.614 812.183C412.821 813.466 412.951 814.779 412.993 816.155C413.083 818.892 412.883 821.821 412.587 824.886C412.271 827.978 412.13 830.893 411.936 834.063C411.777 837.199 411.71 840.414 411.935 843.65C412.155 846.889 412.89 849.834 413.996 852.877C414.565 854.376 415.254 855.861 416.085 857.32C416.907 858.786 417.876 860.222 419.118 861.412C421.544 863.895 424.638 866.177 428.489 868.107C432.498 869.657 436.258 870.411 439.71 870.526C441.419 870.639 443.124 870.387 444.752 870.006C446.374 869.639 447.922 869.143 449.401 868.542C452.368 867.302 455.005 865.854 457.521 863.825C460.027 861.8 462.329 859.571 464.498 857.33C466.678 855.031 468.709 852.952 470.741 850.622C472.777 848.326 474.77 846.193 476.828 844.403C477.856 843.504 478.899 842.711 479.977 841.993C481.054 841.16 482.164 840.422 483.331 839.816C484.495 839.207 485.709 838.724 486.997 838.39C487.643 838.21 488.314 838.132 488.998 837.971C489.678 837.787 490.386 837.649 491.119 837.54C492.583 837.332 493.976 837.31 495.325 837.447C496.005 837.514 496.668 837.623 497.325 837.76C497.975 837.882 498.606 837.939 499.237 838.088C501.751 838.625 504.177 839.718 506.617 841.143C511.434 843.768 516.212 847.412 521.536 851.106C526.668 854.336 532.39 857.606 538.708 858.709C541.811 859.153 545.094 859.126 548.552 858.441C549.41 858.256 550.309 858.079 551.162 857.773C552 857.449 552.851 857.075 553.709 856.655C555.42 855.816 557.165 854.781 558.919 853.538C559.794 852.914 560.623 852.279 561.398 851.631C562.163 850.967 562.801 850.197 563.438 849.475C564.685 848.004 565.742 846.509 566.629 844.998C567.52 843.49 568.235 841.968 568.798 840.446C569.282 838.838 569.602 837.206 569.814 835.605C570.219 832.386 570.141 829.213 569.776 826.122C569.436 823.049 568.502 819.788 567.665 816.781C566.773 813.815 565.884 810.858 565.018 807.97C564.198 805.148 563.193 802.217 562.676 799.52C562.397 798.161 562.201 796.83 562.115 795.519C562.042 794.223 562.071 792.946 562.049 791.571C562.105 788.88 562.682 786.269 564.057 783.617C565.06 780.791 566.573 778.588 568.492 776.73C569.513 775.813 570.419 774.927 571.414 774.102C572.426 773.282 573.528 772.525 574.707 771.804C577.023 770.364 579.84 769.125 582.448 767.82C585.139 766.507 587.9 765.165 590.66 763.817C593.419 762.399 596.427 760.881 598.893 759.053C601.395 757.228 603.76 755.138 605.825 752.651C606.85 751.412 607.822 750.071 608.666 748.623C609.392 747.173 610.016 745.61 610.512 743.929C611.014 742.245 611.383 740.446 611.61 738.523C611.708 737.561 611.837 736.564 611.798 735.549C611.745 734.535 611.647 733.491 611.507 732.416C611.223 730.268 610.794 728.271 610.245 726.431C609.973 725.515 609.665 724.628 609.334 723.782C608.979 722.94 608.5 722.159 608.052 721.398C606.211 718.364 604.003 715.905 601.578 713.905L601.579 713.906Z"/>
</mask>
<path d="M601.579 713.906C596.494 709.964 590.235 707.932 584.402 706.308C578.106 704.86 572.218 703.779 567.042 701.982C564.347 701.133 561.909 700.069 559.81 698.569C559.273 698.201 558.807 697.776 558.279 697.375C557.731 696.982 557.205 696.561 556.695 696.106C555.68 695.193 554.753 694.145 553.914 692.917C553.492 692.3 553.119 691.676 552.788 691.049C552.442 690.432 552.047 689.883 551.743 689.281C551.108 688.091 550.638 686.865 550.292 685.593C549.943 684.317 549.727 682.994 549.604 681.625C549.398 680.342 549.268 679.029 549.226 677.652C549.136 674.915 549.345 671.986 549.636 668.92C549.952 665.83 550.093 662.92 550.287 659.743C550.45 656.613 550.514 653.394 550.288 650.154C550.068 646.916 549.33 643.973 548.227 640.929C547.658 639.43 546.97 637.947 546.141 636.492C545.316 635.018 544.345 633.587 543.103 632.397C540.68 629.91 537.582 627.63 533.737 625.702C529.725 624.149 525.961 623.396 522.514 623.279C520.8 623.168 519.1 623.419 517.472 623.804C515.848 624.172 514.302 624.663 512.823 625.263C509.856 626.503 507.215 627.953 504.704 629.98C502.194 632.012 499.897 634.234 497.722 636.477C495.545 638.775 493.517 640.853 491.479 643.185C489.447 645.479 487.453 647.613 485.396 649.402C484.368 650.302 483.324 651.095 482.246 651.813C481.165 652.65 480.055 653.386 478.895 653.993C477.729 654.599 476.517 655.08 475.226 655.414C474.58 655.595 473.91 655.672 473.225 655.833C472.542 656.018 471.839 656.162 471.107 656.263C469.64 656.472 468.244 656.496 466.894 656.359C466.22 656.295 465.556 656.183 464.899 656.044C464.244 655.924 463.619 655.865 462.985 655.717C460.472 655.179 458.046 654.087 455.601 652.663C450.79 650.038 446.012 646.392 440.691 642.702C435.553 639.469 429.828 636.2 423.514 635.1C420.412 634.652 417.126 634.677 413.667 635.365C412.81 635.55 411.916 635.724 411.061 636.031C410.223 636.36 409.373 636.729 408.515 637.149C406.802 637.991 405.06 639.022 403.305 640.266C402.427 640.891 401.6 641.525 400.826 642.173C400.062 642.836 399.422 643.608 398.787 644.328C397.54 645.8 396.477 647.297 395.59 648.808C394.7 650.316 393.988 651.837 393.421 653.36C392.937 654.968 392.62 656.598 392.412 658.206C392.001 661.424 392.085 664.59 392.448 667.683C392.787 670.753 393.722 674.016 394.554 677.025C395.446 679.991 396.336 682.947 397.204 685.835C398.025 688.657 399.03 691.588 399.546 694.282C399.822 695.645 400.022 696.975 400.106 698.286C400.183 699.586 400.149 700.86 400.174 702.233C400.12 704.923 399.543 707.534 398.168 710.194C397.162 713.018 395.65 715.217 393.726 717.077C392.711 717.988 391.806 718.881 390.809 719.705C389.797 720.522 388.693 721.282 387.512 722.001C385.201 723.439 382.381 724.681 379.774 725.982C377.08 727.298 374.322 728.64 371.563 729.987C368.809 731.408 365.793 732.927 363.328 734.755C360.829 736.573 358.465 738.668 356.401 741.152C355.369 742.394 354.401 743.731 353.552 745.183C352.827 746.636 352.208 748.196 351.708 749.877C351.212 751.558 350.835 753.36 350.611 755.287C350.517 756.247 350.386 757.24 350.421 758.257C350.48 759.274 350.573 760.316 350.718 761.388C351.001 763.538 351.425 765.535 351.974 767.372C352.249 768.295 352.557 769.177 352.89 770.022C353.24 770.866 353.719 771.647 354.168 772.407C356.013 775.44 358.221 777.898 360.646 779.899C365.726 783.843 371.989 785.876 377.822 787.5C384.119 788.953 390.005 790.027 395.181 791.824C397.875 792.674 400.314 793.736 402.41 795.238C402.945 795.607 403.413 796.031 403.945 796.435C404.492 796.824 405.021 797.244 405.529 797.701C406.538 798.614 407.466 799.66 408.309 800.892C408.732 801.51 409.104 802.127 409.435 802.757C409.779 803.38 410.181 803.924 410.483 804.531C411.115 805.713 411.586 806.94 411.932 808.215C412.275 809.49 412.493 810.813 412.614 812.183C412.821 813.466 412.951 814.779 412.993 816.155C413.083 818.892 412.883 821.821 412.587 824.886C412.271 827.978 412.13 830.893 411.936 834.063C411.777 837.199 411.71 840.414 411.935 843.65C412.155 846.889 412.89 849.834 413.996 852.877C414.565 854.376 415.254 855.861 416.085 857.32C416.907 858.786 417.876 860.222 419.118 861.412C421.544 863.895 424.638 866.177 428.489 868.107C432.498 869.657 436.258 870.411 439.71 870.526C441.419 870.639 443.124 870.387 444.752 870.006C446.374 869.639 447.922 869.143 449.401 868.542C452.368 867.302 455.005 865.854 457.521 863.825C460.027 861.8 462.329 859.571 464.498 857.33C466.678 855.031 468.709 852.952 470.741 850.622C472.777 848.326 474.77 846.193 476.828 844.403C477.856 843.504 478.899 842.711 479.977 841.993C481.054 841.16 482.164 840.422 483.331 839.816C484.495 839.207 485.709 838.724 486.997 838.39C487.643 838.21 488.314 838.132 488.998 837.971C489.678 837.787 490.386 837.649 491.119 837.54C492.583 837.332 493.976 837.31 495.325 837.447C496.005 837.514 496.668 837.623 497.325 837.76C497.975 837.882 498.606 837.939 499.237 838.088C501.751 838.625 504.177 839.718 506.617 841.143C511.434 843.768 516.212 847.412 521.536 851.106C526.668 854.336 532.39 857.606 538.708 858.709C541.811 859.153 545.094 859.126 548.552 858.441C549.41 858.256 550.309 858.079 551.162 857.773C552 857.449 552.851 857.075 553.709 856.655C555.42 855.816 557.165 854.781 558.919 853.538C559.794 852.914 560.623 852.279 561.398 851.631C562.163 850.967 562.801 850.197 563.438 849.475C564.685 848.004 565.742 846.509 566.629 844.998C567.52 843.49 568.235 841.968 568.798 840.446C569.282 838.838 569.602 837.206 569.814 835.605C570.219 832.386 570.141 829.213 569.776 826.122C569.436 823.049 568.502 819.788 567.665 816.781C566.773 813.815 565.884 810.858 565.018 807.97C564.198 805.148 563.193 802.217 562.676 799.52C562.397 798.161 562.201 796.83 562.115 795.519C562.042 794.223 562.071 792.946 562.049 791.571C562.105 788.88 562.682 786.269 564.057 783.617C565.06 780.791 566.573 778.588 568.492 776.73C569.513 775.813 570.419 774.927 571.414 774.102C572.426 773.282 573.528 772.525 574.707 771.804C577.023 770.364 579.84 769.125 582.448 767.82C585.139 766.507 587.9 765.165 590.66 763.817C593.419 762.399 596.427 760.881 598.893 759.053C601.395 757.228 603.76 755.138 605.825 752.651C606.85 751.412 607.822 750.071 608.666 748.623C609.392 747.173 610.016 745.61 610.512 743.929C611.014 742.245 611.383 740.446 611.61 738.523C611.708 737.561 611.837 736.564 611.798 735.549C611.745 734.535 611.647 733.491 611.507 732.416C611.223 730.268 610.794 728.271 610.245 726.431C609.973 725.515 609.665 724.628 609.334 723.782C608.979 722.94 608.5 722.159 608.052 721.398C606.211 718.364 604.003 715.905 601.578 713.905L601.579 713.906Z" fill="#862D91" stroke="#862D91" stroke-width="2" mask="url(#path-11-inside-2)"/>
<g filter="url(#filter2_i)">
<path d="M392.492 173.471C402.097 186.563 398.791 205.318 385.105 215.358C371.417 225.4 352.535 222.922 342.93 209.831C333.325 196.737 336.632 177.984 350.321 167.942C364.006 157.903 382.887 160.378 392.492 173.471ZM299.689 108.283C297.551 112.94 296.59 117.789 296.161 122.403C295.649 126.923 296.08 131.603 296.556 135.885C297.65 144.569 300.078 152.598 301.479 160.066C303.147 167.712 303.622 174.545 302.052 183.043C300.627 191.557 297.811 197.963 293.585 204.833C289.672 211.604 284.581 218.649 280.544 226.663C278.618 230.622 276.586 234.985 275.518 239.434C274.341 243.949 273.582 248.826 274.015 253.822C274.596 263.885 279.308 275.267 291.285 284.741C303.355 294.116 315.829 296.09 325.97 294.609C331.109 293.789 335.807 292.062 340.021 290.047C344.296 287.77 348.137 285.14 351.661 282.452C355.228 279.516 358.492 276.514 361.58 273.705C364.703 270.63 367.657 267.818 370.62 265.205C376.579 259.757 382.359 255.546 390.501 252.34C398.597 249.039 405.706 248.158 413.552 247.882C417.376 247.882 421.476 247.872 425.753 247.864C430.085 247.983 434.261 247.744 438.794 247.41C447.727 246.61 457.056 244.416 465.76 238.431C474.129 232.417 482.146 222.276 484.917 207.017C487.535 191.735 483.38 179.993 477.461 172.112C471.212 164.166 463.064 159.672 454.808 156.63C450.59 155.146 446.685 153.849 442.513 152.854C438.437 151.743 434.519 150.689 430.866 149.708C423.472 147.434 416.987 144.774 410.395 139.541C403.723 134.391 399.661 128.894 395.852 122.169C393.922 118.911 392.071 115.47 390.151 111.732C388.168 108.261 386.088 104.553 383.694 100.838C381.259 97.3662 378.502 93.8731 375.2 90.6066C371.87 87.5996 367.977 84.7531 363.358 82.6494C354.186 78.6377 341.593 77.3222 326.838 83.1835C312.132 89.1584 303.71 98.8215 299.689 108.283" fill="#80C342"/>
</g>
<path d="M299.689 108.283C297.551 112.94 296.59 117.789 296.161 122.403C295.649 126.923 296.08 131.603 296.556 135.885C297.65 144.569 300.078 152.598 301.479 160.066C303.147 167.712 303.622 174.545 302.052 183.043C300.627 191.557 297.811 197.963 293.585 204.833C289.672 211.604 284.581 218.649 280.544 226.663C278.618 230.622 276.586 234.985 275.518 239.434C274.341 243.949 273.582 248.826 274.015 253.822C274.596 263.885 279.308 275.267 291.285 284.741C303.355 294.116 315.829 296.09 325.97 294.609C331.109 293.789 335.807 292.062 340.021 290.047C344.296 287.77 348.137 285.14 351.661 282.452C355.228 279.516 358.492 276.514 361.58 273.705C364.703 270.63 367.657 267.818 370.62 265.205C376.579 259.757 382.359 255.546 390.501 252.34C398.597 249.039 405.706 248.158 413.552 247.882C417.376 247.882 421.476 247.872 425.753 247.864C430.085 247.983 434.261 247.744 438.794 247.41C447.727 246.61 457.056 244.416 465.76 238.431C474.129 232.417 482.146 222.276 484.917 207.017C487.535 191.735 483.38 179.993 477.461 172.112C471.212 164.166 463.064 159.672 454.808 156.63C450.59 155.146 446.685 153.849 442.513 152.854C438.437 151.743 434.519 150.689 430.866 149.708C423.472 147.434 416.987 144.774 410.395 139.541C403.723 134.391 399.661 128.894 395.852 122.169C393.922 118.911 392.071 115.47 390.151 111.732C388.168 108.261 386.088 104.553 383.694 100.838C381.259 97.3662 378.502 93.8731 375.2 90.6066C371.87 87.5996 367.977 84.7531 363.358 82.6494C354.186 78.6377 341.593 77.3222 326.838 83.1835C312.132 89.1584 303.71 98.8215 299.689 108.283M392.492 173.471C402.097 186.563 398.791 205.318 385.105 215.358C371.417 225.4 352.535 222.922 342.93 209.831C333.325 196.737 336.632 177.984 350.321 167.942C364.006 157.903 382.887 160.378 392.492 173.471Z" stroke="#80C342"/>
<g clip-path="url(#clip1)">
<path d="M394.459 188.253C393.746 189.434 392.649 190.327 391.606 191.105C390.456 191.885 389.36 192.559 388.462 193.321C387.987 193.7 387.581 194.102 387.277 194.564C387.198 194.679 387.137 194.8 387.063 194.921C386.983 195.042 386.911 195.167 386.844 195.297C386.711 195.558 386.607 195.838 386.534 196.148C386.498 196.304 386.472 196.457 386.454 196.607C386.432 196.757 386.396 196.897 386.382 197.04C386.347 197.326 386.348 197.607 386.378 197.887C386.407 198.167 386.467 198.447 386.549 198.729C386.607 199 386.683 199.271 386.782 199.548C386.977 200.099 387.246 200.665 387.543 201.251C387.847 201.841 388.101 202.408 388.388 203.025C388.663 203.634 388.927 204.269 389.133 204.93C389.341 205.591 389.422 206.233 389.438 206.925C389.44 207.267 389.418 207.616 389.365 207.97C389.314 208.327 389.23 208.687 389.074 209.021C388.781 209.704 388.338 210.399 387.717 211.083C387.033 211.705 386.337 212.149 385.655 212.441C385.32 212.597 384.96 212.68 384.603 212.731C384.249 212.784 383.901 212.808 383.558 212.804C382.866 212.789 382.224 212.707 381.563 212.501C380.902 212.293 380.268 212.031 379.658 211.755C379.043 211.468 378.474 211.214 377.884 210.909C377.298 210.612 376.733 210.344 376.181 210.149C375.905 210.05 375.634 209.974 375.362 209.916C375.08 209.834 374.8 209.774 374.521 209.744C374.24 209.715 373.959 209.714 373.674 209.748C373.531 209.763 373.39 209.8 373.241 209.821C373.089 209.838 372.937 209.864 372.782 209.901C372.472 209.974 372.19 210.079 371.93 210.211C371.8 210.277 371.676 210.351 371.555 210.43C371.433 210.505 371.312 210.565 371.197 210.644C370.735 210.948 370.333 211.354 369.954 211.828C369.193 212.726 368.519 213.824 367.739 214.973C366.96 216.016 366.067 217.113 364.886 217.825C364.299 218.157 363.638 218.408 362.891 218.542C362.705 218.572 362.512 218.607 362.317 218.613C362.123 218.613 361.924 218.606 361.719 218.59C361.311 218.556 360.881 218.487 360.432 218.377C360.208 218.322 359.993 218.26 359.787 218.192C359.582 218.12 359.394 218.016 359.211 217.923C358.846 217.728 358.517 217.513 358.221 217.282C357.926 217.052 357.664 216.805 357.432 216.547C357.21 216.265 357.02 215.966 356.853 215.663C356.52 215.055 356.291 214.419 356.123 213.776C355.952 213.14 355.886 212.418 355.819 211.755C355.767 211.096 355.716 210.439 355.665 209.797C355.61 209.172 355.584 208.511 355.478 207.935C355.427 207.643 355.364 207.363 355.278 207.096C355.193 206.832 355.087 206.581 354.985 206.306C354.765 205.776 354.446 205.302 353.964 204.88C353.542 204.398 353.068 204.079 352.538 203.86C352.263 203.758 352.012 203.651 351.748 203.565C351.482 203.482 351.202 203.417 350.909 203.366C350.334 203.261 349.672 203.234 349.048 203.179C348.405 203.128 347.748 203.077 347.09 203.025C346.427 202.958 345.704 202.891 345.068 202.721C344.425 202.554 343.789 202.323 343.182 201.99C342.878 201.824 342.58 201.634 342.297 201.412C342.039 201.18 341.793 200.918 341.562 200.623C341.332 200.327 341.116 199.999 340.921 199.633C340.828 199.45 340.724 199.263 340.652 199.058C340.585 198.851 340.523 198.637 340.468 198.412C340.358 197.963 340.287 197.533 340.255 197.125C340.238 196.92 340.231 196.721 340.232 196.527C340.237 196.332 340.272 196.139 340.303 195.953C340.437 195.206 340.689 194.545 341.019 193.958C341.731 192.777 342.828 191.884 343.872 191.105C345.021 190.325 346.118 189.652 347.016 188.89C347.49 188.511 347.896 188.109 348.2 187.647C348.278 187.532 348.339 187.411 348.414 187.289C348.494 187.169 348.567 187.044 348.633 186.914C348.765 186.653 348.869 186.373 348.943 186.062C348.979 185.906 349.006 185.755 349.023 185.604C349.044 185.453 349.082 185.314 349.095 185.169C349.13 184.885 349.129 184.604 349.099 184.324C349.069 184.044 349.01 183.764 348.928 183.482C348.869 183.211 348.793 182.94 348.695 182.663C348.5 182.112 348.232 181.546 347.934 180.96C347.63 180.37 347.375 179.801 347.09 179.186C346.814 178.576 346.551 177.942 346.344 177.281C346.136 176.62 346.054 175.978 346.04 175.286C346.037 174.944 346.06 174.595 346.113 174.24C346.164 173.885 346.246 173.523 346.403 173.19C346.696 172.507 347.139 171.812 347.761 171.127C348.444 170.506 349.139 170.062 349.823 169.77C350.156 169.614 350.518 169.531 350.874 169.479C351.228 169.426 351.577 169.403 351.92 169.407C352.611 169.422 353.253 169.504 353.915 169.71C354.575 169.917 355.21 170.18 355.819 170.456C356.435 170.743 357.004 170.998 357.592 171.302C358.179 171.599 358.745 171.867 359.296 172.062C359.572 172.161 359.843 172.237 360.115 172.295C360.396 172.377 360.676 172.437 360.957 172.466C361.238 172.496 361.519 172.497 361.803 172.463C361.946 172.448 362.087 172.411 362.237 172.39C362.387 172.373 362.54 172.346 362.695 172.31C363.005 172.237 363.286 172.132 363.546 172C363.677 171.934 363.802 171.86 363.923 171.781C364.044 171.706 364.166 171.646 364.281 171.567C364.743 171.264 365.144 170.857 365.523 170.383C366.284 169.485 366.959 168.388 367.739 167.238C368.517 166.195 369.41 165.098 370.591 164.385C371.178 164.055 371.839 163.804 372.585 163.67C372.772 163.639 372.966 163.604 373.16 163.598C373.354 163.597 373.553 163.605 373.758 163.622C374.166 163.655 374.597 163.724 375.045 163.834C375.269 163.89 375.485 163.951 375.69 164.02C375.896 164.092 376.083 164.195 376.267 164.289C376.632 164.484 376.96 164.698 377.255 164.929C377.551 165.159 377.813 165.406 378.044 165.664C378.266 165.946 378.457 166.246 378.624 166.547C378.956 167.155 379.187 167.792 379.354 168.435C379.525 169.072 379.591 169.793 379.658 170.456C379.709 171.115 379.761 171.773 379.812 172.414C379.867 173.039 379.894 173.7 380 174.277C380.05 174.569 380.114 174.848 380.199 175.116C380.285 175.379 380.39 175.63 380.492 175.905C380.713 176.436 381.032 176.91 381.514 177.329C381.935 177.813 382.409 178.132 382.938 178.352C383.214 178.454 383.465 178.559 383.729 178.646C383.995 178.73 384.275 178.794 384.568 178.845C385.144 178.95 385.805 178.977 386.43 179.032C387.071 179.083 387.729 179.134 388.388 179.186C389.051 179.253 389.772 179.319 390.409 179.49C391.052 179.657 391.689 179.888 392.297 180.221C392.598 180.387 392.898 180.578 393.179 180.8C393.438 181.031 393.684 181.293 393.915 181.588C394.146 181.884 394.36 182.212 394.555 182.577C394.65 182.76 394.753 182.949 394.824 183.153C394.893 183.359 394.954 183.574 395.01 183.799C395.12 184.248 395.189 184.678 395.222 185.087C395.239 185.29 395.246 185.491 395.245 185.685C395.24 185.88 395.205 186.072 395.174 186.258C395.041 187.005 394.789 187.666 394.459 188.253L394.459 188.253ZM367.738 157.544C349.204 157.544 334.178 172.57 334.178 191.105C334.178 209.64 349.204 224.666 367.738 224.666C386.274 224.666 401.3 209.64 401.3 191.105C401.3 172.57 386.274 157.544 367.738 157.544Z" fill="#862D91"/>
<path d="M374.51 188.301C372.413 188.301 370.713 186.601 370.713 184.504C370.713 182.406 372.413 180.706 374.51 180.706C376.607 180.706 378.308 182.406 378.308 184.504C378.308 186.601 376.607 188.301 374.51 188.301ZM388.388 183.82C388.067 183.266 387.635 182.816 387.187 182.436C386.756 182.055 386.235 181.756 385.753 181.49C384.765 180.965 383.744 180.62 382.859 180.213C381.935 179.821 381.187 179.369 380.422 178.591C379.645 177.827 379.193 177.078 378.8 176.155C378.394 175.27 378.049 174.248 377.523 173.26C377.258 172.779 376.959 172.258 376.577 171.826C376.197 171.379 375.747 170.947 375.194 170.625C374.101 169.947 372.556 169.585 370.655 170.086C368.756 170.603 367.598 171.701 366.977 172.82C366.67 173.392 366.491 173.986 366.379 174.553C366.29 175.146 366.27 175.72 366.281 176.268C366.314 176.838 366.377 177.383 366.434 177.896C366.515 178.431 366.583 178.931 366.628 179.417C366.74 180.409 366.737 181.293 366.449 182.338C366.174 183.386 365.723 184.159 365.152 184.961C364.86 185.342 364.548 185.751 364.222 186.178C363.879 186.6 363.585 187.034 363.273 187.51C362.674 188.458 362.19 189.548 362.148 190.853C362.135 192.126 362.579 193.666 363.956 195.057C365.347 196.435 366.888 196.879 368.161 196.866C369.465 196.824 370.556 196.341 371.503 195.74C371.98 195.429 372.413 195.134 372.836 194.791C373.263 194.466 373.672 194.153 374.053 193.861C374.855 193.29 375.627 192.839 376.676 192.565C377.722 192.276 378.605 192.273 379.596 192.385C380.083 192.431 380.582 192.498 381.118 192.58C381.631 192.636 382.176 192.7 382.746 192.733C383.293 192.744 383.868 192.725 384.46 192.635C385.028 192.523 385.622 192.343 386.193 192.037C387.312 191.416 388.411 190.257 388.928 188.359C389.429 186.457 389.066 184.912 388.388 183.82" fill="#80C342"/>
</g>
<path d="M95.1919 3425.79C35.1423 3420.82 -17.7543 3467.21 -22.9377 3529.41C-28.1223 3591.63 16.3702 3646.1 76.4198 3651.08C136.479 3656.06 189.365 3609.67 194.549 3547.45C199.733 3485.24 155.251 3430.77 95.1919 3425.79ZM481.522 3591.67C470.947 3607.32 457.475 3619.65 443.716 3629.85C430.414 3640.14 414.776 3647.78 400.31 3654.51C370.72 3667.76 340.615 3675.56 314.277 3685.51C286.856 3694.97 264.324 3706.6 240.497 3727.84C216.338 3748.67 201.546 3769.81 188.022 3796.26C174.207 3821.53 161.807 3851.03 144.298 3879.09C135.518 3892.73 125.664 3907.48 113.666 3919.38C101.673 3931.74 87.7235 3943.49 71.082 3951.73C38.1289 3969.23 -7.01431 3976.32 -60.2295 3956.95C-113.312 3937.09 -143.771 3901.76 -158.775 3867.11C-166.157 3849.42 -169.816 3831.36 -171.624 3814.28C-172.722 3796.49 -171.861 3779.4 -170.203 3763.18C-167.841 3746.35 -164.686 3730.35 -161.794 3715.27C-158.132 3699.57 -154.973 3684.9 -152.463 3670.59C-146.803 3641.43 -144.705 3615.21 -150.371 3583.52C-155.651 3551.79 -166.666 3527.8 -181.026 3502.66C-188.449 3490.67 -196.375 3477.79 -204.654 3464.36C-213.439 3451 -220.792 3437.44 -228.535 3422.58C-243.345 3393.03 -254.52 3359.55 -252.488 3320.76C-249.717 3282.95 -233.209 3238.33 -190.33 3200.33C-147.08 3162.77 -101.877 3153.25 -65.4617 3156.68C-28.2007 3161.02 1.82863 3177.94 27.4763 3197.99C40.3612 3208.37 52.0422 3218.13 63.2904 3229.3C74.7157 3239.96 85.6567 3250.22 95.8499 3259.79C117.397 3278.62 138.398 3293.85 167.746 3304.47C196.986 3315.51 222.257 3317.69 250.919 3316.72C264.971 3316.52 279.447 3315.71 294.994 3314.56C309.823 3314.11 325.588 3313.51 341.984 3313.88C357.692 3314.86 374.091 3316.79 390.831 3320.87C406.806 3325.54 423.366 3332.29 438.986 3342.73C469.481 3363.8 498.088 3400.77 508.197 3458.31C517.851 3515.91 503.639 3560.88 481.521 3591.67" fill="#80C342"/>
<path d="M481.522 3591.67C470.947 3607.32 457.475 3619.65 443.716 3629.85C430.414 3640.14 414.776 3647.78 400.31 3654.51C370.72 3667.76 340.615 3675.56 314.277 3685.51C286.856 3694.97 264.324 3706.6 240.497 3727.84C216.338 3748.67 201.546 3769.81 188.022 3796.26C174.207 3821.53 161.807 3851.03 144.298 3879.09C135.518 3892.73 125.664 3907.48 113.666 3919.38C101.673 3931.74 87.7235 3943.49 71.082 3951.73C38.1289 3969.23 -7.01431 3976.32 -60.2295 3956.95C-113.312 3937.09 -143.771 3901.76 -158.775 3867.11C-166.157 3849.42 -169.816 3831.36 -171.624 3814.28C-172.722 3796.49 -171.861 3779.4 -170.203 3763.18C-167.841 3746.35 -164.686 3730.35 -161.794 3715.27C-158.132 3699.57 -154.973 3684.9 -152.463 3670.59C-146.803 3641.43 -144.705 3615.21 -150.371 3583.52C-155.651 3551.79 -166.665 3527.8 -181.026 3502.66C-188.449 3490.67 -196.375 3477.79 -204.654 3464.36C-213.439 3451 -220.792 3437.44 -228.535 3422.58C-243.345 3393.03 -254.52 3359.55 -252.489 3320.76C-249.717 3282.95 -233.209 3238.33 -190.33 3200.33C-147.08 3162.77 -101.877 3153.25 -65.4617 3156.68C-28.2007 3161.02 1.82864 3177.94 27.4763 3197.99C40.3612 3208.37 52.0423 3218.13 63.2904 3229.3C74.7157 3239.96 85.6567 3250.22 95.8499 3259.79C117.397 3278.62 138.398 3293.85 167.746 3304.47C196.986 3315.51 222.257 3317.69 250.919 3316.72C264.971 3316.52 279.447 3315.71 294.994 3314.56C309.823 3314.11 325.588 3313.51 341.984 3313.88C357.692 3314.86 374.091 3316.79 390.831 3320.87C406.806 3325.54 423.366 3332.29 438.986 3342.73C469.481 3363.8 498.088 3400.77 508.197 3458.31C517.851 3515.91 503.639 3560.88 481.521 3591.67M95.1919 3425.79C35.1423 3420.82 -17.7543 3467.21 -22.9377 3529.41C-28.1223 3591.63 16.3702 3646.1 76.4198 3651.08C136.479 3656.06 189.365 3609.67 194.549 3547.45C199.733 3485.24 155.251 3430.77 95.1919 3425.79Z" stroke="#80C342"/>
<mask id="path-18-inside-3" fill="white">
<path d="M3.83755 3070.25C-8.64533 3084.49 -15.7227 3102.51 -21.5295 3119.36C-26.8997 3137.59 -31.1193 3154.69 -37.3164 3169.58C-40.2886 3177.34 -43.8437 3184.31 -48.6229 3190.21C-49.7997 3191.72 -51.13 3193.02 -52.4014 3194.5C-53.6524 3196.04 -54.983 3197.51 -56.4089 3198.92C-59.2713 3201.74 -62.5154 3204.28 -66.2712 3206.53C-68.1576 3207.66 -70.0552 3208.64 -71.9581 3209.5C-73.8315 3210.41 -75.5133 3211.47 -77.3346 3212.26C-80.944 3213.91 -84.6271 3215.08 -88.4254 3215.86C-92.2344 3216.66 -96.1586 3217.06 -100.203 3217.18C-104.008 3217.56 -107.886 3217.71 -111.937 3217.59C-119.991 3217.36 -128.559 3216.23 -137.512 3214.83C-146.531 3213.36 -155.054 3212.43 -164.352 3211.29C-173.516 3210.26 -182.959 3209.5 -192.516 3209.59C-202.063 3209.66 -210.838 3211.3 -219.977 3214C-224.479 3215.41 -228.958 3217.17 -233.378 3219.34C-237.854 3221.5 -242.23 3224.1 -245.944 3227.54C-253.678 3234.22 -260.926 3242.91 -267.27 3253.86C-272.544 3265.37 -275.423 3276.29 -276.379 3286.39C-277.01 3291.41 -276.574 3296.44 -275.733 3301.29C-274.938 3306.13 -273.773 3310.76 -272.271 3315.21C-269.156 3324.14 -265.367 3332.16 -259.859 3339.89C-254.337 3347.63 -248.216 3354.77 -242.014 3361.55C-235.651 3368.35 -229.909 3374.68 -223.422 3381.08C-217.042 3387.45 -211.131 3393.69 -206.24 3400.05C-203.78 3403.23 -201.637 3406.44 -199.719 3409.73C-197.452 3413.05 -195.488 3416.45 -193.909 3419.96C-192.337 3423.49 -191.139 3427.14 -190.386 3430.99C-189.971 3432.92 -189.864 3434.9 -189.511 3436.94C-189.089 3438.98 -188.793 3441.07 -188.624 3443.24C-188.272 3447.58 -188.45 3451.69 -189.091 3455.63C-189.399 3457.59 -189.844 3459.53 -190.37 3461.43C-190.838 3463.33 -191.123 3465.16 -191.67 3466.99C-193.697 3474.28 -197.335 3481.21 -201.95 3488.14C-210.514 3501.8 -222.071 3515.19 -233.855 3530.16C-244.26 3544.68 -254.878 3560.92 -259.229 3579.27C-261.097 3588.3 -261.605 3597.95 -260.199 3608.24C-259.809 3610.79 -259.455 3613.44 -258.706 3616.01C-257.887 3618.53 -256.954 3621.09 -255.873 3623.69C-253.704 3628.87 -250.985 3634.17 -247.642 3639.54C-245.964 3642.23 -244.247 3644.77 -242.482 3647.16C-240.67 3649.52 -238.518 3651.54 -236.514 3653.53C-232.414 3657.45 -228.205 3660.84 -223.924 3663.72C-219.653 3666.6 -215.312 3668.96 -210.94 3670.89C-206.303 3672.6 -201.57 3673.82 -196.884 3674.72C-187.506 3676.5 -178.193 3676.81 -169.044 3676.3C-159.966 3675.85 -150.216 3673.68 -141.231 3671.77C-132.361 3669.67 -123.519 3667.58 -114.885 3665.55C-106.451 3663.64 -97.6631 3661.21 -89.6584 3660.17C-85.6054 3659.6 -81.6648 3659.25 -77.7988 3659.23C-73.9686 3659.24 -70.2324 3659.57 -66.1939 3659.73C-58.3019 3660.37 -50.7351 3662.53 -43.167 3667.04C-35.0517 3670.5 -28.8625 3675.33 -23.7409 3681.31C-21.2441 3684.45 -18.781 3687.27 -16.539 3690.34C-14.319 3693.46 -12.2824 3696.84 -10.3789 3700.43C-6.56526 3707.48 -3.42004 3715.98 -0.0595109 3723.87C3.32739 3732.01 6.77952 3740.35 10.2456 3748.7C13.9309 3757.04 17.8569 3766.16 22.7866 3773.73C27.6849 3781.39 33.4163 3788.71 40.3467 3795.21C43.8112 3798.46 47.5673 3801.54 51.6814 3804.29C55.8196 3806.68 60.2931 3808.77 65.1405 3810.54C69.9913 3812.3 75.2152 3813.72 80.8375 3814.72C83.6384 3815.17 86.5333 3815.73 89.5256 3815.81C92.5226 3815.82 95.601 3815.73 98.7736 3815.49C105.141 3815.04 111.081 3814.15 116.575 3812.87C119.332 3812.22 121.978 3811.47 124.52 3810.64C127.06 3809.77 129.438 3808.5 131.752 3807.32C140.987 3802.43 148.599 3796.38 154.905 3789.62C167.392 3775.4 174.473 3757.36 180.28 3740.52C185.664 3722.28 189.862 3705.18 196.06 3690.3C199.034 3682.54 202.588 3675.56 207.371 3669.68C208.549 3668.17 209.878 3666.87 211.159 3665.38C212.397 3663.84 213.725 3662.36 215.159 3660.95C218.02 3658.15 221.257 3655.61 225.023 3653.35C226.915 3652.22 228.793 3651.24 230.703 3650.38C232.593 3649.48 234.261 3648.39 236.098 3647.61C239.681 3645.97 243.37 3644.8 247.176 3644.01C250.983 3643.23 254.906 3642.82 258.952 3642.71C262.755 3642.33 266.635 3642.18 270.686 3642.3C278.739 3642.52 287.306 3643.63 296.256 3645.05C305.282 3646.52 313.82 3647.45 323.095 3648.58C332.278 3649.61 341.71 3650.38 351.253 3650.29C360.807 3650.22 369.586 3648.58 378.721 3645.87C383.223 3644.47 387.709 3642.71 392.142 3640.53C396.591 3638.37 400.983 3635.78 404.697 3632.34C412.421 3625.66 419.673 3616.98 426.026 3606.01C431.289 3594.51 434.171 3583.6 435.122 3573.48C435.758 3568.48 435.318 3563.43 434.49 3558.58C433.699 3553.75 432.517 3549.12 431.015 3544.67C427.9 3535.73 424.115 3527.73 418.601 3519.98C413.098 3512.26 406.959 3505.1 400.762 3498.33C394.396 3491.52 388.651 3485.19 382.17 3478.81C375.786 3472.42 369.876 3466.19 364.983 3459.82C362.523 3456.65 360.381 3453.44 358.464 3450.15C356.208 3446.84 354.237 3443.44 352.665 3439.91C351.081 3436.38 349.88 3432.73 349.126 3428.89C348.712 3426.96 348.604 3424.98 348.251 3422.94C347.832 3420.91 347.551 3418.8 347.362 3416.63C347.012 3412.29 347.194 3408.2 347.835 3404.26C348.152 3402.28 348.591 3400.35 349.11 3398.44C349.583 3396.56 349.862 3394.71 350.411 3392.88C352.437 3385.6 356.075 3378.67 360.695 3371.75C369.26 3358.07 380.81 3344.68 392.605 3329.7C403.002 3315.2 413.623 3298.97 417.984 3280.61C419.837 3271.58 420.341 3261.93 418.944 3251.65C418.553 3249.1 418.193 3246.43 417.446 3243.87C416.641 3241.35 415.694 3238.78 414.613 3236.19C412.451 3231.02 409.723 3225.71 406.382 3220.33C404.706 3217.65 402.987 3215.1 401.222 3212.71C399.408 3210.35 397.258 3208.34 395.252 3206.34C391.152 3202.42 386.949 3199.04 382.667 3196.17C378.397 3193.29 374.053 3190.92 369.684 3188.99C365.047 3187.29 360.31 3186.06 355.644 3185.15C346.263 3183.39 336.93 3183.05 327.784 3183.58C318.699 3184.03 308.956 3186.2 299.975 3188.12C291.105 3190.21 282.262 3192.3 273.627 3194.33C265.191 3196.24 256.404 3198.67 248.393 3199.71C244.349 3200.29 240.405 3200.63 236.541 3200.65C232.722 3200.63 228.976 3200.32 224.934 3200.14C217.04 3199.5 209.473 3197.34 201.927 3192.83C193.807 3189.38 187.603 3184.55 182.486 3178.58C179.975 3175.42 177.534 3172.61 175.287 3169.54C173.058 3166.42 171.031 3163.05 169.123 3159.45C165.304 3152.4 162.165 3143.91 158.794 3136.01C155.416 3127.88 151.962 3119.53 148.494 3111.18C144.818 3102.83 140.894 3093.72 135.963 3086.15C131.047 3078.48 125.329 3071.17 118.391 3064.66C114.933 3061.43 111.166 3058.34 107.063 3055.6C102.932 3053.21 98.4531 3051.1 93.603 3049.35C88.7466 3047.57 83.5294 3046.17 77.919 3045.16C75.1136 3044.7 72.207 3044.15 69.2187 3044.08C66.2301 3044.06 63.1488 3044.16 59.9642 3044.38C53.6057 3044.83 47.6635 3045.74 42.1617 3047.02C39.4237 3047.66 36.7631 3048.41 34.2189 3049.23C31.6842 3050.12 29.3055 3051.39 26.9913 3052.57C17.752 3057.44 10.1396 3063.49 3.83388 3070.26L3.83755 3070.25Z"/>
</mask>
<path d="M3.83755 3070.25C-8.64533 3084.49 -15.7227 3102.51 -21.5295 3119.36C-26.8997 3137.59 -31.1193 3154.69 -37.3164 3169.58C-40.2886 3177.34 -43.8437 3184.31 -48.6229 3190.21C-49.7997 3191.72 -51.13 3193.02 -52.4014 3194.5C-53.6524 3196.04 -54.983 3197.51 -56.4089 3198.92C-59.2713 3201.74 -62.5154 3204.28 -66.2712 3206.53C-68.1576 3207.66 -70.0552 3208.64 -71.9581 3209.5C-73.8315 3210.41 -75.5133 3211.47 -77.3346 3212.26C-80.944 3213.91 -84.6271 3215.08 -88.4254 3215.86C-92.2344 3216.66 -96.1586 3217.06 -100.203 3217.18C-104.008 3217.56 -107.886 3217.71 -111.937 3217.59C-119.991 3217.36 -128.559 3216.23 -137.512 3214.83C-146.531 3213.36 -155.054 3212.43 -164.352 3211.29C-173.516 3210.26 -182.959 3209.5 -192.516 3209.59C-202.063 3209.66 -210.838 3211.3 -219.977 3214C-224.479 3215.41 -228.958 3217.17 -233.378 3219.34C-237.854 3221.5 -242.23 3224.1 -245.944 3227.54C-253.678 3234.22 -260.926 3242.91 -267.27 3253.86C-272.544 3265.37 -275.423 3276.29 -276.379 3286.39C-277.01 3291.41 -276.574 3296.44 -275.733 3301.29C-274.938 3306.13 -273.773 3310.76 -272.271 3315.21C-269.156 3324.14 -265.367 3332.16 -259.859 3339.89C-254.337 3347.63 -248.216 3354.77 -242.014 3361.55C-235.651 3368.35 -229.909 3374.68 -223.422 3381.08C-217.042 3387.45 -211.131 3393.69 -206.24 3400.05C-203.78 3403.23 -201.637 3406.44 -199.719 3409.73C-197.452 3413.05 -195.488 3416.45 -193.909 3419.96C-192.337 3423.49 -191.139 3427.14 -190.386 3430.99C-189.971 3432.92 -189.864 3434.9 -189.511 3436.94C-189.089 3438.98 -188.793 3441.07 -188.624 3443.24C-188.272 3447.58 -188.45 3451.69 -189.091 3455.63C-189.399 3457.59 -189.844 3459.53 -190.37 3461.43C-190.838 3463.33 -191.123 3465.16 -191.67 3466.99C-193.697 3474.28 -197.335 3481.21 -201.95 3488.14C-210.514 3501.8 -222.071 3515.19 -233.855 3530.16C-244.26 3544.68 -254.878 3560.92 -259.229 3579.27C-261.097 3588.3 -261.605 3597.95 -260.199 3608.24C-259.809 3610.79 -259.455 3613.44 -258.706 3616.01C-257.887 3618.53 -256.954 3621.09 -255.873 3623.69C-253.704 3628.87 -250.985 3634.17 -247.642 3639.54C-245.964 3642.23 -244.247 3644.77 -242.482 3647.16C-240.67 3649.52 -238.518 3651.54 -236.514 3653.53C-232.414 3657.45 -228.205 3660.84 -223.924 3663.72C-219.653 3666.6 -215.312 3668.96 -210.94 3670.89C-206.303 3672.6 -201.57 3673.82 -196.884 3674.72C-187.506 3676.5 -178.193 3676.81 -169.044 3676.3C-159.966 3675.85 -150.216 3673.68 -141.231 3671.77C-132.361 3669.67 -123.519 3667.58 -114.885 3665.55C-106.451 3663.64 -97.6631 3661.21 -89.6584 3660.17C-85.6054 3659.6 -81.6648 3659.25 -77.7988 3659.23C-73.9686 3659.24 -70.2324 3659.57 -66.1939 3659.73C-58.3019 3660.37 -50.7351 3662.53 -43.167 3667.04C-35.0517 3670.5 -28.8625 3675.33 -23.7409 3681.31C-21.2441 3684.45 -18.781 3687.27 -16.539 3690.34C-14.319 3693.46 -12.2824 3696.84 -10.3789 3700.43C-6.56526 3707.48 -3.42004 3715.98 -0.0595109 3723.87C3.32739 3732.01 6.77952 3740.35 10.2456 3748.7C13.9309 3757.04 17.8569 3766.16 22.7866 3773.73C27.6849 3781.39 33.4163 3788.71 40.3467 3795.21C43.8112 3798.46 47.5673 3801.54 51.6814 3804.29C55.8196 3806.68 60.2931 3808.77 65.1405 3810.54C69.9913 3812.3 75.2152 3813.72 80.8375 3814.72C83.6384 3815.17 86.5333 3815.73 89.5256 3815.81C92.5226 3815.82 95.601 3815.73 98.7736 3815.49C105.141 3815.04 111.081 3814.15 116.575 3812.87C119.332 3812.22 121.978 3811.47 124.52 3810.64C127.06 3809.77 129.438 3808.5 131.752 3807.32C140.987 3802.43 148.599 3796.38 154.905 3789.62C167.392 3775.4 174.473 3757.36 180.28 3740.52C185.664 3722.28 189.862 3705.18 196.06 3690.3C199.034 3682.54 202.588 3675.56 207.371 3669.68C208.549 3668.17 209.878 3666.87 211.159 3665.38C212.397 3663.84 213.725 3662.36 215.159 3660.95C218.02 3658.15 221.257 3655.61 225.023 3653.35C226.915 3652.22 228.793 3651.24 230.703 3650.38C232.593 3649.48 234.261 3648.39 236.098 3647.61C239.681 3645.97 243.37 3644.8 247.176 3644.01C250.983 3643.23 254.906 3642.82 258.952 3642.71C262.755 3642.33 266.635 3642.18 270.686 3642.3C278.739 3642.52 287.306 3643.63 296.256 3645.05C305.282 3646.52 313.82 3647.45 323.095 3648.58C332.278 3649.61 341.71 3650.38 351.253 3650.29C360.807 3650.22 369.586 3648.58 378.721 3645.87C383.223 3644.47 387.709 3642.71 392.142 3640.53C396.591 3638.37 400.983 3635.78 404.697 3632.34C412.421 3625.66 419.673 3616.98 426.026 3606.01C431.289 3594.51 434.171 3583.6 435.122 3573.48C435.758 3568.48 435.318 3563.43 434.49 3558.58C433.699 3553.75 432.517 3549.12 431.015 3544.67C427.9 3535.73 424.115 3527.73 418.601 3519.98C413.098 3512.26 406.959 3505.1 400.762 3498.33C394.396 3491.52 388.651 3485.19 382.17 3478.81C375.786 3472.42 369.876 3466.19 364.983 3459.82C362.523 3456.65 360.381 3453.44 358.464 3450.15C356.208 3446.84 354.237 3443.44 352.665 3439.91C351.081 3436.38 349.88 3432.73 349.126 3428.89C348.712 3426.96 348.604 3424.98 348.251 3422.94C347.832 3420.91 347.551 3418.8 347.362 3416.63C347.012 3412.29 347.194 3408.2 347.835 3404.26C348.152 3402.28 348.591 3400.35 349.11 3398.44C349.583 3396.56 349.862 3394.71 350.411 3392.88C352.437 3385.6 356.075 3378.67 360.695 3371.75C369.26 3358.07 380.81 3344.68 392.605 3329.7C403.002 3315.2 413.623 3298.97 417.984 3280.61C419.837 3271.58 420.341 3261.93 418.944 3251.65C418.553 3249.1 418.193 3246.43 417.446 3243.87C416.641 3241.35 415.694 3238.78 414.613 3236.19C412.451 3231.02 409.723 3225.71 406.382 3220.33C404.706 3217.65 402.987 3215.1 401.222 3212.71C399.408 3210.35 397.258 3208.34 395.252 3206.34C391.152 3202.42 386.949 3199.04 382.667 3196.17C378.397 3193.29 374.053 3190.92 369.684 3188.99C365.047 3187.29 360.31 3186.06 355.644 3185.15C346.263 3183.39 336.93 3183.05 327.784 3183.58C318.699 3184.03 308.956 3186.2 299.975 3188.12C291.105 3190.21 282.262 3192.3 273.627 3194.33C265.191 3196.24 256.404 3198.67 248.393 3199.71C244.349 3200.29 240.405 3200.63 236.541 3200.65C232.722 3200.63 228.976 3200.32 224.934 3200.14C217.04 3199.5 209.473 3197.34 201.927 3192.83C193.807 3189.38 187.603 3184.55 182.486 3178.58C179.975 3175.42 177.534 3172.61 175.287 3169.54C173.058 3166.42 171.031 3163.05 169.123 3159.45C165.304 3152.4 162.165 3143.91 158.794 3136.01C155.416 3127.88 151.962 3119.53 148.494 3111.18C144.818 3102.83 140.894 3093.72 135.963 3086.15C131.047 3078.48 125.329 3071.17 118.391 3064.66C114.933 3061.43 111.166 3058.34 107.063 3055.6C102.932 3053.21 98.4531 3051.1 93.603 3049.35C88.7466 3047.57 83.5294 3046.17 77.919 3045.16C75.1136 3044.7 72.207 3044.15 69.2187 3044.08C66.2301 3044.06 63.1488 3044.16 59.9642 3044.38C53.6057 3044.83 47.6635 3045.74 42.1617 3047.02C39.4237 3047.66 36.7631 3048.41 34.2189 3049.23C31.6842 3050.12 29.3055 3051.39 26.9913 3052.57C17.752 3057.44 10.1396 3063.49 3.83388 3070.26L3.83755 3070.25Z" fill="#862D91" stroke="#862D91" stroke-width="2" mask="url(#path-18-inside-3)"/>
<rect width="414" height="3106" transform="translate(0 3244)" fill="#E5E5E5"/>
</g>
<defs>
<filter id="filter0_i" x="-248.803" y="362.495" width="324.778" height="336.863" filterUnits="userSpaceOnUse" color-interpolation-filters="sRGB">
<feFlood flood-opacity="0" result="BackgroundImageFix"/>
<feBlend mode="normal" in="SourceGraphic" in2="BackgroundImageFix" result="shape"/>
<feColorMatrix in="SourceAlpha" type="matrix" values="0 0 0 0 0 0 0 0 0 0 0 0 0 0 0 0 0 0 127 0" result="hardAlpha"/>
<feOffset dx="10" dy="10"/>
<feGaussianBlur stdDeviation="2"/>
<feComposite in2="hardAlpha" operator="arithmetic" k2="-1" k3="1"/>
<feColorMatrix type="matrix" values="0 0 0 0 0 0 0 0 0 0 0 0 0 0 0 0 0 0 0.19 0"/>
<feBlend mode="normal" in2="shape" result="effect1_innerShadow"/>
</filter>
<filter id="filter1_i" x="104.674" y="-78.7734" width="160.597" height="154.559" filterUnits="userSpaceOnUse" color-interpolation-filters="sRGB">
<feFlood flood-opacity="0" result="BackgroundImageFix"/>
<feBlend mode="normal" in="SourceGraphic" in2="BackgroundImageFix" result="shape"/>
<feColorMatrix in="SourceAlpha" type="matrix" values="0 0 0 0 0 0 0 0 0 0 0 0 0 0 0 0 0 0 127 0" result="hardAlpha"/>
<feOffset dx="2.43203" dy="0.972814"/>
<feGaussianBlur stdDeviation="0.486407"/>
<feComposite in2="hardAlpha" operator="arithmetic" k2="-1" k3="1"/>
<feColorMatrix type="matrix" values="0 0 0 0 0 0 0 0 0 0 0 0 0 0 0 0 0 0 0.19 0"/>
<feBlend mode="normal" in2="shape" result="effect1_innerShadow"/>
</filter>
<filter id="filter2_i" x="204.301" y="40.3013" width="305.398" height="303.365" filterUnits="userSpaceOnUse" color-interpolation-filters="sRGB">
<feFlood flood-opacity="0" result="BackgroundImageFix"/>
<feBlend mode="normal" in="SourceGraphic" in2="BackgroundImageFix" result="shape"/>
<feColorMatrix in="SourceAlpha" type="matrix" values="0 0 0 0 0 0 0 0 0 0 0 0 0 0 0 0 0 0 127 0" result="hardAlpha"/>
<feOffset dx="10" dy="10"/>
<feGaussianBlur stdDeviation="2"/>
<feComposite in2="hardAlpha" operator="arithmetic" k2="-1" k3="1"/>
<feColorMatrix type="matrix" values="0 0 0 0 0 0 0 0 0 0 0 0 0 0 0 0 0 0 0.25 0"/>
<feBlend mode="normal" in2="shape" result="effect1_innerShadow"/>
</filter>
<clipPath id="clip0">
<rect width="414" height="5962" fill="white"/>
</clipPath>
<clipPath id="clip1">
<rect width="67.1218" height="67.1218" fill="white" transform="translate(334.102 157.401)"/>
</clipPath>
</defs>
</svg>
