<svg width="414" height="3244" viewBox="0 0 414 3244" fill="none" xmlns="http://www.w3.org/2000/svg">
<g clip-path="url(#clip0)">
<rect width="414" height="3244" fill="white"/>
<g filter="url(#filter0_i)">
<path d="M209.512 17.8211C206.187 27.0806 195.345 31.6637 185.297 28.0552C175.247 24.4458 169.798 14.0118 173.124 4.75232C176.45 -4.5087 187.291 -9.09013 197.341 -5.48074C207.389 -1.87217 212.838 8.56006 209.512 17.8211ZM210.05 -51.1687C206.889 -50.7012 204.048 -49.5699 201.518 -48.247C199.006 -46.9975 196.748 -45.2149 194.711 -43.5422C190.626 -40.0844 187.353 -36.1671 184.004 -32.9597C180.658 -29.5568 177.306 -27.0327 172.368 -24.9927C167.473 -22.8738 163.169 -22.1666 158.123 -22.0216C153.241 -21.7507 147.797 -21.9868 142.23 -21.3634C139.504 -21.0212 136.532 -20.5972 133.859 -19.6543C131.113 -18.7449 128.33 -17.5022 125.909 -15.6129C120.931 -11.9558 116.744 -5.75665 116.128 3.50156C115.596 12.7741 119.022 19.7796 123.396 24.4441C125.649 26.7844 128.213 28.5978 130.752 30.0684C133.448 31.4826 136.171 32.5582 138.811 33.4533C141.595 34.2871 144.304 34.9452 146.852 35.5775C149.549 36.139 152.05 36.7024 154.451 37.3372C159.381 38.5491 163.61 40.083 168.162 43.1539C172.746 46.1704 175.732 49.4927 178.669 53.3924C180.031 55.3376 183.024 51.8606 183.024 59.5934C184.506 61.8368 185.01 51.1981 186.797 53.3923C190.391 57.6695 200.901 29.9891 201.518 53.3923C201.518 29.9891 211.752 45.2121 220.602 41.5245C229.409 37.751 227.039 41.2214 228.992 35.5775C230.861 29.7441 234.746 38.6695 233.373 33.4533C232.636 30.8112 238.926 38.8367 237.952 36.3814C237.073 33.9367 236.221 31.5913 235.425 29.4052C233.963 24.8837 233.025 20.6962 233.373 15.5945C233.65 10.4796 235.036 6.57672 237.145 2.3926C238.137 0.322182 239.251 -1.76885 240.493 -3.99405C241.575 -6.16282 242.745 -8.45961 243.807 -10.9183C244.728 -13.3172 245.547 -15.8865 246.054 -18.6573C246.417 -21.356 246.498 -24.2875 245.937 -27.34C244.737 -33.3467 240.929 -40.1927 232.654 -45.7415C224.337 -51.2273 216.358 -52.2836 210.05 -51.1687" fill="#80C342"/>
</g>
<path d="M210.05 -51.1687C206.889 -50.7012 204.048 -49.5699 201.518 -48.247C199.006 -46.9975 196.748 -45.2149 194.711 -43.5422C190.626 -40.0844 187.353 -36.1671 184.004 -32.9597C180.658 -29.5568 177.306 -27.0327 172.368 -24.9927C167.473 -22.8738 163.169 -22.1666 158.123 -22.0216C153.241 -21.7507 147.797 -21.9868 142.23 -21.3634C139.504 -21.0212 136.532 -20.5972 133.859 -19.6543C131.113 -18.7449 128.33 -17.5022 125.909 -15.6129C120.931 -11.9558 116.744 -5.75665 116.128 3.50156C115.596 12.7741 119.022 19.7796 123.396 24.4441C125.649 26.7844 128.213 28.5978 130.752 30.0684C133.448 31.4826 136.171 32.5582 138.811 33.4533C141.595 34.2871 144.304 34.9452 146.852 35.5775C149.549 36.139 152.05 36.7024 154.451 37.3372C159.381 38.5491 163.61 40.083 168.162 43.1539C172.746 46.1704 175.732 49.4927 178.669 53.3924C180.031 55.3376 183.024 51.8606 183.024 59.5934C184.506 61.8368 185.01 51.1981 186.797 53.3923C190.391 57.6695 200.901 29.9891 201.518 53.3923C201.518 29.9891 211.752 45.2121 220.602 41.5245C229.409 37.751 227.039 41.2214 228.992 35.5775C230.861 29.7441 234.746 38.6695 233.373 33.4533C232.636 30.8112 238.926 38.8367 237.952 36.3814C237.073 33.9367 236.221 31.5913 235.425 29.4052C233.963 24.8837 233.025 20.6962 233.373 15.5945C233.65 10.4796 235.036 6.57672 237.145 2.3926C238.137 0.322182 239.251 -1.76885 240.493 -3.99405C241.575 -6.16282 242.745 -8.45961 243.807 -10.9183C244.728 -13.3172 245.547 -15.8865 246.054 -18.6573C246.417 -21.356 246.498 -24.2875 245.937 -27.34C244.737 -33.3467 240.929 -40.1927 232.654 -45.7415C224.337 -51.2273 216.358 -52.2836 210.05 -51.1687M209.512 17.8211C206.187 27.0806 195.345 31.6637 185.297 28.0552C175.247 24.4458 169.798 14.0118 173.124 4.75232C176.45 -4.5087 187.291 -9.09013 197.341 -5.48074C207.389 -1.87217 212.838 8.56006 209.512 17.8211Z" stroke="#80C342" stroke-width="0.243204"/>
<path fill-rule="evenodd" clip-rule="evenodd" d="M367.774 53.5634C403.89 63.6794 414.35 57.4777 445.356 53.5634C469.62 21.428 497.452 -92.021 502.702 -126.651C507.91 -161.009 510.617 -195.531 497.077 -224.398C483.241 -253.898 461.554 -282.378 425.373 -291.519C390.143 -300.421 346.827 -276.209 306.964 -272.431C267.53 -268.694 230.135 -287.304 192.278 -269.428C154.419 -251.55 136.25 -212.869 113.536 -181.094C91.8961 -150.82 60.6427 -119.074 62.61 -88.0288C64.5782 -56.9673 135.189 -38.5698 147.675 -11.3719C161.133 17.9467 117.985 25.1048 136.609 53.5634C148.944 72.4117 172.481 57.4777 208.962 57.4777C248.01 57.4777 326.245 41.9313 367.774 53.5634Z" fill="#862D91"/>
<g filter="url(#filter1_i)">
<path d="M392.412 173.471C402.016 186.563 398.71 205.318 385.025 215.358C371.337 225.4 352.454 222.922 342.85 209.831C333.244 196.737 336.552 177.984 350.24 167.942C363.925 157.903 382.806 160.378 392.412 173.471ZM299.609 108.283C297.47 112.94 296.51 117.789 296.08 122.403C295.568 126.923 295.999 131.603 296.475 135.885C297.57 144.569 299.998 152.598 301.399 160.066C303.067 167.712 303.542 174.545 301.972 183.043C300.546 191.557 297.73 197.963 293.504 204.833C289.591 211.604 284.501 218.649 280.464 226.663C278.537 230.622 276.506 234.985 275.438 239.434C274.261 243.949 273.501 248.826 273.935 253.822C274.515 263.885 279.227 275.267 291.204 284.741C303.275 294.116 315.749 296.09 325.889 294.609C331.028 293.789 335.727 292.062 339.94 290.047C344.215 287.77 348.056 285.14 351.58 282.452C355.147 279.516 358.412 276.514 361.5 273.705C364.622 270.63 367.576 267.818 370.54 265.205C376.499 259.757 382.279 255.546 390.42 252.34C398.517 249.039 405.626 248.158 413.472 247.882C417.295 247.882 421.395 247.872 425.673 247.864C430.004 247.983 434.181 247.744 438.713 247.41C447.646 246.61 456.976 244.416 465.679 238.431C474.049 232.417 482.066 222.276 484.837 207.017C487.454 191.735 483.299 179.993 477.38 172.112C471.131 164.166 462.984 159.672 454.728 156.63C450.509 155.146 446.605 153.849 442.432 152.854C438.356 151.743 434.439 150.689 430.785 149.708C423.391 147.434 416.907 144.774 410.315 139.541C403.642 134.391 399.58 128.894 395.772 122.169C393.841 118.911 391.991 115.47 390.071 111.732C388.087 108.261 386.007 104.553 383.614 100.838C381.178 97.3662 378.421 93.8731 375.12 90.6066C371.79 87.5996 367.897 84.7531 363.278 82.6494C354.105 78.6377 341.513 77.3222 326.757 83.1835C312.051 89.1584 303.63 98.8215 299.608 108.283" fill="#80C342"/>
</g>
<path d="M299.609 108.283C297.47 112.94 296.51 117.789 296.08 122.403C295.568 126.923 295.999 131.603 296.475 135.885C297.57 144.569 299.998 152.598 301.399 160.066C303.067 167.712 303.542 174.545 301.972 183.043C300.546 191.557 297.73 197.963 293.504 204.833C289.591 211.604 284.501 218.649 280.464 226.663C278.537 230.622 276.506 234.985 275.438 239.434C274.261 243.949 273.501 248.826 273.935 253.822C274.515 263.885 279.227 275.267 291.204 284.741C303.275 294.116 315.749 296.09 325.889 294.609C331.028 293.789 335.727 292.062 339.94 290.047C344.215 287.77 348.056 285.14 351.58 282.452C355.147 279.516 358.412 276.514 361.5 273.705C364.622 270.63 367.576 267.818 370.54 265.205C376.499 259.757 382.279 255.546 390.42 252.34C398.517 249.039 405.626 248.158 413.472 247.882C417.295 247.882 421.395 247.872 425.673 247.864C430.004 247.983 434.181 247.744 438.713 247.41C447.646 246.61 456.976 244.416 465.679 238.431C474.049 232.417 482.066 222.276 484.837 207.017C487.454 191.735 483.299 179.993 477.38 172.112C471.131 164.166 462.984 159.672 454.728 156.63C450.509 155.146 446.605 153.849 442.432 152.854C438.356 151.743 434.439 150.689 430.785 149.708C423.391 147.434 416.907 144.774 410.315 139.541C403.642 134.391 399.58 128.894 395.772 122.169C393.841 118.911 391.991 115.47 390.071 111.732C388.087 108.261 386.007 104.553 383.614 100.838C381.178 97.3662 378.421 93.8731 375.12 90.6066C371.79 87.5996 367.897 84.7531 363.278 82.6494C354.105 78.6377 341.513 77.3222 326.757 83.1835C312.051 89.1584 303.63 98.8215 299.608 108.283M392.412 173.471C402.016 186.563 398.71 205.318 385.025 215.358C371.337 225.4 352.454 222.922 342.85 209.831C333.244 196.737 336.552 177.984 350.24 167.942C363.925 157.903 382.806 160.378 392.412 173.471Z" stroke="#80C342"/>
<g clip-path="url(#clip1)">
<path d="M394.378 188.253C393.665 189.434 392.568 190.327 391.525 191.105C390.375 191.885 389.279 192.559 388.381 193.321C387.907 193.7 387.501 194.102 387.196 194.564C387.117 194.679 387.057 194.8 386.982 194.921C386.903 195.042 386.83 195.167 386.763 195.297C386.631 195.558 386.526 195.838 386.454 196.148C386.417 196.304 386.391 196.457 386.373 196.607C386.352 196.757 386.315 196.897 386.301 197.04C386.267 197.326 386.268 197.607 386.297 197.887C386.327 198.167 386.386 198.447 386.468 198.729C386.527 199 386.603 199.271 386.701 199.548C386.896 200.099 387.166 200.665 387.463 201.251C387.766 201.841 388.021 202.408 388.307 203.025C388.583 203.634 388.846 204.269 389.053 204.93C389.261 205.591 389.341 206.233 389.357 206.925C389.36 207.267 389.337 207.616 389.284 207.97C389.233 208.327 389.15 208.687 388.993 209.021C388.701 209.704 388.257 210.399 387.636 211.083C386.953 211.705 386.256 212.149 385.574 212.441C385.239 212.597 384.879 212.68 384.523 212.731C384.168 212.784 383.82 212.808 383.477 212.804C382.786 212.789 382.143 212.707 381.482 212.501C380.821 212.293 380.188 212.031 379.577 211.755C378.962 211.468 378.394 211.214 377.804 210.909C377.218 210.612 376.652 210.344 376.1 210.149C375.824 210.05 375.554 209.974 375.282 209.916C375 209.834 374.72 209.774 374.44 209.744C374.159 209.715 373.879 209.714 373.594 209.748C373.45 209.763 373.31 209.8 373.16 209.821C373.009 209.838 372.857 209.864 372.702 209.901C372.392 209.974 372.11 210.079 371.85 210.211C371.72 210.277 371.595 210.351 371.474 210.43C371.352 210.505 371.232 210.565 371.116 210.644C370.654 210.948 370.253 211.354 369.873 211.828C369.113 212.726 368.438 213.824 367.658 214.973C366.88 216.016 365.986 217.113 364.806 217.825C364.219 218.157 363.558 218.408 362.811 218.542C362.624 218.572 362.432 218.607 362.237 218.613C362.043 218.613 361.844 218.606 361.639 218.59C361.23 218.556 360.801 218.487 360.352 218.377C360.127 218.322 359.912 218.26 359.706 218.192C359.502 218.12 359.314 218.016 359.13 217.923C358.766 217.728 358.436 217.513 358.141 217.282C357.845 217.052 357.584 216.805 357.352 216.547C357.13 216.265 356.939 215.966 356.773 215.663C356.44 215.055 356.21 214.419 356.043 213.776C355.872 213.14 355.806 212.418 355.738 211.755C355.687 211.096 355.635 210.439 355.584 209.797C355.53 209.172 355.503 208.511 355.397 207.935C355.346 207.643 355.283 207.363 355.198 207.096C355.112 206.832 355.006 206.581 354.905 206.306C354.684 205.776 354.366 205.302 353.883 204.88C353.462 204.398 352.988 204.079 352.457 203.86C352.183 203.758 351.932 203.651 351.668 203.565C351.401 203.482 351.121 203.417 350.828 203.366C350.253 203.261 349.591 203.234 348.967 203.179C348.325 203.128 347.667 203.077 347.009 203.025C346.347 202.958 345.624 202.891 344.987 202.721C344.345 202.554 343.708 202.323 343.101 201.99C342.798 201.824 342.499 201.634 342.216 201.412C341.958 201.18 341.712 200.918 341.481 200.623C341.251 200.327 341.036 199.999 340.841 199.633C340.747 199.45 340.644 199.263 340.572 199.058C340.504 198.851 340.442 198.637 340.388 198.412C340.277 197.963 340.207 197.533 340.174 197.125C340.158 196.92 340.151 196.721 340.152 196.527C340.156 196.332 340.191 196.139 340.222 195.953C340.356 195.206 340.608 194.545 340.939 193.958C341.65 192.777 342.748 191.884 343.791 191.105C344.941 190.325 346.037 189.652 346.935 188.89C347.409 188.511 347.816 188.109 348.119 187.647C348.198 187.532 348.258 187.411 348.334 187.289C348.413 187.169 348.487 187.044 348.553 186.914C348.684 186.653 348.789 186.373 348.862 186.062C348.899 185.906 348.925 185.755 348.943 185.604C348.963 185.453 349.002 185.314 349.015 185.169C349.05 184.885 349.049 184.604 349.019 184.324C348.989 184.044 348.929 183.764 348.847 183.482C348.789 183.211 348.713 182.94 348.614 182.663C348.419 182.112 348.151 181.546 347.854 180.96C347.55 180.37 347.295 179.801 347.009 179.186C346.734 178.576 346.47 177.942 346.263 177.281C346.056 176.62 345.974 175.978 345.959 175.286C345.957 174.944 345.979 174.595 346.032 174.24C346.083 173.885 346.166 173.523 346.322 173.19C346.616 172.507 347.058 171.812 347.68 171.127C348.364 170.506 349.059 170.062 349.742 169.77C350.076 169.614 350.437 169.531 350.793 169.479C351.147 169.426 351.496 169.403 351.839 169.407C352.531 169.422 353.172 169.504 353.834 169.71C354.494 169.917 355.129 170.18 355.738 170.456C356.354 170.743 356.923 170.998 357.512 171.302C358.098 171.599 358.664 171.867 359.216 172.062C359.492 172.161 359.763 172.237 360.035 172.295C360.316 172.377 360.595 172.437 360.876 172.466C361.157 172.496 361.438 172.497 361.723 172.463C361.866 172.448 362.006 172.411 362.156 172.39C362.307 172.373 362.46 172.346 362.615 172.31C362.925 172.237 363.206 172.132 363.466 172C363.597 171.934 363.721 171.86 363.842 171.781C363.963 171.706 364.085 171.646 364.2 171.567C364.662 171.264 365.064 170.857 365.442 170.383C366.204 169.485 366.878 168.388 367.658 167.238C368.436 166.195 369.329 165.098 370.51 164.385C371.098 164.055 371.758 163.804 372.505 163.67C372.691 163.639 372.885 163.604 373.08 163.598C373.273 163.597 373.473 163.605 373.677 163.622C374.086 163.655 374.516 163.724 374.964 163.834C375.188 163.89 375.404 163.951 375.61 164.02C375.815 164.092 376.003 164.195 376.187 164.289C376.551 164.484 376.879 164.698 377.175 164.929C377.47 165.159 377.732 165.406 377.964 165.664C378.186 165.946 378.377 166.246 378.544 166.547C378.875 167.155 379.107 167.792 379.274 168.435C379.445 169.072 379.511 169.793 379.577 170.456C379.629 171.115 379.681 171.773 379.732 172.414C379.787 173.039 379.813 173.7 379.919 174.277C379.969 174.569 380.033 174.848 380.118 175.116C380.204 175.379 380.309 175.63 380.412 175.905C380.632 176.436 380.951 176.91 381.433 177.329C381.854 177.813 382.329 178.132 382.858 178.352C383.134 178.454 383.384 178.559 383.648 178.646C383.915 178.73 384.195 178.794 384.487 178.845C385.063 178.95 385.725 178.977 386.349 179.032C386.991 179.083 387.649 179.134 388.307 179.186C388.97 179.253 389.692 179.319 390.328 179.49C390.972 179.657 391.608 179.888 392.216 180.221C392.518 180.387 392.817 180.578 393.099 180.8C393.357 181.031 393.604 181.293 393.834 181.588C394.066 181.884 394.28 182.212 394.475 182.577C394.569 182.76 394.673 182.949 394.744 183.153C394.812 183.359 394.873 183.574 394.929 183.799C395.039 184.248 395.108 184.678 395.142 185.087C395.158 185.29 395.165 185.491 395.165 185.685C395.159 185.88 395.124 186.072 395.093 186.258C394.96 187.005 394.709 187.666 394.378 188.253L394.378 188.253ZM367.658 157.544C349.123 157.544 334.097 172.57 334.097 191.105C334.097 209.64 349.123 224.666 367.658 224.666C386.194 224.666 401.219 209.64 401.219 191.105C401.219 172.57 386.194 157.544 367.658 157.544" fill="#862D91"/>
<path d="M374.43 188.301C372.333 188.301 370.632 186.601 370.632 184.504C370.632 182.406 372.333 180.706 374.43 180.706C376.527 180.706 378.227 182.406 378.227 184.504C378.227 186.601 376.527 188.301 374.43 188.301ZM388.308 183.82C387.986 183.266 387.555 182.816 387.107 182.436C386.675 182.055 386.155 181.756 385.673 181.49C384.685 180.965 383.663 180.62 382.779 180.213C381.855 179.821 381.107 179.369 380.342 178.591C379.564 177.827 379.112 177.078 378.72 176.155C378.314 175.27 377.969 174.248 377.443 173.26C377.178 172.779 376.879 172.258 376.497 171.826C376.117 171.379 375.667 170.947 375.113 170.625C374.021 169.947 372.476 169.585 370.574 170.086C368.676 170.603 367.518 171.701 366.897 172.82C366.59 173.392 366.411 173.986 366.299 174.553C366.209 175.146 366.19 175.72 366.2 176.268C366.234 176.838 366.297 177.383 366.353 177.896C366.435 178.431 366.502 178.931 366.548 179.417C366.66 180.409 366.657 181.293 366.369 182.338C366.094 183.386 365.643 184.159 365.072 184.961C364.78 185.342 364.468 185.751 364.142 186.178C363.799 186.6 363.504 187.034 363.193 187.51C362.594 188.458 362.11 189.548 362.068 190.853C362.055 192.126 362.498 193.666 363.876 195.057C365.267 196.435 366.807 196.879 368.08 196.866C369.385 196.824 370.475 196.341 371.423 195.74C371.9 195.429 372.333 195.134 372.755 194.791C373.183 194.466 373.592 194.153 373.973 193.861C374.775 193.29 375.547 192.839 376.595 192.565C377.641 192.276 378.524 192.273 379.515 192.385C380.002 192.431 380.502 192.498 381.038 192.58C381.551 192.636 382.096 192.7 382.666 192.733C383.213 192.744 383.788 192.725 384.38 192.635C384.947 192.523 385.541 192.343 386.113 192.037C387.232 191.416 388.331 190.257 388.848 188.359C389.349 186.457 388.986 184.912 388.308 183.82" fill="#80C342"/>
</g>
<g filter="url(#filter2_i)">
<path d="M-71.1648 474.03C-48.4364 476.028 -31.6993 496.909 -33.7884 520.668C-35.8779 544.432 -56.0021 562.072 -78.7305 560.073C-101.463 558.074 -118.196 537.194 -116.106 513.43C-114.017 489.671 -93.8969 472.031 -71.1648 474.03ZM-226.044 511.571C-223.111 518.147 -218.881 523.657 -214.408 528.389C-210.11 533.121 -204.769 537.006 -199.806 540.473C-189.622 547.369 -178.893 552.25 -169.709 557.696C-160.089 563.025 -152.434 568.859 -144.918 578.396C-137.25 587.796 -133.098 596.709 -129.762 607.541C-126.242 617.951 -123.523 629.858 -118.804 641.551C-116.411 647.256 -113.688 653.447 -109.98 658.7C-106.305 664.129 -101.86 669.453 -96.183 673.628C-85.0194 682.345 -68.633 687.924 -47.5241 684.063C-26.4334 680.011 -55.3638 611.688 -47.524 599.608C-43.6253 593.422 -35.5681 605.925 -33.7884 599.608C-32.2289 592.982 -47.9539 605.821 -47.524 599.608C-101.09 559.811 -71.0612 605.473 -71.1648 599.608C-132.002 587.227 -39.6005 592.778 -39.6114 587.227C-39.8378 575.884 6.09795 560.831 10.2618 549.262C14.284 537.653 19.9455 529.33 26.9297 520.79C30.475 516.753 34.2654 512.414 38.2233 507.89C42.3653 503.427 45.9857 498.796 49.8358 493.701C57.2733 483.527 63.6082 471.643 65.3592 456.903C66.7698 442.489 63.4962 424.621 49.9542 407.547C36.2456 390.614 19.9947 384.113 6.18517 383.054C-7.99871 382.285 -20.2982 386.721 -31.165 392.617C-36.6441 395.695 -41.6336 398.615 -46.5535 402.098C-51.5055 405.372 -56.2516 408.531 -60.6743 411.479C-69.9317 417.177 -78.7529 421.557 -90.3905 423.665C-102.015 425.935 -111.585 425.127 -122.217 422.913C-127.447 421.93 -132.797 420.693 -138.523 419.255C-144.027 418.13 -149.871 416.888 -156.013 415.97C-161.937 415.323 -168.181 414.995 -174.692 415.452C-180.954 416.18 -187.57 417.651 -194.073 420.577C-206.814 426.542 -219.88 438.619 -227.373 459.633C-234.7 480.701 -232.306 498.552 -226.044 511.572" fill="#80C342"/>
</g>
<path d="M-226.044 511.571C-223.111 518.147 -218.881 523.657 -214.408 528.389C-210.11 533.121 -204.769 537.006 -199.806 540.473C-189.622 547.369 -178.893 552.25 -169.709 557.696C-160.089 563.025 -152.434 568.859 -144.918 578.396C-137.25 587.796 -133.098 596.709 -129.762 607.541C-126.242 617.951 -123.523 629.858 -118.804 641.551C-116.411 647.256 -113.688 653.447 -109.98 658.7C-106.305 664.129 -101.86 669.453 -96.183 673.628C-85.0194 682.345 -68.633 687.924 -47.5241 684.063C-26.4334 680.011 -55.3638 611.688 -47.524 599.608M-47.524 599.608C-43.6253 593.422 -35.5681 605.925 -33.7884 599.608C-32.2289 592.982 -47.9539 605.821 -47.524 599.608ZM-47.524 599.608C-101.09 559.811 -71.0612 605.473 -71.1648 599.608C-132.002 587.227 -39.6005 592.778 -39.6114 587.227C-39.8378 575.884 6.09795 560.831 10.2618 549.262C14.284 537.653 19.9455 529.33 26.9297 520.79C30.475 516.753 34.2654 512.414 38.2233 507.89C42.3653 503.427 45.9857 498.796 49.8358 493.701C57.2733 483.527 63.6082 471.643 65.3592 456.903C66.7698 442.489 63.4962 424.621 49.9542 407.547C36.2456 390.614 19.9947 384.113 6.18517 383.054C-7.99871 382.285 -20.2982 386.721 -31.165 392.617C-36.6441 395.695 -41.6336 398.615 -46.5535 402.098C-51.5055 405.372 -56.2516 408.531 -60.6743 411.479C-69.9317 417.177 -78.7529 421.557 -90.3905 423.665C-102.015 425.935 -111.585 425.127 -122.217 422.913C-127.447 421.93 -132.797 420.693 -138.523 419.255C-144.027 418.13 -149.871 416.888 -156.013 415.97C-161.937 415.323 -168.181 414.995 -174.692 415.452C-180.954 416.18 -187.57 417.651 -194.073 420.577C-206.814 426.542 -219.88 438.619 -227.373 459.633C-234.7 480.701 -232.306 498.552 -226.044 511.572M-71.1648 474.03C-48.4364 476.028 -31.6993 496.909 -33.7884 520.668C-35.8779 544.432 -56.0021 562.072 -78.7305 560.073C-101.463 558.074 -118.196 537.194 -116.106 513.43C-114.017 489.671 -93.8969 472.031 -71.1648 474.03Z" stroke="#80C342"/>
<mask id="path-10-inside-1" fill="white">
<path d="M10.6957 354.767C14.9238 361.735 16.5903 369.924 17.8064 377.519C18.7363 385.673 19.2631 393.262 20.7882 400.05C21.4736 403.573 22.4636 406.8 24.0493 409.659C24.4355 410.388 24.9024 411.036 25.3309 411.758C25.7462 412.506 26.2004 413.228 26.6988 413.935C27.7009 415.344 28.8851 416.66 30.3068 417.889C31.0208 418.507 31.75 419.065 32.4907 419.57C33.2154 420.093 33.8478 420.668 34.5595 421.135C35.9629 422.101 37.4333 422.865 38.98 423.476C40.5304 424.093 42.1586 424.55 43.8584 424.894C45.438 425.331 47.0657 425.677 48.7854 425.921C52.2044 426.411 55.9069 426.553 59.7915 426.607C63.71 426.634 67.3788 426.859 71.3897 427.052C75.3368 427.279 79.3818 427.642 83.4122 428.375C87.4402 429.1 91.0262 430.438 94.6884 432.253C96.4872 433.178 98.2504 434.252 99.9578 435.501C101.69 436.746 103.348 438.171 104.664 439.904C107.441 443.31 109.865 447.538 111.741 452.663C113.124 457.947 113.538 462.807 113.2 467.178C113.098 469.359 112.544 471.472 111.833 473.476C111.142 475.478 110.31 477.363 109.349 479.149C107.377 482.726 105.188 485.863 102.293 488.755C99.3926 491.647 96.2828 494.243 93.1644 496.681C89.9772 499.114 87.087 501.389 83.8768 503.643C80.7138 505.893 77.7589 508.118 75.2256 510.47C73.9531 511.645 72.8123 512.854 71.7605 514.117C70.5587 515.367 69.48 516.669 68.5549 518.05C67.6315 519.44 66.8578 520.904 66.257 522.49C65.9402 523.281 65.7492 524.117 65.4505 524.96C65.1222 525.798 64.8438 526.666 64.6134 527.578C64.1456 529.402 63.9193 531.163 63.9009 532.887C63.8865 533.747 63.9329 534.602 64.0149 535.451C64.0731 536.296 64.0595 537.093 64.1559 537.914C64.4771 541.164 65.5052 544.38 66.9457 547.666C69.5601 554.107 73.4597 560.647 77.338 567.88C80.6676 574.819 83.9612 582.503 84.4519 590.633C84.578 594.614 84.0835 598.763 82.7348 603.039C82.3825 604.096 82.038 605.201 81.5334 606.239C81.0024 607.252 80.4201 608.276 79.7729 609.302C78.4762 611.35 76.9385 613.409 75.1317 615.454C74.2254 616.477 73.3135 617.434 72.3925 618.324C71.4536 619.197 70.3965 619.899 69.4038 620.601C67.3835 621.974 65.3567 623.111 63.3371 624.023C61.3215 624.94 59.3142 625.629 57.3255 626.135C55.241 626.525 53.1521 626.699 51.1071 626.741C47.0147 626.816 43.0571 626.273 39.2305 625.387C35.4287 624.535 31.4692 622.903 27.8135 621.436C24.2206 619.9 20.639 618.366 17.141 616.872C13.7183 615.445 10.1846 613.77 6.87926 612.746C5.20896 612.209 3.57002 611.773 1.93792 611.486C0.319498 611.21 -1.28268 611.077 -3.00109 610.855C-6.38175 610.552 -9.73672 610.921 -13.2649 612.291C-16.9468 613.172 -19.9161 614.779 -22.5187 616.952C-23.8042 618.109 -25.0516 619.13 -26.2244 620.276C-27.3911 621.442 -28.4993 622.731 -29.5676 624.124C-31.6956 626.845 -33.6486 630.237 -35.6475 633.352C-37.6762 636.574 -39.7468 639.873 -41.8236 643.174C-43.9928 646.457 -46.3213 650.057 -48.9593 652.92C-51.5912 655.827 -54.5494 658.524 -57.9545 660.79C-59.6567 661.921 -61.4697 662.961 -63.4095 663.832C-65.3329 664.548 -67.3765 665.115 -69.554 665.514C-71.732 665.909 -74.0435 666.136 -76.4919 666.153C-77.7079 666.139 -78.9721 666.168 -80.242 665.984C-81.5085 665.769 -82.8023 665.507 -84.1252 665.176C-86.782 664.522 -89.226 663.71 -91.4522 662.763C-92.5695 662.287 -93.6323 661.777 -94.6455 661.239C-95.654 660.681 -96.5657 659.968 -97.4562 659.296C-100.999 656.546 -103.771 653.416 -105.937 650.076C-110.168 643.113 -111.835 634.919 -113.052 627.324C-113.987 619.168 -114.505 611.582 -116.031 604.794C-116.717 601.273 -117.706 598.045 -119.294 595.19C-119.681 594.462 -120.148 593.813 -120.579 593.085C-120.989 592.34 -121.442 591.614 -121.944 590.908C-122.947 589.507 -124.128 588.191 -125.553 586.955C-126.269 586.335 -126.99 585.781 -127.734 585.275C-128.466 584.755 -129.091 584.172 -129.81 583.707C-131.203 582.745 -132.676 581.979 -134.225 581.367C-135.776 580.757 -137.403 580.299 -139.104 579.957C-140.683 579.518 -142.311 579.173 -144.031 578.93C-147.449 578.438 -151.15 578.286 -155.034 578.238C-158.956 578.209 -162.631 577.985 -166.632 577.793C-170.586 577.56 -174.627 577.201 -178.652 576.471C-182.683 575.745 -186.271 574.41 -189.931 572.592C-191.73 571.666 -193.496 570.591 -195.208 569.34C-196.93 568.099 -198.595 566.676 -199.911 564.942C-202.683 561.534 -205.109 557.31 -206.988 552.178C-208.367 546.898 -208.783 542.043 -208.442 537.666C-208.344 535.491 -207.787 533.372 -207.081 531.367C-206.392 529.369 -205.552 527.481 -204.591 525.695C-202.619 522.118 -200.433 518.985 -197.534 516.086C-194.643 513.2 -191.524 510.599 -188.409 508.168C-185.22 505.731 -182.328 503.452 -179.122 501.206C-175.956 498.951 -173.002 496.727 -170.468 494.373C-169.195 493.199 -168.055 491.991 -167.003 490.728C-165.807 489.481 -164.726 488.181 -163.802 486.791C-162.874 485.404 -162.099 483.936 -161.498 482.355C-161.182 481.564 -160.99 480.727 -160.691 479.884C-160.366 479.051 -160.092 478.176 -159.853 477.265C-159.386 475.443 -159.163 473.687 -159.144 471.963C-159.133 471.095 -159.176 470.241 -159.256 469.393C-159.317 468.554 -159.299 467.75 -159.397 466.931C-159.718 463.681 -160.746 460.465 -162.19 457.185C-164.804 450.736 -168.7 444.196 -172.582 436.959C-175.91 430.029 -179.205 422.347 -179.699 414.212C-179.819 410.23 -179.323 406.086 -177.979 401.812C-177.626 400.753 -177.278 399.641 -176.774 398.606C-176.249 397.592 -175.661 396.569 -175.014 395.543C-173.721 393.497 -172.178 391.434 -170.373 389.39C-169.468 388.371 -168.554 387.41 -167.633 386.521C-166.693 385.645 -165.637 384.946 -164.644 384.241C-162.623 382.868 -160.6 381.739 -158.58 380.827C-156.565 379.91 -154.556 379.216 -152.569 378.715C-150.485 378.326 -148.393 378.146 -146.356 378.1C-142.264 378.032 -138.296 378.568 -134.471 379.457C-130.667 380.311 -126.71 381.942 -123.057 383.413C-119.464 384.95 -115.881 386.481 -112.383 387.975C-108.959 389.4 -105.426 391.076 -102.118 392.101C-100.452 392.641 -98.8114 393.073 -97.1803 393.362C-95.5661 393.633 -93.9607 393.773 -92.2398 393.99C-88.858 394.291 -85.503 393.922 -81.9841 392.551C-78.3008 391.673 -75.3253 390.067 -72.7256 387.899C-71.433 386.735 -70.1947 385.713 -69.0199 384.569C-67.8496 383.404 -66.7458 382.116 -65.6758 380.725C-63.5447 377.998 -61.5949 374.611 -59.5915 371.495C-57.5671 368.277 -55.4951 364.972 -53.4175 361.671C-51.2511 358.381 -48.925 354.791 -46.286 351.927C-43.6463 349.017 -40.6935 346.318 -37.2849 344.052C-35.5872 342.929 -33.7685 341.885 -31.8346 341.019C-29.9138 340.302 -27.8669 339.729 -25.6893 339.335C-23.5076 338.933 -21.2005 338.714 -18.7566 338.694C-17.5376 338.702 -16.2691 338.677 -15.0019 338.866C-13.7376 339.073 -12.4435 339.341 -11.1144 339.667C-8.46156 340.322 -6.01796 341.14 -3.78808 342.087C-2.67831 342.558 -1.60918 343.069 -0.594757 343.604C0.410367 344.169 1.32224 344.882 2.21307 345.553C5.75861 348.298 8.53017 351.428 10.6972 354.767L10.6957 354.767Z"/>
</mask>
<path d="M10.6957 354.767C14.9238 361.735 16.5903 369.924 17.8064 377.519C18.7363 385.673 19.2631 393.262 20.7882 400.05C21.4736 403.573 22.4636 406.8 24.0493 409.659C24.4355 410.388 24.9024 411.036 25.3309 411.758C25.7462 412.506 26.2004 413.228 26.6988 413.935C27.7009 415.344 28.8851 416.66 30.3068 417.889C31.0208 418.507 31.75 419.065 32.4907 419.57C33.2154 420.093 33.8478 420.668 34.5595 421.135C35.9629 422.101 37.4333 422.865 38.98 423.476C40.5304 424.093 42.1586 424.55 43.8584 424.894C45.438 425.331 47.0657 425.677 48.7854 425.921C52.2044 426.411 55.9069 426.553 59.7915 426.607C63.71 426.634 67.3788 426.859 71.3897 427.052C75.3368 427.279 79.3818 427.642 83.4122 428.375C87.4402 429.1 91.0262 430.438 94.6884 432.253C96.4872 433.178 98.2504 434.252 99.9578 435.501C101.69 436.746 103.348 438.171 104.664 439.904C107.441 443.31 109.865 447.538 111.741 452.663C113.124 457.947 113.538 462.807 113.2 467.178C113.098 469.359 112.544 471.472 111.833 473.476C111.142 475.478 110.31 477.363 109.349 479.149C107.377 482.726 105.188 485.863 102.293 488.755C99.3926 491.647 96.2828 494.243 93.1644 496.681C89.9772 499.114 87.087 501.389 83.8768 503.643C80.7138 505.893 77.7589 508.118 75.2256 510.47C73.9531 511.645 72.8123 512.854 71.7605 514.117C70.5587 515.367 69.48 516.669 68.5549 518.05C67.6315 519.44 66.8578 520.904 66.257 522.49C65.9402 523.281 65.7492 524.117 65.4505 524.96C65.1222 525.798 64.8438 526.666 64.6134 527.578C64.1456 529.402 63.9193 531.163 63.9009 532.887C63.8865 533.747 63.9329 534.602 64.0149 535.451C64.0731 536.296 64.0595 537.093 64.1559 537.914C64.4771 541.164 65.5052 544.38 66.9457 547.666C69.5601 554.107 73.4597 560.647 77.338 567.88C80.6676 574.819 83.9612 582.503 84.4519 590.633C84.578 594.614 84.0835 598.763 82.7348 603.039C82.3825 604.096 82.038 605.201 81.5334 606.239C81.0024 607.252 80.4201 608.276 79.7729 609.302C78.4762 611.35 76.9385 613.409 75.1317 615.454C74.2254 616.477 73.3135 617.434 72.3925 618.324C71.4536 619.197 70.3965 619.899 69.4038 620.601C67.3835 621.974 65.3567 623.111 63.3371 624.023C61.3215 624.94 59.3142 625.629 57.3255 626.135C55.241 626.525 53.1521 626.699 51.1071 626.741C47.0147 626.816 43.0571 626.273 39.2305 625.387C35.4287 624.535 31.4692 622.903 27.8135 621.436C24.2206 619.9 20.639 618.366 17.141 616.872C13.7183 615.445 10.1846 613.77 6.87926 612.746C5.20896 612.209 3.57002 611.773 1.93792 611.486C0.319498 611.21 -1.28268 611.077 -3.00109 610.855C-6.38175 610.552 -9.73672 610.921 -13.2649 612.291C-16.9468 613.172 -19.9161 614.779 -22.5187 616.952C-23.8042 618.109 -25.0516 619.13 -26.2244 620.276C-27.3911 621.442 -28.4993 622.731 -29.5676 624.124C-31.6956 626.845 -33.6486 630.237 -35.6475 633.352C-37.6762 636.574 -39.7468 639.873 -41.8236 643.174C-43.9928 646.457 -46.3213 650.057 -48.9593 652.92C-51.5912 655.827 -54.5494 658.524 -57.9545 660.79C-59.6567 661.921 -61.4697 662.961 -63.4095 663.832C-65.3329 664.548 -67.3765 665.115 -69.554 665.514C-71.732 665.909 -74.0435 666.136 -76.4919 666.153C-77.7079 666.139 -78.9721 666.168 -80.242 665.984C-81.5085 665.769 -82.8023 665.507 -84.1252 665.176C-86.782 664.522 -89.226 663.71 -91.4522 662.763C-92.5695 662.287 -93.6323 661.777 -94.6455 661.239C-95.654 660.681 -96.5657 659.968 -97.4562 659.296C-100.999 656.546 -103.771 653.416 -105.937 650.076C-110.168 643.113 -111.835 634.919 -113.052 627.324C-113.987 619.168 -114.505 611.582 -116.031 604.794C-116.717 601.273 -117.706 598.045 -119.294 595.19C-119.681 594.462 -120.148 593.813 -120.579 593.085C-120.989 592.34 -121.442 591.614 -121.944 590.908C-122.947 589.507 -124.128 588.191 -125.553 586.955C-126.269 586.335 -126.99 585.781 -127.734 585.275C-128.466 584.755 -129.091 584.172 -129.81 583.707C-131.203 582.745 -132.676 581.979 -134.225 581.367C-135.776 580.757 -137.403 580.299 -139.104 579.957C-140.683 579.518 -142.311 579.173 -144.031 578.93C-147.449 578.438 -151.15 578.286 -155.034 578.238C-158.956 578.209 -162.631 577.985 -166.632 577.793C-170.586 577.56 -174.627 577.201 -178.652 576.471C-182.683 575.745 -186.271 574.41 -189.931 572.592C-191.73 571.666 -193.496 570.591 -195.208 569.34C-196.93 568.099 -198.595 566.676 -199.911 564.942C-202.683 561.534 -205.109 557.31 -206.988 552.178C-208.367 546.898 -208.783 542.043 -208.442 537.666C-208.344 535.491 -207.787 533.372 -207.081 531.367C-206.392 529.369 -205.552 527.481 -204.591 525.695C-202.619 522.118 -200.433 518.985 -197.534 516.086C-194.643 513.2 -191.524 510.599 -188.409 508.168C-185.22 505.731 -182.328 503.452 -179.122 501.206C-175.956 498.951 -173.002 496.727 -170.468 494.373C-169.195 493.199 -168.055 491.991 -167.003 490.728C-165.807 489.481 -164.726 488.181 -163.802 486.791C-162.874 485.404 -162.099 483.936 -161.498 482.355C-161.182 481.564 -160.99 480.727 -160.691 479.884C-160.366 479.051 -160.092 478.176 -159.853 477.265C-159.386 475.443 -159.163 473.687 -159.144 471.963C-159.133 471.095 -159.176 470.241 -159.256 469.393C-159.317 468.554 -159.299 467.75 -159.397 466.931C-159.718 463.681 -160.746 460.465 -162.19 457.185C-164.804 450.736 -168.7 444.196 -172.582 436.959C-175.91 430.029 -179.205 422.347 -179.699 414.212C-179.819 410.23 -179.323 406.086 -177.979 401.812C-177.626 400.753 -177.278 399.641 -176.774 398.606C-176.249 397.592 -175.661 396.569 -175.014 395.543C-173.721 393.497 -172.178 391.434 -170.373 389.39C-169.468 388.371 -168.554 387.41 -167.633 386.521C-166.693 385.645 -165.637 384.946 -164.644 384.241C-162.623 382.868 -160.6 381.739 -158.58 380.827C-156.565 379.91 -154.556 379.216 -152.569 378.715C-150.485 378.326 -148.393 378.146 -146.356 378.1C-142.264 378.032 -138.296 378.568 -134.471 379.457C-130.667 380.311 -126.71 381.942 -123.057 383.413C-119.464 384.95 -115.881 386.481 -112.383 387.975C-108.959 389.4 -105.426 391.076 -102.118 392.101C-100.452 392.641 -98.8114 393.073 -97.1803 393.362C-95.5661 393.633 -93.9607 393.773 -92.2398 393.99C-88.858 394.291 -85.503 393.922 -81.9841 392.551C-78.3008 391.673 -75.3253 390.067 -72.7256 387.899C-71.433 386.735 -70.1947 385.713 -69.0199 384.569C-67.8496 383.404 -66.7458 382.116 -65.6758 380.725C-63.5447 377.998 -61.5949 374.611 -59.5915 371.495C-57.5671 368.277 -55.4951 364.972 -53.4175 361.671C-51.2511 358.381 -48.925 354.791 -46.286 351.927C-43.6463 349.017 -40.6935 346.318 -37.2849 344.052C-35.5872 342.929 -33.7685 341.885 -31.8346 341.019C-29.9138 340.302 -27.8669 339.729 -25.6893 339.335C-23.5076 338.933 -21.2005 338.714 -18.7566 338.694C-17.5376 338.702 -16.2691 338.677 -15.0019 338.866C-13.7376 339.073 -12.4435 339.341 -11.1144 339.667C-8.46156 340.322 -6.01796 341.14 -3.78808 342.087C-2.67831 342.558 -1.60918 343.069 -0.594757 343.604C0.410367 344.169 1.32224 344.882 2.21307 345.553C5.75861 348.298 8.53017 351.428 10.6972 354.767L10.6957 354.767Z" fill="#862D91" stroke="#862D91" stroke-width="2" mask="url(#path-10-inside-1)"/>
<path fill-rule="evenodd" clip-rule="evenodd" d="M242.401 531.621C260.856 557.515 273.803 586.741 275.81 618.478C277.811 650.116 273.486 683.874 253.592 708.561C234.615 732.11 172 650.788 145.733 665.778C112.973 684.475 125.542 679.169 88.6763 671.207C52.1863 663.326 50.7359 700.508 37.0485 665.778C27.2622 640.948 -23.066 667.483 -28.2216 641.295C-34.5168 609.318 -10.688 560.965 3.50036 531.621C17.4742 502.72 47.6754 518.836 77.06 505.909C107.884 492.348 133.946 460.932 167.218 466.106C200.891 471.342 222.625 503.872 242.401 531.621Z" fill="white"/>
<path d="M482.761 752.184C483.219 731.712 466.398 714.718 445.189 714.235C423.976 713.752 406.411 729.962 405.953 750.434C405.495 770.91 422.317 787.9 443.53 788.383C464.739 788.866 482.303 772.66 482.761 752.184ZM434.411 886.639C428.885 883.372 424.427 879.055 420.683 874.597C416.919 870.295 414.008 865.147 411.429 860.378C406.329 850.612 403.064 840.559 399.148 831.828C395.379 822.72 390.971 815.315 383.275 807.668C375.716 799.899 368.242 795.314 358.992 791.269C350.135 787.101 339.874 783.499 329.998 778.134C325.189 775.436 319.983 772.395 315.701 768.569C311.262 764.754 306.99 760.263 303.855 754.786C297.241 743.967 293.913 728.798 299.393 710.349C305.039 691.935 316.401 680.878 327.848 675.077C333.699 672.211 339.748 670.599 345.507 669.636C351.517 668.899 357.335 668.84 362.87 669.07C368.627 669.527 374.121 670.269 379.296 670.941C384.697 671.861 389.737 672.632 394.644 673.19C404.649 674.513 413.587 674.687 424.222 672.115C434.879 669.674 442.791 665.445 451.025 660.059C454.941 657.295 459.147 654.342 463.534 651.258C467.885 648.004 472.334 645.232 477.215 642.301C486.938 636.671 498.064 632.194 511.267 632.088C524.147 632.253 539.623 636.938 553.392 650.705C567.02 664.607 571.177 679.746 570.761 692.169C570.053 704.898 564.927 715.432 558.651 724.544C555.393 729.127 552.323 733.29 548.763 737.335C545.383 741.429 542.126 745.351 539.087 749.005C533.143 756.7 528.408 764.136 525.405 774.31C522.26 784.455 522.038 793.073 522.954 802.776C523.312 807.538 523.881 812.432 524.592 817.683C525.047 822.704 525.573 828.04 525.784 833.609C525.776 838.958 525.455 844.561 524.414 850.323C523.157 855.838 521.209 861.594 517.985 867.107C511.465 877.883 499.509 888.346 480.198 892.954C460.856 897.41 445.308 893.511 434.411 886.639" fill="#80C342"/>
<path d="M434.411 886.639C428.885 883.372 424.427 879.055 420.683 874.597C416.919 870.295 414.008 865.147 411.429 860.378C406.329 850.612 403.064 840.559 399.148 831.828C395.379 822.72 390.971 815.315 383.275 807.668C375.716 799.899 368.242 795.314 358.992 791.269C350.135 787.101 339.874 783.499 329.998 778.134C325.189 775.436 319.983 772.395 315.701 768.569C311.262 764.754 306.99 760.263 303.855 754.786C297.241 743.967 293.913 728.798 299.393 710.349C305.039 691.935 316.401 680.878 327.848 675.077C333.699 672.211 339.748 670.599 345.507 669.636C351.517 668.899 357.335 668.84 362.87 669.07C368.627 669.527 374.121 670.269 379.296 670.941C384.697 671.861 389.737 672.632 394.644 673.19C404.649 674.513 413.587 674.687 424.222 672.115C434.879 669.674 442.791 665.445 451.025 660.059C454.941 657.295 459.147 654.342 463.534 651.258C467.885 648.004 472.334 645.232 477.215 642.301C486.938 636.671 498.064 632.194 511.267 632.088C524.147 632.253 539.623 636.938 553.392 650.705C567.02 664.607 571.177 679.746 570.761 692.169C570.053 704.898 564.927 715.432 558.651 724.544C555.393 729.127 552.323 733.29 548.763 737.335C545.383 741.429 542.126 745.351 539.087 749.005C533.143 756.7 528.408 764.136 525.405 774.31C522.26 784.455 522.038 793.073 522.954 802.776C523.312 807.538 523.881 812.432 524.592 817.683C525.047 822.704 525.573 828.04 525.784 833.609C525.776 838.958 525.455 844.561 524.414 850.323C523.157 855.838 521.209 861.594 517.985 867.107C511.465 877.883 499.509 888.346 480.198 892.954C460.856 897.41 445.308 893.511 434.411 886.639M482.761 752.184C483.219 731.712 466.398 714.718 445.189 714.235C423.976 713.752 406.411 729.962 405.953 750.434C405.495 770.91 422.317 787.9 443.53 788.383C464.739 788.866 482.303 772.66 482.761 752.184Z" stroke="#80C342"/>
<mask id="path-14-inside-2" fill="white">
<path d="M601.498 713.906C596.414 709.964 590.155 707.932 584.321 706.308C578.026 704.86 572.138 703.779 566.962 701.982C564.267 701.133 561.829 700.069 559.729 698.569C559.193 698.201 558.726 697.776 558.199 697.375C557.65 696.982 557.124 696.561 556.615 696.106C555.599 695.193 554.672 694.145 553.833 692.917C553.412 692.3 553.039 691.676 552.708 691.049C552.361 690.432 551.966 689.883 551.662 689.281C551.028 688.091 550.557 686.865 550.212 685.593C549.863 684.317 549.646 682.994 549.524 681.625C549.318 680.342 549.188 679.029 549.145 677.652C549.056 674.915 549.264 671.986 549.556 668.92C549.872 665.83 550.012 662.92 550.207 659.743C550.369 656.613 550.433 653.394 550.207 650.154C549.987 646.916 549.249 643.973 548.146 640.929C547.578 639.43 546.89 637.947 546.06 636.492C545.236 635.018 544.265 633.587 543.023 632.397C540.599 629.91 537.502 627.63 533.656 625.702C529.644 624.149 525.88 623.396 522.433 623.279C520.719 623.168 519.02 623.419 517.392 623.804C515.767 624.172 514.221 624.663 512.742 625.263C509.775 626.503 507.134 627.953 504.624 629.98C502.113 632.012 499.816 634.234 497.641 636.477C495.465 638.775 493.436 640.853 491.398 643.185C489.367 645.479 487.372 647.612 485.315 649.402C484.288 650.302 483.244 651.095 482.166 651.813C481.085 652.65 479.974 653.386 478.814 653.993C477.648 654.599 476.437 655.08 475.146 655.414C474.499 655.595 473.829 655.672 473.144 655.833C472.461 656.018 471.759 656.162 471.026 656.263C469.56 656.472 468.163 656.496 466.814 656.359C466.14 656.295 465.475 656.183 464.818 656.044C464.163 655.924 463.539 655.865 462.905 655.717C460.392 655.179 457.966 654.087 455.521 652.663C450.71 650.038 445.932 646.392 440.611 642.702C435.472 639.469 429.748 636.2 423.434 635.1C420.332 634.652 417.046 634.677 413.586 635.365C412.729 635.55 411.835 635.724 410.981 636.031C410.143 636.36 409.292 636.729 408.434 637.149C406.721 637.991 404.979 639.022 403.224 640.266C402.347 640.891 401.52 641.525 400.745 642.173C399.981 642.836 399.342 643.608 398.707 644.328C397.46 645.8 396.396 647.297 395.509 648.808C394.619 650.316 393.907 651.837 393.341 653.36C392.856 654.968 392.54 656.598 392.331 658.206C391.92 661.424 392.004 664.59 392.367 667.683C392.706 670.753 393.641 674.016 394.473 677.025C395.365 679.991 396.256 682.947 397.123 685.835C397.944 688.657 398.949 691.588 399.465 694.282C399.742 695.645 399.941 696.975 400.025 698.286C400.102 699.586 400.068 700.86 400.094 702.233C400.039 704.923 399.462 707.534 398.087 710.194C397.081 713.018 395.569 715.217 393.646 717.077C392.631 717.988 391.725 718.881 390.728 719.705C389.716 720.522 388.613 721.282 387.431 722.001C385.121 723.439 382.301 724.681 379.693 725.982C377 727.298 374.242 728.64 371.482 729.987C368.728 731.408 365.713 732.927 363.247 734.755C360.748 736.573 358.384 738.668 356.32 741.152C355.289 742.394 354.32 743.731 353.472 745.183C352.746 746.636 352.127 748.196 351.627 749.877C351.131 751.558 350.755 753.36 350.531 755.287C350.437 756.247 350.305 757.24 350.34 758.257C350.399 759.274 350.493 760.316 350.638 761.388C350.92 763.538 351.344 765.535 351.894 767.372C352.169 768.295 352.477 769.177 352.81 770.022C353.16 770.866 353.638 771.647 354.087 772.407C355.932 775.44 358.141 777.898 360.565 779.899C365.645 783.843 371.908 785.876 377.742 787.5C384.038 788.953 389.925 790.027 395.101 791.824C397.794 792.674 400.234 793.736 402.329 795.238C402.865 795.607 403.332 796.031 403.864 796.435C404.412 796.824 404.94 797.244 405.448 797.701C406.458 798.614 407.385 799.66 408.228 800.892C408.652 801.51 409.023 802.127 409.354 802.757C409.698 803.38 410.1 803.924 410.402 804.531C411.034 805.713 411.506 806.94 411.851 808.215C412.195 809.49 412.412 810.813 412.534 812.183C412.741 813.466 412.87 814.779 412.912 816.155C413.003 818.892 412.803 821.821 412.506 824.886C412.191 827.978 412.05 830.893 411.856 834.063C411.697 837.199 411.629 840.414 411.854 843.65C412.074 846.889 412.809 849.834 413.916 852.877C414.485 854.376 415.173 855.861 416.004 857.32C416.826 858.786 417.796 860.222 419.038 861.412C421.464 863.895 424.557 866.177 428.408 868.107C432.417 869.657 436.178 870.411 439.629 870.526C441.338 870.639 443.043 870.387 444.672 870.006C446.293 869.639 447.842 869.143 449.32 868.542C452.287 867.302 454.925 865.854 457.441 863.825C459.946 861.8 462.248 859.571 464.417 857.33C466.597 855.031 468.628 852.952 470.66 850.622C472.696 848.326 474.69 846.193 476.748 844.403C477.775 843.504 478.818 842.711 479.896 841.993C480.974 841.16 482.084 840.422 483.25 839.816C484.414 839.207 485.628 838.724 486.917 838.39C487.562 838.21 488.233 838.132 488.918 837.971C489.597 837.787 490.305 837.649 491.038 837.54C492.503 837.332 493.895 837.31 495.245 837.447C495.924 837.514 496.588 837.623 497.244 837.76C497.894 837.882 498.525 837.939 499.157 838.088C501.67 838.625 504.097 839.718 506.537 841.143C511.353 843.768 516.132 847.412 521.455 851.106C526.587 854.336 532.31 857.606 538.628 858.709C541.731 859.153 545.013 859.126 548.471 858.441C549.329 858.256 550.229 858.079 551.081 857.773C551.92 857.449 552.77 857.075 553.628 856.655C555.339 855.816 557.084 854.781 558.838 853.538C559.713 852.914 560.543 852.279 561.317 851.631C562.083 850.967 562.72 850.197 563.357 849.475C564.604 848.004 565.662 846.509 566.549 844.998C567.439 843.49 568.154 841.968 568.717 840.446C569.201 838.838 569.522 837.206 569.733 835.605C570.138 832.386 570.061 829.213 569.695 826.122C569.355 823.049 568.421 819.788 567.585 816.781C566.693 813.815 565.804 810.858 564.937 807.97C564.118 805.148 563.112 802.217 562.595 799.52C562.316 798.161 562.12 796.83 562.035 795.519C561.961 794.223 561.99 792.946 561.969 791.571C562.025 788.88 562.602 786.269 563.977 783.617C564.98 780.791 566.492 778.588 568.411 776.73C569.432 775.813 570.338 774.927 571.334 774.102C572.346 773.282 573.448 772.525 574.627 771.804C576.942 770.364 579.759 769.125 582.367 767.82C585.058 766.507 587.82 765.165 590.58 763.817C593.339 762.399 596.346 760.881 598.813 759.053C601.315 757.228 603.68 755.138 605.745 752.651C606.769 751.412 607.742 750.071 608.585 748.623C609.311 747.173 609.936 745.61 610.431 743.929C610.933 742.245 611.303 740.446 611.529 738.523C611.628 737.561 611.756 736.564 611.718 735.549C611.665 734.535 611.566 733.491 611.426 732.416C611.143 730.268 610.713 728.271 610.165 726.431C609.892 725.515 609.584 724.628 609.254 723.782C608.898 722.94 608.42 722.159 607.972 721.398C606.131 718.364 603.922 715.905 601.498 713.905L601.498 713.906Z"/>
</mask>
<path d="M601.498 713.906C596.414 709.964 590.155 707.932 584.321 706.308C578.026 704.86 572.138 703.779 566.962 701.982C564.267 701.133 561.829 700.069 559.729 698.569C559.193 698.201 558.726 697.776 558.199 697.375C557.65 696.982 557.124 696.561 556.615 696.106C555.599 695.193 554.672 694.145 553.833 692.917C553.412 692.3 553.039 691.676 552.708 691.049C552.361 690.432 551.966 689.883 551.662 689.281C551.028 688.091 550.557 686.865 550.212 685.593C549.863 684.317 549.646 682.994 549.524 681.625C549.318 680.342 549.188 679.029 549.145 677.652C549.056 674.915 549.264 671.986 549.556 668.92C549.872 665.83 550.012 662.92 550.207 659.743C550.369 656.613 550.433 653.394 550.207 650.154C549.987 646.916 549.249 643.973 548.146 640.929C547.578 639.43 546.89 637.947 546.06 636.492C545.236 635.018 544.265 633.587 543.023 632.397C540.599 629.91 537.502 627.63 533.656 625.702C529.644 624.149 525.88 623.396 522.433 623.279C520.719 623.168 519.02 623.419 517.392 623.804C515.767 624.172 514.221 624.663 512.742 625.263C509.775 626.503 507.134 627.953 504.624 629.98C502.113 632.012 499.816 634.234 497.641 636.477C495.465 638.775 493.436 640.853 491.398 643.185C489.367 645.479 487.372 647.612 485.315 649.402C484.288 650.302 483.244 651.095 482.166 651.813C481.085 652.65 479.974 653.386 478.814 653.993C477.648 654.599 476.437 655.08 475.146 655.414C474.499 655.595 473.829 655.672 473.144 655.833C472.461 656.018 471.759 656.162 471.026 656.263C469.56 656.472 468.163 656.496 466.814 656.359C466.14 656.295 465.475 656.183 464.818 656.044C464.163 655.924 463.539 655.865 462.905 655.717C460.392 655.179 457.966 654.087 455.521 652.663C450.71 650.038 445.932 646.392 440.611 642.702C435.472 639.469 429.748 636.2 423.434 635.1C420.332 634.652 417.046 634.677 413.586 635.365C412.729 635.55 411.835 635.724 410.981 636.031C410.143 636.36 409.292 636.729 408.434 637.149C406.721 637.991 404.979 639.022 403.224 640.266C402.347 640.891 401.52 641.525 400.745 642.173C399.981 642.836 399.342 643.608 398.707 644.328C397.46 645.8 396.396 647.297 395.509 648.808C394.619 650.316 393.907 651.837 393.341 653.36C392.856 654.968 392.54 656.598 392.331 658.206C391.92 661.424 392.004 664.59 392.367 667.683C392.706 670.753 393.641 674.016 394.473 677.025C395.365 679.991 396.256 682.947 397.123 685.835C397.944 688.657 398.949 691.588 399.465 694.282C399.742 695.645 399.941 696.975 400.025 698.286C400.102 699.586 400.068 700.86 400.094 702.233C400.039 704.923 399.462 707.534 398.087 710.194C397.081 713.018 395.569 715.217 393.646 717.077C392.631 717.988 391.725 718.881 390.728 719.705C389.716 720.522 388.613 721.282 387.431 722.001C385.121 723.439 382.301 724.681 379.693 725.982C377 727.298 374.242 728.64 371.482 729.987C368.728 731.408 365.713 732.927 363.247 734.755C360.748 736.573 358.384 738.668 356.32 741.152C355.289 742.394 354.32 743.731 353.472 745.183C352.746 746.636 352.127 748.196 351.627 749.877C351.131 751.558 350.755 753.36 350.531 755.287C350.437 756.247 350.305 757.24 350.34 758.257C350.399 759.274 350.493 760.316 350.638 761.388C350.92 763.538 351.344 765.535 351.894 767.372C352.169 768.295 352.477 769.177 352.81 770.022C353.16 770.866 353.638 771.647 354.087 772.407C355.932 775.44 358.141 777.898 360.565 779.899C365.645 783.843 371.908 785.876 377.742 787.5C384.038 788.953 389.925 790.027 395.101 791.824C397.794 792.674 400.234 793.736 402.329 795.238C402.865 795.607 403.332 796.031 403.864 796.435C404.412 796.824 404.94 797.244 405.448 797.701C406.458 798.614 407.385 799.66 408.228 800.892C408.652 801.51 409.023 802.127 409.354 802.757C409.698 803.38 410.1 803.924 410.402 804.531C411.034 805.713 411.506 806.94 411.851 808.215C412.195 809.49 412.412 810.813 412.534 812.183C412.741 813.466 412.87 814.779 412.912 816.155C413.003 818.892 412.803 821.821 412.506 824.886C412.191 827.978 412.05 830.893 411.856 834.063C411.697 837.199 411.629 840.414 411.854 843.65C412.074 846.889 412.809 849.834 413.916 852.877C414.485 854.376 415.173 855.861 416.004 857.32C416.826 858.786 417.796 860.222 419.038 861.412C421.464 863.895 424.557 866.177 428.408 868.107C432.417 869.657 436.178 870.411 439.629 870.526C441.338 870.639 443.043 870.387 444.672 870.006C446.293 869.639 447.842 869.143 449.32 868.542C452.287 867.302 454.925 865.854 457.441 863.825C459.946 861.8 462.248 859.571 464.417 857.33C466.597 855.031 468.628 852.952 470.66 850.622C472.696 848.326 474.69 846.193 476.748 844.403C477.775 843.504 478.818 842.711 479.896 841.993C480.974 841.16 482.084 840.422 483.25 839.816C484.414 839.207 485.628 838.724 486.917 838.39C487.562 838.21 488.233 838.132 488.918 837.971C489.597 837.787 490.305 837.649 491.038 837.54C492.503 837.332 493.895 837.31 495.245 837.447C495.924 837.514 496.588 837.623 497.244 837.76C497.894 837.882 498.525 837.939 499.157 838.088C501.67 838.625 504.097 839.718 506.537 841.143C511.353 843.768 516.132 847.412 521.455 851.106C526.587 854.336 532.31 857.606 538.628 858.709C541.731 859.153 545.013 859.126 548.471 858.441C549.329 858.256 550.229 858.079 551.081 857.773C551.92 857.449 552.77 857.075 553.628 856.655C555.339 855.816 557.084 854.781 558.838 853.538C559.713 852.914 560.543 852.279 561.317 851.631C562.083 850.967 562.72 850.197 563.357 849.475C564.604 848.004 565.662 846.509 566.549 844.998C567.439 843.49 568.154 841.968 568.717 840.446C569.201 838.838 569.522 837.206 569.733 835.605C570.138 832.386 570.061 829.213 569.695 826.122C569.355 823.049 568.421 819.788 567.585 816.781C566.693 813.815 565.804 810.858 564.937 807.97C564.118 805.148 563.112 802.217 562.595 799.52C562.316 798.161 562.12 796.83 562.035 795.519C561.961 794.223 561.99 792.946 561.969 791.571C562.025 788.88 562.602 786.269 563.977 783.617C564.98 780.791 566.492 778.588 568.411 776.73C569.432 775.813 570.338 774.927 571.334 774.102C572.346 773.282 573.448 772.525 574.627 771.804C576.942 770.364 579.759 769.125 582.367 767.82C585.058 766.507 587.82 765.165 590.58 763.817C593.339 762.399 596.346 760.881 598.813 759.053C601.315 757.228 603.68 755.138 605.745 752.651C606.769 751.412 607.742 750.071 608.585 748.623C609.311 747.173 609.936 745.61 610.431 743.929C610.933 742.245 611.303 740.446 611.529 738.523C611.628 737.561 611.756 736.564 611.718 735.549C611.665 734.535 611.566 733.491 611.426 732.416C611.143 730.268 610.713 728.271 610.165 726.431C609.892 725.515 609.584 724.628 609.254 723.782C608.898 722.94 608.42 722.159 607.972 721.398C606.131 718.364 603.922 715.905 601.498 713.905L601.498 713.906Z" fill="#862D91" stroke="#862D91" stroke-width="2" mask="url(#path-14-inside-2)"/>
<path d="M95.1113 3425.79C35.0618 3420.82 -17.8349 3467.21 -23.0183 3529.41C-28.2028 3591.63 16.2897 3646.1 76.3392 3651.08C136.399 3656.06 189.284 3609.67 194.469 3547.45C199.652 3485.24 155.171 3430.77 95.1113 3425.79ZM481.441 3591.67C470.866 3607.32 457.395 3619.65 443.636 3629.85C430.333 3640.14 414.696 3647.78 400.229 3654.51C370.64 3667.76 340.535 3675.56 314.196 3685.51C286.775 3694.97 264.244 3706.6 240.417 3727.84C216.257 3748.67 201.465 3769.81 187.941 3796.26C174.126 3821.53 161.726 3851.03 144.218 3879.09C135.438 3892.73 125.583 3907.48 113.585 3919.38C101.592 3931.74 87.6429 3943.49 71.0015 3951.73C38.0484 3969.23 -7.09485 3976.32 -60.3101 3956.95C-113.392 3937.09 -143.851 3901.76 -158.856 3867.11C-166.238 3849.42 -169.897 3831.36 -171.705 3814.28C-172.802 3796.49 -171.942 3779.4 -170.283 3763.18C-167.922 3746.35 -164.766 3730.35 -161.875 3715.27C-158.212 3699.57 -155.054 3684.9 -152.543 3670.59C-146.884 3641.43 -144.786 3615.21 -150.452 3583.52C-155.731 3551.79 -166.746 3527.8 -181.106 3502.66C-188.529 3490.67 -196.455 3477.79 -204.734 3464.36C-213.52 3451 -220.872 3437.44 -228.616 3422.58C-243.425 3393.03 -254.601 3359.55 -252.569 3320.76C-249.797 3282.95 -233.29 3238.33 -190.411 3200.33C-147.161 3162.77 -101.958 3153.25 -65.5422 3156.68C-28.2812 3161.02 1.74811 3177.94 27.3958 3197.99C40.2807 3208.37 51.9617 3218.13 63.2098 3229.3C74.6351 3239.96 85.5761 3250.22 95.7694 3259.79C117.317 3278.62 138.318 3293.85 167.665 3304.47C196.906 3315.51 222.177 3317.69 250.839 3316.72C264.891 3316.52 279.366 3315.71 294.914 3314.56C309.743 3314.11 325.507 3313.51 341.903 3313.88C357.612 3314.86 374.011 3316.79 390.751 3320.87C406.725 3325.54 423.286 3332.29 438.905 3342.73C469.4 3363.8 498.008 3400.77 508.116 3458.31C517.77 3515.91 503.558 3560.88 481.441 3591.67" fill="#80C342"/>
<path d="M481.441 3591.67C470.866 3607.32 457.395 3619.65 443.636 3629.85C430.333 3640.14 414.696 3647.78 400.229 3654.51C370.64 3667.76 340.535 3675.56 314.196 3685.51C286.775 3694.97 264.244 3706.6 240.417 3727.84C216.257 3748.67 201.465 3769.81 187.941 3796.26C174.126 3821.53 161.726 3851.03 144.218 3879.09C135.438 3892.73 125.583 3907.48 113.585 3919.38C101.592 3931.74 87.6429 3943.49 71.0015 3951.73C38.0484 3969.23 -7.09485 3976.32 -60.3101 3956.95C-113.392 3937.09 -143.851 3901.76 -158.856 3867.11C-166.238 3849.42 -169.897 3831.36 -171.705 3814.28C-172.802 3796.49 -171.942 3779.4 -170.283 3763.18C-167.922 3746.35 -164.766 3730.35 -161.875 3715.27C-158.212 3699.57 -155.054 3684.9 -152.543 3670.59C-146.884 3641.43 -144.786 3615.21 -150.452 3583.52C-155.731 3551.79 -166.746 3527.8 -181.106 3502.66C-188.529 3490.67 -196.455 3477.79 -204.734 3464.36C-213.52 3451 -220.872 3437.44 -228.616 3422.58C-243.425 3393.03 -254.601 3359.55 -252.569 3320.76C-249.797 3282.95 -233.29 3238.33 -190.411 3200.33C-147.161 3162.77 -101.958 3153.25 -65.5422 3156.68C-28.2812 3161.02 1.74811 3177.94 27.3958 3197.99C40.2807 3208.37 51.9617 3218.13 63.2098 3229.3C74.6351 3239.96 85.5761 3250.22 95.7694 3259.79C117.317 3278.62 138.318 3293.85 167.665 3304.47C196.906 3315.51 222.177 3317.69 250.839 3316.72C264.891 3316.52 279.366 3315.71 294.914 3314.56C309.743 3314.11 325.507 3313.51 341.903 3313.88C357.612 3314.86 374.011 3316.79 390.751 3320.87C406.725 3325.54 423.286 3332.29 438.905 3342.73C469.4 3363.8 498.008 3400.77 508.116 3458.31C517.77 3515.91 503.558 3560.88 481.441 3591.67M95.1113 3425.79C35.0618 3420.82 -17.8349 3467.21 -23.0183 3529.41C-28.2028 3591.63 16.2897 3646.1 76.3392 3651.08C136.399 3656.06 189.284 3609.67 194.469 3547.45C199.652 3485.24 155.171 3430.77 95.1113 3425.79Z" stroke="#80C342"/>
<mask id="path-17-inside-3" fill="white">
<path d="M3.75711 3070.25C-8.72576 3084.49 -15.8032 3102.51 -21.6099 3119.36C-26.9802 3137.59 -31.1997 3154.69 -37.3969 3169.58C-40.3691 3177.34 -43.9242 3184.31 -48.7034 3190.21C-49.8802 3191.72 -51.2104 3193.02 -52.4818 3194.5C-53.7329 3196.04 -55.0634 3197.51 -56.4893 3198.92C-59.3517 3201.74 -62.5959 3204.28 -66.3517 3206.53C-68.238 3207.66 -70.1357 3208.64 -72.0386 3209.5C-73.912 3210.41 -75.5937 3211.47 -77.4151 3212.26C-81.0245 3213.91 -84.7076 3215.08 -88.5059 3215.86C-92.3148 3216.66 -96.239 3217.06 -100.283 3217.18C-104.088 3217.56 -107.967 3217.71 -112.017 3217.59C-120.072 3217.36 -128.64 3216.23 -137.592 3214.83C-146.611 3213.36 -155.135 3212.43 -164.432 3211.29C-173.596 3210.26 -183.04 3209.5 -192.596 3209.59C-202.144 3209.66 -210.918 3211.3 -220.057 3214C-224.559 3215.41 -229.039 3217.17 -233.459 3219.34C-237.934 3221.5 -242.31 3224.1 -246.025 3227.54C-253.758 3234.22 -261.007 3242.91 -267.351 3253.86C-272.625 3265.37 -275.504 3276.29 -276.459 3286.39C-277.09 3291.41 -276.655 3296.44 -275.814 3301.29C-275.019 3306.13 -273.854 3310.76 -272.352 3315.21C-269.237 3324.14 -265.448 3332.16 -259.939 3339.89C-254.417 3347.63 -248.297 3354.77 -242.094 3361.55C-235.731 3368.35 -229.989 3374.68 -223.502 3381.08C-217.123 3387.45 -211.212 3393.69 -206.32 3400.05C-203.86 3403.23 -201.717 3406.44 -199.8 3409.73C-197.532 3413.05 -195.569 3416.45 -193.989 3419.96C-192.417 3423.49 -191.219 3427.14 -190.466 3430.99C-190.052 3432.92 -189.944 3434.9 -189.592 3436.94C-189.169 3438.98 -188.873 3441.07 -188.705 3443.24C-188.352 3447.58 -188.53 3451.69 -189.172 3455.63C-189.479 3457.59 -189.925 3459.53 -190.45 3461.43C-190.919 3463.33 -191.204 3465.16 -191.751 3466.99C-193.777 3474.28 -197.416 3481.21 -202.03 3488.14C-210.594 3501.8 -222.152 3515.19 -233.935 3530.16C-244.341 3544.68 -254.959 3560.92 -259.309 3579.27C-261.178 3588.3 -261.685 3597.95 -260.28 3608.24C-259.889 3610.79 -259.535 3613.44 -258.786 3616.01C-257.968 3618.53 -257.035 3621.09 -255.954 3623.69C-253.784 3628.87 -251.065 3634.17 -247.723 3639.54C-246.044 3642.23 -244.328 3644.77 -242.563 3647.16C-240.751 3649.52 -238.598 3651.54 -236.595 3653.53C-232.494 3657.45 -228.285 3660.84 -224.004 3663.72C-219.734 3666.6 -215.392 3668.96 -211.021 3670.89C-206.383 3672.6 -201.65 3673.82 -196.965 3674.72C-187.586 3676.5 -178.273 3676.81 -169.125 3676.3C-160.046 3675.85 -150.297 3673.68 -141.311 3671.77C-132.442 3669.67 -123.6 3667.58 -114.966 3665.55C-106.531 3663.64 -97.7435 3661.21 -89.7388 3660.17C-85.6859 3659.6 -81.7453 3659.25 -77.8792 3659.23C-74.049 3659.24 -70.3129 3659.57 -66.2743 3659.73C-58.3824 3660.37 -50.8155 3662.53 -43.2474 3667.04C-35.1321 3670.5 -28.9429 3675.33 -23.8214 3681.31C-21.3245 3684.45 -18.8614 3687.27 -16.6195 3690.34C-14.3994 3693.46 -12.3629 3696.84 -10.4593 3700.43C-6.64568 3707.48 -3.5005 3715.98 -0.139968 3723.87C3.24693 3732.01 6.6991 3740.35 10.1652 3748.7C13.8505 3757.04 17.7765 3766.16 22.7061 3773.73C27.6044 3781.39 33.3358 3788.71 40.2662 3795.21C43.7308 3798.46 47.4868 3801.54 51.6009 3804.29C55.7391 3806.68 60.2126 3808.77 65.0601 3810.54C69.9108 3812.3 75.1347 3813.72 80.757 3814.72C83.5579 3815.17 86.4529 3815.73 89.4452 3815.81C92.4421 3815.82 95.5206 3815.73 98.6932 3815.49C105.06 3815.04 111 3814.15 116.494 3812.87C119.251 3812.22 121.897 3811.47 124.44 3810.64C126.979 3809.77 129.358 3808.5 131.672 3807.32C140.907 3802.43 148.519 3796.38 154.825 3789.62C167.312 3775.4 174.393 3757.36 180.2 3740.52C185.583 3722.28 189.782 3705.18 195.98 3690.3C198.953 3682.54 202.507 3675.56 207.29 3669.68C208.468 3668.17 209.797 3666.87 211.079 3665.38C212.317 3663.84 213.644 3662.36 215.079 3660.95C217.94 3658.15 221.177 3655.61 224.942 3653.35C226.834 3652.22 228.712 3651.24 230.622 3650.38C232.512 3649.48 234.18 3648.39 236.018 3647.61C239.601 3645.97 243.29 3644.8 247.095 3644.01C250.902 3643.23 254.825 3642.82 258.871 3642.71C262.675 3642.33 266.555 3642.18 270.605 3642.3C278.658 3642.52 287.226 3643.63 296.176 3645.05C305.202 3646.52 313.74 3647.45 323.015 3648.58C332.198 3649.61 341.63 3650.38 351.173 3650.29C360.727 3650.22 369.505 3648.58 378.64 3645.87C383.142 3644.47 387.628 3642.71 392.062 3640.53C396.511 3638.37 400.903 3635.78 404.617 3632.34C412.341 3625.66 419.593 3616.98 425.946 3606.01C431.208 3594.51 434.091 3583.6 435.042 3573.48C435.678 3568.48 435.237 3563.43 434.41 3558.58C433.618 3553.75 432.436 3549.12 430.935 3544.67C427.819 3535.73 424.034 3527.73 418.52 3519.98C413.018 3512.26 406.878 3505.1 400.681 3498.33C394.315 3491.52 388.57 3485.19 382.089 3478.81C375.705 3472.42 369.795 3466.19 364.903 3459.82C362.443 3456.65 360.301 3453.44 358.383 3450.15C356.127 3446.84 354.156 3443.44 352.585 3439.91C351 3436.38 349.8 3432.73 349.045 3428.89C348.632 3426.96 348.523 3424.98 348.171 3422.94C347.752 3420.91 347.471 3418.8 347.282 3416.63C346.931 3412.29 347.114 3408.2 347.755 3404.26C348.071 3402.28 348.51 3400.35 349.029 3398.44C349.503 3396.56 349.781 3394.71 350.331 3392.88C352.356 3385.6 355.995 3378.66 360.614 3371.75C369.18 3358.07 380.729 3344.68 392.524 3329.7C402.922 3315.2 413.542 3298.97 417.904 3280.61C419.757 3271.58 420.26 3261.93 418.864 3251.65C418.473 3249.1 418.113 3246.43 417.365 3243.87C416.561 3241.35 415.614 3238.78 414.532 3236.19C412.371 3231.02 409.643 3225.71 406.302 3220.33C404.626 3217.65 402.906 3215.1 401.142 3212.71C399.328 3210.35 397.177 3208.34 395.172 3206.34C391.071 3202.42 386.868 3199.04 382.587 3196.17C378.316 3193.29 373.972 3190.92 369.604 3188.99C364.967 3187.29 360.23 3186.06 355.563 3185.15C346.183 3183.39 336.849 3183.05 327.704 3183.58C318.619 3184.03 308.876 3186.2 299.894 3188.12C291.025 3190.21 282.181 3192.3 273.546 3194.33C265.11 3196.24 256.323 3198.67 248.312 3199.71C244.269 3200.29 240.325 3200.63 236.461 3200.65C232.642 3200.63 228.896 3200.32 224.853 3200.14C216.959 3199.5 209.393 3197.34 201.846 3192.83C193.726 3189.38 187.523 3184.55 182.406 3178.58C179.895 3175.42 177.454 3172.61 175.206 3169.54C172.978 3166.42 170.951 3163.05 169.042 3159.45C165.224 3152.4 162.084 3143.91 158.713 3136.01C155.335 3127.88 151.882 3119.53 148.414 3111.18C144.738 3102.83 140.814 3093.72 135.882 3086.15C130.967 3078.48 125.249 3071.17 118.31 3064.66C114.853 3061.43 111.085 3058.34 106.983 3055.6C102.851 3053.21 98.3726 3051.1 93.5226 3049.35C88.6661 3047.57 83.449 3046.17 77.8386 3045.16C75.0331 3044.7 72.1265 3044.15 69.1383 3044.08C66.1497 3044.06 63.0683 3044.16 59.8838 3044.38C53.5253 3044.83 47.5831 3045.74 42.0812 3047.02C39.3432 3047.66 36.6827 3048.41 34.1385 3049.23C31.6037 3050.12 29.2251 3051.39 26.9108 3052.57C17.6716 3057.44 10.0592 3063.49 3.75342 3070.26L3.75711 3070.25Z"/>
</mask>
<path d="M3.75711 3070.25C-8.72576 3084.49 -15.8032 3102.51 -21.6099 3119.36C-26.9802 3137.59 -31.1997 3154.69 -37.3969 3169.58C-40.3691 3177.34 -43.9242 3184.31 -48.7034 3190.21C-49.8802 3191.72 -51.2104 3193.02 -52.4818 3194.5C-53.7329 3196.04 -55.0634 3197.51 -56.4893 3198.92C-59.3517 3201.74 -62.5959 3204.28 -66.3517 3206.53C-68.238 3207.66 -70.1357 3208.64 -72.0386 3209.5C-73.912 3210.41 -75.5937 3211.47 -77.4151 3212.26C-81.0245 3213.91 -84.7076 3215.08 -88.5059 3215.86C-92.3148 3216.66 -96.239 3217.06 -100.283 3217.18C-104.088 3217.56 -107.967 3217.71 -112.017 3217.59C-120.072 3217.36 -128.64 3216.23 -137.592 3214.83C-146.611 3213.36 -155.135 3212.43 -164.432 3211.29C-173.596 3210.26 -183.04 3209.5 -192.596 3209.59C-202.144 3209.66 -210.918 3211.3 -220.057 3214C-224.559 3215.41 -229.039 3217.17 -233.459 3219.34C-237.934 3221.5 -242.31 3224.1 -246.025 3227.54C-253.758 3234.22 -261.007 3242.91 -267.351 3253.86C-272.625 3265.37 -275.504 3276.29 -276.459 3286.39C-277.09 3291.41 -276.655 3296.44 -275.814 3301.29C-275.019 3306.13 -273.854 3310.76 -272.352 3315.21C-269.237 3324.14 -265.448 3332.16 -259.939 3339.89C-254.417 3347.63 -248.297 3354.77 -242.094 3361.55C-235.731 3368.35 -229.989 3374.68 -223.502 3381.08C-217.123 3387.45 -211.212 3393.69 -206.32 3400.05C-203.86 3403.23 -201.717 3406.44 -199.8 3409.73C-197.532 3413.05 -195.569 3416.45 -193.989 3419.96C-192.417 3423.49 -191.219 3427.14 -190.466 3430.99C-190.052 3432.92 -189.944 3434.9 -189.592 3436.94C-189.169 3438.98 -188.873 3441.07 -188.705 3443.24C-188.352 3447.58 -188.53 3451.69 -189.172 3455.63C-189.479 3457.59 -189.925 3459.53 -190.45 3461.43C-190.919 3463.33 -191.204 3465.16 -191.751 3466.99C-193.777 3474.28 -197.416 3481.21 -202.03 3488.14C-210.594 3501.8 -222.152 3515.19 -233.935 3530.16C-244.341 3544.68 -254.959 3560.92 -259.309 3579.27C-261.178 3588.3 -261.685 3597.95 -260.28 3608.24C-259.889 3610.79 -259.535 3613.44 -258.786 3616.01C-257.968 3618.53 -257.035 3621.09 -255.954 3623.69C-253.784 3628.87 -251.065 3634.17 -247.723 3639.54C-246.044 3642.23 -244.328 3644.77 -242.563 3647.16C-240.751 3649.52 -238.598 3651.54 -236.595 3653.53C-232.494 3657.45 -228.285 3660.84 -224.004 3663.72C-219.734 3666.6 -215.392 3668.96 -211.021 3670.89C-206.383 3672.6 -201.65 3673.82 -196.965 3674.72C-187.586 3676.5 -178.273 3676.81 -169.125 3676.3C-160.046 3675.85 -150.297 3673.68 -141.311 3671.77C-132.442 3669.67 -123.6 3667.58 -114.966 3665.55C-106.531 3663.64 -97.7435 3661.21 -89.7388 3660.17C-85.6859 3659.6 -81.7453 3659.25 -77.8792 3659.23C-74.049 3659.24 -70.3129 3659.57 -66.2743 3659.73C-58.3824 3660.37 -50.8155 3662.53 -43.2474 3667.04C-35.1321 3670.5 -28.9429 3675.33 -23.8214 3681.31C-21.3245 3684.45 -18.8614 3687.27 -16.6195 3690.34C-14.3994 3693.46 -12.3629 3696.84 -10.4593 3700.43C-6.64568 3707.48 -3.5005 3715.98 -0.139968 3723.87C3.24693 3732.01 6.6991 3740.35 10.1652 3748.7C13.8505 3757.04 17.7765 3766.16 22.7061 3773.73C27.6044 3781.39 33.3358 3788.71 40.2662 3795.21C43.7308 3798.46 47.4868 3801.54 51.6009 3804.29C55.7391 3806.68 60.2126 3808.77 65.0601 3810.54C69.9108 3812.3 75.1347 3813.72 80.757 3814.72C83.5579 3815.17 86.4529 3815.73 89.4452 3815.81C92.4421 3815.82 95.5206 3815.73 98.6932 3815.49C105.06 3815.04 111 3814.15 116.494 3812.87C119.251 3812.22 121.897 3811.47 124.44 3810.64C126.979 3809.77 129.358 3808.5 131.672 3807.32C140.907 3802.43 148.519 3796.38 154.825 3789.62C167.312 3775.4 174.393 3757.36 180.2 3740.52C185.583 3722.28 189.782 3705.18 195.98 3690.3C198.953 3682.54 202.507 3675.56 207.29 3669.68C208.468 3668.17 209.797 3666.87 211.079 3665.38C212.317 3663.84 213.644 3662.36 215.079 3660.95C217.94 3658.15 221.177 3655.61 224.942 3653.35C226.834 3652.22 228.712 3651.24 230.622 3650.38C232.512 3649.48 234.18 3648.39 236.018 3647.61C239.601 3645.97 243.29 3644.8 247.095 3644.01C250.902 3643.23 254.825 3642.82 258.871 3642.71C262.675 3642.33 266.555 3642.18 270.605 3642.3C278.658 3642.52 287.226 3643.63 296.176 3645.05C305.202 3646.52 313.74 3647.45 323.015 3648.58C332.198 3649.61 341.63 3650.38 351.173 3650.29C360.727 3650.22 369.505 3648.58 378.64 3645.87C383.142 3644.47 387.628 3642.71 392.062 3640.53C396.511 3638.37 400.903 3635.78 404.617 3632.34C412.341 3625.66 419.593 3616.98 425.946 3606.01C431.208 3594.51 434.091 3583.6 435.042 3573.48C435.678 3568.48 435.237 3563.43 434.41 3558.58C433.618 3553.75 432.436 3549.12 430.935 3544.67C427.819 3535.73 424.034 3527.73 418.52 3519.98C413.018 3512.26 406.878 3505.1 400.681 3498.33C394.315 3491.52 388.57 3485.19 382.089 3478.81C375.705 3472.42 369.795 3466.19 364.903 3459.82C362.443 3456.65 360.301 3453.44 358.383 3450.15C356.127 3446.84 354.156 3443.44 352.585 3439.91C351 3436.38 349.8 3432.73 349.045 3428.89C348.632 3426.96 348.523 3424.98 348.171 3422.94C347.752 3420.91 347.471 3418.8 347.282 3416.63C346.931 3412.29 347.114 3408.2 347.755 3404.26C348.071 3402.28 348.51 3400.35 349.029 3398.44C349.503 3396.56 349.781 3394.71 350.331 3392.88C352.356 3385.6 355.995 3378.66 360.614 3371.75C369.18 3358.07 380.729 3344.68 392.524 3329.7C402.922 3315.2 413.542 3298.97 417.904 3280.61C419.757 3271.58 420.26 3261.93 418.864 3251.65C418.473 3249.1 418.113 3246.43 417.365 3243.87C416.561 3241.35 415.614 3238.78 414.532 3236.19C412.371 3231.02 409.643 3225.71 406.302 3220.33C404.626 3217.65 402.906 3215.1 401.142 3212.71C399.328 3210.35 397.177 3208.34 395.172 3206.34C391.071 3202.42 386.868 3199.04 382.587 3196.17C378.316 3193.29 373.972 3190.92 369.604 3188.99C364.967 3187.29 360.23 3186.06 355.563 3185.15C346.183 3183.39 336.849 3183.05 327.704 3183.58C318.619 3184.03 308.876 3186.2 299.894 3188.12C291.025 3190.21 282.181 3192.3 273.546 3194.33C265.11 3196.24 256.323 3198.67 248.312 3199.71C244.269 3200.29 240.325 3200.63 236.461 3200.65C232.642 3200.63 228.896 3200.32 224.853 3200.14C216.959 3199.5 209.393 3197.34 201.846 3192.83C193.726 3189.38 187.523 3184.55 182.406 3178.58C179.895 3175.42 177.454 3172.61 175.206 3169.54C172.978 3166.42 170.951 3163.05 169.042 3159.45C165.224 3152.4 162.084 3143.91 158.713 3136.01C155.335 3127.88 151.882 3119.53 148.414 3111.18C144.738 3102.83 140.814 3093.72 135.882 3086.15C130.967 3078.48 125.249 3071.17 118.31 3064.66C114.853 3061.43 111.085 3058.34 106.983 3055.6C102.851 3053.21 98.3726 3051.1 93.5226 3049.35C88.6661 3047.57 83.449 3046.17 77.8386 3045.16C75.0331 3044.7 72.1265 3044.15 69.1383 3044.08C66.1497 3044.06 63.0683 3044.16 59.8838 3044.38C53.5253 3044.83 47.5831 3045.74 42.0812 3047.02C39.3432 3047.66 36.6827 3048.41 34.1385 3049.23C31.6037 3050.12 29.2251 3051.39 26.9108 3052.57C17.6716 3057.44 10.0592 3063.49 3.75342 3070.26L3.75711 3070.25Z" fill="#862D91" stroke="#862D91" stroke-width="2" mask="url(#path-17-inside-3)"/>
</g>
<defs>
<filter id="filter0_i" x="104.594" y="-78.7734" width="160.597" height="154.559" filterUnits="userSpaceOnUse" color-interpolation-filters="sRGB">
<feFlood flood-opacity="0" result="BackgroundImageFix"/>
<feBlend mode="normal" in="SourceGraphic" in2="BackgroundImageFix" result="shape"/>
<feColorMatrix in="SourceAlpha" type="matrix" values="0 0 0 0 0 0 0 0 0 0 0 0 0 0 0 0 0 0 127 0" result="hardAlpha"/>
<feOffset dx="2.43203" dy="0.972814"/>
<feGaussianBlur stdDeviation="0.486407"/>
<feComposite in2="hardAlpha" operator="arithmetic" k2="-1" k3="1"/>
<feColorMatrix type="matrix" values="0 0 0 0 0 0 0 0 0 0 0 0 0 0 0 0 0 0 0.19 0"/>
<feBlend mode="normal" in2="shape" result="effect1_innerShadow"/>
</filter>
<filter id="filter1_i" x="204.221" y="40.3013" width="305.398" height="303.365" filterUnits="userSpaceOnUse" color-interpolation-filters="sRGB">
<feFlood flood-opacity="0" result="BackgroundImageFix"/>
<feBlend mode="normal" in="SourceGraphic" in2="BackgroundImageFix" result="shape"/>
<feColorMatrix in="SourceAlpha" type="matrix" values="0 0 0 0 0 0 0 0 0 0 0 0 0 0 0 0 0 0 127 0" result="hardAlpha"/>
<feOffset dx="10" dy="10"/>
<feGaussianBlur stdDeviation="2"/>
<feComposite in2="hardAlpha" operator="arithmetic" k2="-1" k3="1"/>
<feColorMatrix type="matrix" values="0 0 0 0 0 0 0 0 0 0 0 0 0 0 0 0 0 0 0.25 0"/>
<feBlend mode="normal" in2="shape" result="effect1_innerShadow"/>
</filter>
<filter id="filter2_i" x="-248.884" y="362.495" width="324.778" height="336.863" filterUnits="userSpaceOnUse" color-interpolation-filters="sRGB">
<feFlood flood-opacity="0" result="BackgroundImageFix"/>
<feBlend mode="normal" in="SourceGraphic" in2="BackgroundImageFix" result="shape"/>
<feColorMatrix in="SourceAlpha" type="matrix" values="0 0 0 0 0 0 0 0 0 0 0 0 0 0 0 0 0 0 127 0" result="hardAlpha"/>
<feOffset dx="10" dy="10"/>
<feGaussianBlur stdDeviation="2"/>
<feComposite in2="hardAlpha" operator="arithmetic" k2="-1" k3="1"/>
<feColorMatrix type="matrix" values="0 0 0 0 0 0 0 0 0 0 0 0 0 0 0 0 0 0 0.19 0"/>
<feBlend mode="normal" in2="shape" result="effect1_innerShadow"/>
</filter>
<clipPath id="clip0">
<rect width="414" height="3244" fill="white"/>
</clipPath>
<clipPath id="clip1">
<rect width="67.1218" height="67.1218" fill="white" transform="translate(334.021 157.401)"/>
</clipPath>
</defs>
</svg>
