<svg width="35" height="35" viewBox="0 0 35 35" fill="none" xmlns="http://www.w3.org/2000/svg">
<path fill-rule="evenodd" clip-rule="evenodd" d="M29.75 9.08333C29.75 8.5308 29.5305 8.0009 29.1398 7.61019C28.7491 7.21949 28.2192 7 27.6667 7H2.66666C2.11413 7 1.58422 7.21949 1.19352 7.61019C0.802822 8.0009 0.583332 8.5308 0.583332 9.08333C0.583332 9.63587 0.802822 10.1658 1.19352 10.5565C1.58422 10.9472 2.11413 11.1667 2.66666 11.1667H27.6667C28.2192 11.1667 28.7491 10.9472 29.1398 10.5565C29.5305 10.1658 29.75 9.63587 29.75 9.08333Z" fill="white"/>
<path fill-rule="evenodd" clip-rule="evenodd" d="M29.75 19.4998C29.75 18.9473 29.5305 18.4174 29.1398 18.0267C28.7491 17.636 28.2192 17.4165 27.6667 17.4165H15.1667C14.6141 17.4165 14.0842 17.636 13.6935 18.0267C13.3028 18.4174 13.0833 18.9473 13.0833 19.4998C13.0833 20.0524 13.3028 20.5823 13.6935 20.973C14.0842 21.3637 14.6141 21.5832 15.1667 21.5832H27.6667C28.2192 21.5832 28.7491 21.3637 29.1398 20.973C29.5305 20.5823 29.75 20.0524 29.75 19.4998Z" fill="white"/>
<path fill-rule="evenodd" clip-rule="evenodd" d="M29.75 29.9168C29.75 29.3643 29.5305 28.8344 29.1398 28.4437C28.7491 28.053 28.2192 27.8335 27.6667 27.8335H2.66666C2.11413 27.8335 1.58422 28.053 1.19352 28.4437C0.802822 28.8344 0.583332 29.3643 0.583332 29.9168C0.583332 30.4694 0.802822 30.9993 1.19352 31.39C1.58422 31.7807 2.11413 32.0002 2.66666 32.0002H27.6667C28.2192 32.0002 28.7491 31.7807 29.1398 31.39C29.5305 30.9993 29.75 30.4694 29.75 29.9168Z" fill="white"/>
</svg>
