<svg width="1762" height="779" viewBox="0 0 1762 779" fill="none" xmlns="http://www.w3.org/2000/svg">
<g filter="url(#filter0_i)">
<path d="M804.763 103.921C791.089 141.77 746.509 160.504 705.195 145.754C663.872 131 641.467 88.3506 655.141 50.5019C668.817 12.6469 713.395 -6.07995 754.718 8.67366C796.032 23.4239 818.439 66.0663 804.763 103.921ZM806.975 -178.078C793.977 -176.168 782.295 -171.544 771.891 -166.136C761.562 -161.029 752.277 -153.742 743.902 -146.905C727.106 -132.771 713.65 -116.759 699.878 -103.648C686.12 -89.7386 672.338 -79.4211 652.034 -71.0827C631.905 -62.4215 614.208 -59.5309 593.463 -58.938C573.387 -57.8308 551.005 -58.7959 528.112 -56.2477C516.902 -54.849 504.683 -53.1157 493.691 -49.2616C482.402 -45.5445 470.957 -40.4647 461.005 -32.7422C440.534 -17.7937 423.319 7.54587 420.785 45.3894C418.598 83.2913 432.685 111.927 450.673 130.993C459.936 140.559 470.477 147.972 480.916 153.983C492.002 159.764 503.199 164.16 514.055 167.819C525.5 171.227 536.641 173.917 547.116 176.502C558.205 178.797 568.489 181.1 578.365 183.695C598.634 188.648 616.023 194.918 634.739 207.471C653.589 219.801 665.866 233.381 677.942 249.321C683.542 257.272 695.849 243.06 695.849 274.668C701.94 283.838 704.016 240.352 711.361 249.321C726.139 266.804 769.356 153.659 771.891 249.321C771.891 153.659 813.972 215.884 850.361 200.81C886.573 185.386 876.83 199.572 884.861 176.502C892.545 152.657 908.52 189.14 902.875 167.819C899.842 157.019 925.704 189.824 921.702 179.788C918.086 169.795 914.583 160.208 911.311 151.272C905.3 132.79 901.44 115.674 902.875 94.8199C904.014 73.9124 909.712 57.9593 918.383 40.8564C922.46 32.3935 927.041 23.8462 932.148 14.7506C936.598 5.88563 941.408 -3.50267 945.775 -13.5526C949.564 -23.3584 952.928 -33.8607 955.014 -45.1865C956.508 -56.2173 956.838 -68.2 954.531 -80.6774C949.598 -105.23 933.943 -133.213 899.915 -155.895C865.719 -178.318 832.911 -182.636 806.974 -178.079" fill="#80C342"/>
</g>
<path d="M806.975 -178.078C793.977 -176.168 782.295 -171.544 771.891 -166.136C761.562 -161.029 752.277 -153.742 743.902 -146.905C727.106 -132.771 713.65 -116.759 699.878 -103.648C686.12 -89.7386 672.338 -79.4211 652.034 -71.0827C631.905 -62.4215 614.208 -59.5309 593.463 -58.938C573.387 -57.8308 551.005 -58.7959 528.112 -56.2477C516.902 -54.849 504.683 -53.1157 493.691 -49.2616C482.402 -45.5445 470.957 -40.4647 461.005 -32.7422C440.534 -17.7937 423.319 7.54587 420.785 45.3894C418.598 83.2913 432.685 111.927 450.673 130.993C459.936 140.559 470.477 147.972 480.916 153.983C492.002 159.764 503.199 164.16 514.055 167.819C525.5 171.227 536.641 173.917 547.116 176.502C558.205 178.797 568.489 181.1 578.365 183.695C598.634 188.648 616.023 194.918 634.739 207.471C653.589 219.801 665.866 233.381 677.942 249.321C683.542 257.272 695.849 243.06 695.849 274.668C701.94 283.838 704.016 240.352 711.361 249.321C726.139 266.804 769.356 153.659 771.891 249.321C771.891 153.659 813.972 215.884 850.361 200.81C886.573 185.386 876.83 199.572 884.861 176.502C892.545 152.657 908.52 189.14 902.875 167.819C899.842 157.019 925.704 189.824 921.702 179.788C918.086 169.795 914.583 160.208 911.311 151.272C905.3 132.79 901.44 115.674 902.875 94.8199C904.014 73.9123 909.712 57.9593 918.383 40.8564C922.46 32.3934 927.041 23.8462 932.148 14.7506C936.598 5.88562 941.409 -3.50267 945.775 -13.5526C949.564 -23.3584 952.928 -33.8607 955.014 -45.1865C956.508 -56.2173 956.838 -68.2 954.531 -80.6774C949.598 -105.23 933.943 -133.213 899.915 -155.895C865.719 -178.318 832.911 -182.636 806.974 -178.079M804.763 103.921C791.089 141.77 746.509 160.504 705.195 145.754C663.872 131 641.467 88.3506 655.141 50.5019C668.817 12.6469 713.395 -6.07996 754.718 8.67365C796.032 23.4239 818.439 66.0663 804.763 103.921Z" stroke="#80C342"/>
<path fill-rule="evenodd" clip-rule="evenodd" d="M1455.5 250.019C1604 291.369 1647.01 266.019 1774.5 250.019C1874.27 118.663 1988.71 -345.066 2010.29 -486.617C2031.71 -627.06 2042.84 -768.171 1987.17 -886.166C1930.28 -1006.75 1841.1 -1123.16 1692.34 -1160.53C1547.47 -1196.91 1369.37 -1097.95 1205.46 -1082.5C1043.32 -1067.23 889.559 -1143.3 733.901 -1070.23C578.23 -997.152 503.525 -839.04 410.13 -709.156C321.151 -585.412 192.644 -455.648 200.732 -328.748C208.825 -201.782 499.163 -126.581 550.5 -15.4081C605.839 104.433 428.421 133.693 505 250.019C555.718 327.062 652.5 266.019 802.5 266.019C963.055 266.019 1284.74 202.472 1455.5 250.019Z" fill="#862D91"/>
<defs>
<filter id="filter0_i" x="420.06" y="-180.202" width="540.639" height="460.647" filterUnits="userSpaceOnUse" color-interpolation-filters="sRGB">
<feFlood flood-opacity="0" result="BackgroundImageFix"/>
<feBlend mode="normal" in="SourceGraphic" in2="BackgroundImageFix" result="shape"/>
<feColorMatrix in="SourceAlpha" type="matrix" values="0 0 0 0 0 0 0 0 0 0 0 0 0 0 0 0 0 0 127 0" result="hardAlpha"/>
<feOffset dx="10" dy="4"/>
<feGaussianBlur stdDeviation="2"/>
<feComposite in2="hardAlpha" operator="arithmetic" k2="-1" k3="1"/>
<feColorMatrix type="matrix" values="0 0 0 0 0 0 0 0 0 0 0 0 0 0 0 0 0 0 0.19 0"/>
<feBlend mode="normal" in2="shape" result="effect1_innerShadow"/>
</filter>
</defs>
</svg>
