<svg width="20" height="21" viewBox="0 0 20 21" fill="none" xmlns="http://www.w3.org/2000/svg">
<path d="M17.2583 16.2087L14.425 13.4003C15.3392 12.2425 15.8352 10.8128 15.8333 9.34102C15.8333 8.03024 15.4423 6.7489 14.7098 5.65904C13.9773 4.56917 12.9361 3.71972 11.7179 3.21811C10.4997 2.71649 9.15927 2.58525 7.86607 2.84097C6.57286 3.09669 5.38497 3.72789 4.45262 4.65474C3.52027 5.5816 2.88534 6.76249 2.6281 8.04808C2.37087 9.33367 2.50289 10.6662 3.00747 11.8772C3.51206 13.0882 4.36654 14.1233 5.46287 14.8515C6.5592 15.5797 7.84813 15.9684 9.16667 15.9684C10.6472 15.9702 12.0854 15.4771 13.25 14.5684L16.075 17.385C16.1525 17.4627 16.2446 17.5243 16.3462 17.5663C16.4477 17.6084 16.5567 17.6301 16.6667 17.6301C16.7767 17.6301 16.8856 17.6084 16.9872 17.5663C17.0887 17.5243 17.1809 17.4627 17.2583 17.385C17.3364 17.308 17.3984 17.2164 17.4407 17.1154C17.4831 17.0145 17.5048 16.9062 17.5048 16.7968C17.5048 16.6875 17.4831 16.5792 17.4407 16.4782C17.3984 16.3773 17.3364 16.2857 17.2583 16.2087ZM4.16667 9.34102C4.16667 8.35794 4.45991 7.39693 5.00932 6.57953C5.55873 5.76213 6.33962 5.12504 7.25325 4.74883C8.16688 4.37263 9.17222 4.27419 10.1421 4.46598C11.112 4.65777 12.0029 5.13117 12.7022 5.82631C13.4015 6.52146 13.8777 7.40712 14.0706 8.37131C14.2635 9.3355 14.1645 10.3349 13.7861 11.2432C13.4076 12.1514 12.7668 12.9277 11.9445 13.4739C11.1223 14.02 10.1556 14.3116 9.16667 14.3116C7.84059 14.3116 6.56882 13.7879 5.63114 12.8557C4.69345 11.9236 4.16667 10.6593 4.16667 9.34102Z" fill="#7D7D7D"/>
</svg>
