<svg width="26" height="26" viewBox="0 0 26 26" fill="none" xmlns="http://www.w3.org/2000/svg">
<path d="M16.1667 9.23657H9.83358C8.591 9.23657 7.5835 10.2332 7.5835 11.4617V14.5926C7.5835 15.8222 8.591 16.8177 9.83358 16.8177H16.1667C17.4093 16.8177 18.4168 15.8211 18.4168 14.5926V11.4617C18.4168 10.2322 17.4093 9.23657 16.1667 9.23657ZM14.6457 13.1799L11.6828 14.5774C11.6647 14.586 11.6447 14.5898 11.6247 14.5886C11.6047 14.5874 11.5853 14.5812 11.5683 14.5705C11.5514 14.5598 11.5374 14.545 11.5277 14.5274C11.518 14.5099 11.5128 14.4902 11.5127 14.4702V11.5885C11.5129 11.5682 11.5183 11.5483 11.5283 11.5306C11.5384 11.513 11.5528 11.4982 11.5701 11.4876C11.5875 11.4771 11.6073 11.4712 11.6276 11.4705C11.6478 11.4697 11.668 11.4742 11.6861 11.4834L14.6479 12.9676C14.6674 12.9778 14.6837 12.9931 14.695 13.012C14.7062 13.0308 14.7121 13.0524 14.7119 13.0744C14.7117 13.0964 14.7054 13.1179 14.6937 13.1365C14.682 13.1551 14.6654 13.1701 14.6457 13.1799Z" fill="white"/>
<path d="M6.49984 4.33341C5.9252 4.33341 5.3741 4.56169 4.96777 4.96802C4.56144 5.37435 4.33317 5.92545 4.33317 6.50008V19.5001C4.33317 20.0747 4.56144 20.6258 4.96777 21.0321C5.3741 21.4385 5.9252 21.6667 6.49984 21.6667H19.4998C20.0745 21.6667 20.6256 21.4385 21.0319 21.0321C21.4382 20.6258 21.6665 20.0747 21.6665 19.5001V6.50008C21.6665 5.92545 21.4382 5.37435 21.0319 4.96802C20.6256 4.56169 20.0745 4.33341 19.4998 4.33341H6.49984ZM6.49984 2.16675H19.4998C20.6491 2.16675 21.7513 2.62329 22.564 3.43595C23.3766 4.24861 23.8332 5.35081 23.8332 6.50008V19.5001C23.8332 20.6494 23.3766 21.7516 22.564 22.5642C21.7513 23.3769 20.6491 23.8334 19.4998 23.8334H6.49984C5.35057 23.8334 4.24837 23.3769 3.43571 22.5642C2.62305 21.7516 2.1665 20.6494 2.1665 19.5001V6.50008C2.1665 5.35081 2.62305 4.24861 3.43571 3.43595C4.24837 2.62329 5.35057 2.16675 6.49984 2.16675Z" fill="white"/>
</svg>
