<svg width="20" height="20" viewBox="0 0 20 20" fill="none" xmlns="http://www.w3.org/2000/svg">
<path d="M17.8571 0H2.14286C0.959821 0 0 0.954166 0 2.13023V17.7519C0 18.928 0.959821 19.8822 2.14286 19.8822H17.8571C19.0402 19.8822 20 18.928 20 17.7519V2.13023C20 0.954166 19.0402 0 17.8571 0ZM15.6741 7.04752C15.683 7.17178 15.683 7.30048 15.683 7.42475C15.683 11.2725 12.7366 15.706 7.35268 15.706C5.69196 15.706 4.15179 15.2267 2.85714 14.4013C3.09375 14.4279 3.32143 14.4368 3.5625 14.4368C4.93304 14.4368 6.19196 13.9752 7.19643 13.1941C5.91071 13.1675 4.83036 12.3287 4.45982 11.1748C4.91071 11.2414 5.31696 11.2414 5.78125 11.1216C4.44196 10.8509 3.4375 9.67924 3.4375 8.26352V8.22802C3.82589 8.44548 4.28125 8.57862 4.75893 8.59637C4.35733 8.33082 4.02812 7.97056 3.80066 7.54775C3.5732 7.12493 3.45457 6.65272 3.45536 6.17323C3.45536 5.6318 3.59821 5.13475 3.85268 4.70426C5.29464 6.47058 7.45982 7.62446 9.88839 7.74872C9.47322 5.77382 10.9598 4.1717 12.7455 4.1717C13.5893 4.1717 14.3482 4.52231 14.8839 5.09037C15.5446 4.9661 16.1786 4.72201 16.7411 4.38916C16.5223 5.06374 16.0625 5.6318 15.4554 5.99128C16.0446 5.92915 16.6161 5.76494 17.1429 5.5386C16.7455 6.11998 16.2455 6.63478 15.6741 7.04752Z" fill="white"/>
</svg>
