<svg width="24" height="24" viewBox="0 0 24 24" fill="none" xmlns="http://www.w3.org/2000/svg">
<path d="M20.625 2.60962H3.375C2.96016 2.60962 2.625 2.9428 2.625 3.3552V20.5036C2.625 20.916 2.96016 21.2492 3.375 21.2492H20.625C21.0398 21.2492 21.375 20.916 21.375 20.5036V3.3552C21.375 2.9428 21.0398 2.60962 20.625 2.60962ZM8.18672 18.4928H5.40469V9.59712H8.18672V18.4928ZM6.79688 8.38089C6.47795 8.38089 6.16619 8.28687 5.90102 8.11073C5.63584 7.93459 5.42917 7.68424 5.30712 7.39133C5.18507 7.09842 5.15314 6.77611 5.21536 6.46516C5.27758 6.1542 5.43115 5.86858 5.65667 5.64439C5.88218 5.42021 6.1695 5.26754 6.48229 5.20569C6.79509 5.14383 7.11931 5.17558 7.41395 5.29691C7.7086 5.41823 7.96044 5.62369 8.13762 5.88731C8.3148 6.15092 8.40937 6.46084 8.40937 6.77789C8.40703 7.66326 7.68516 8.38089 6.79688 8.38089ZM18.6023 18.4928H15.8227V14.1661C15.8227 13.134 15.8039 11.8082 14.3766 11.8082C12.9305 11.8082 12.7078 12.9313 12.7078 14.0916V18.4928H9.93047V9.59712H12.5977V10.8133H12.6352C13.0055 10.1144 13.9125 9.37577 15.2672 9.37577C18.0844 9.37577 18.6023 11.2188 18.6023 13.6139V18.4928Z" fill="white"/>
</svg>
