<svg width="68" height="68" viewBox="0 0 68 68" fill="none" xmlns="http://www.w3.org/2000/svg">
<path d="M47.2184 28.1444L47.2202 28.1462C47.2807 28.2066 47.3198 28.2935 47.3203 28.3987C47.3208 28.5057 47.282 28.5722 47.2486 28.6056L34.2436 41.6106L34.2417 41.6124C34.2118 41.6424 34.1763 41.6662 34.1372 41.6824C34.0981 41.6986 34.0562 41.707 34.0138 41.707C33.9715 41.707 33.9295 41.6986 33.8904 41.6824L32.9326 43.9916L33.8904 41.6824C33.8513 41.6662 33.8158 41.6424 33.7859 41.6124L33.7841 41.6106L20.7791 28.6056L19.0723 30.3124L20.7791 28.6056C20.7182 28.5447 20.6839 28.4621 20.6839 28.3759C20.6839 28.2897 20.7182 28.2071 20.7791 28.1462L19.0264 26.3935L20.7791 28.1462C20.84 28.0852 20.9227 28.051 21.0088 28.051C21.095 28.051 21.1776 28.0852 21.2386 28.1462L32.2319 39.1395L33.9997 40.9073L35.7674 39.1395L46.7608 28.1462L46.7626 28.1444C46.7925 28.1144 46.828 28.0906 46.8671 28.0744C46.9062 28.0582 46.9481 28.0498 46.9905 28.0498C47.0328 28.0498 47.0748 28.0582 47.1139 28.0744C47.153 28.0906 47.1885 28.1144 47.2184 28.1444Z" stroke="#862D91" stroke-width="5"/>
</svg>
