<svg width="761" height="446" viewBox="0 0 761 446" fill="none" xmlns="http://www.w3.org/2000/svg">
<path d="M-29.4469 801.149C-129.528 798.887 -212.617 881.104 -215.002 984.782C-217.388 1088.48 -138.166 1174.37 -38.0849 1176.63C62.0124 1178.89 145.083 1096.67 147.469 992.972C149.854 889.294 70.6504 803.41 -29.4469 801.149ZM627.787 1037.65C611.813 1064.67 590.703 1086.45 568.904 1104.76C547.872 1123.15 522.701 1137.37 499.383 1149.98C451.636 1174.9 402.489 1190.85 359.804 1209.98C315.275 1228.39 279.071 1249.94 241.679 1287.55C203.692 1324.5 181.272 1361.03 161.486 1406.24C141.099 1449.54 123.481 1499.69 97.2459 1547.96C84.0487 1571.47 69.1784 1596.92 50.4694 1617.85C31.8149 1639.54 9.85515 1660.42 -16.9198 1675.74C-69.82 1708.06 -143.977 1724.32 -234.16 1697.51C-324.172 1669.89 -378.211 1614.33 -406.554 1558.36C-420.562 1529.76 -428.432 1500.19 -433.137 1472.03C-436.732 1442.65 -437.013 1414.21 -435.881 1387.15C-433.645 1359.01 -430.01 1332.15 -426.721 1306.86C-422.215 1280.45 -418.44 1255.82 -415.707 1231.83C-409.231 1182.92 -408.371 1139.23 -420.931 1087.23C-432.854 1035.13 -453.516 996.453 -479.84 956.196C-493.347 937.048 -507.778 916.482 -522.848 895.034C-538.751 873.759 -552.298 852.008 -566.622 828.143C-594.133 780.607 -616.008 726.21 -616.512 661.671C-615.69 598.703 -592.77 523.055 -525.455 455.759C-457.481 389.151 -383.469 368.849 -322.737 370.896C-260.512 374.371 -209.022 399.44 -164.488 430.132C-142.083 446.059 -121.738 461.073 -101.969 478.483C-81.958 495.007 -62.7893 510.933 -44.9293 525.794C-7.31693 554.86 29.0312 578.018 78.7607 592.708C128.353 608.093 170.48 609.189 217.915 604.719C241.198 602.977 265.123 600.198 290.79 596.727C315.338 594.509 341.422 591.942 368.649 590.92C394.796 590.964 422.185 592.54 450.354 597.637C477.311 603.785 505.448 613.315 532.394 629.08C585.068 660.968 636.201 719.423 658.709 813.833C680.47 908.393 661.392 984.394 627.787 1037.66" fill="#80C342"/>
<path d="M627.787 1037.65C611.813 1064.67 590.703 1086.45 568.904 1104.76C547.872 1123.15 522.701 1137.37 499.383 1149.98C451.636 1174.9 402.489 1190.85 359.804 1209.98C315.275 1228.39 279.071 1249.94 241.679 1287.55C203.692 1324.5 181.272 1361.03 161.486 1406.24C141.099 1449.54 123.481 1499.69 97.2459 1547.96C84.0486 1571.47 69.1784 1596.92 50.4694 1617.85C31.8148 1639.54 9.85516 1660.42 -16.9198 1675.74C-69.82 1708.06 -143.977 1724.32 -234.16 1697.51C-324.172 1669.89 -378.211 1614.33 -406.554 1558.36C-420.562 1529.76 -428.432 1500.19 -433.137 1472.03C-436.732 1442.65 -437.013 1414.21 -435.881 1387.15C-433.645 1359.01 -430.01 1332.15 -426.721 1306.86C-422.215 1280.45 -418.44 1255.82 -415.707 1231.83C-409.231 1182.92 -408.371 1139.23 -420.931 1087.23C-432.854 1035.13 -453.516 996.453 -479.84 956.196C-493.347 937.048 -507.778 916.482 -522.848 895.034C-538.751 873.759 -552.298 852.008 -566.623 828.143C-594.133 780.607 -616.008 726.21 -616.512 661.671C-615.69 598.703 -592.77 523.055 -525.455 455.759C-457.481 389.152 -383.469 368.849 -322.737 370.896C-260.512 374.371 -209.022 399.44 -164.488 430.132C-142.083 446.059 -121.738 461.073 -101.969 478.483C-81.958 495.007 -62.7893 510.933 -44.9293 525.794C-7.3169 554.86 29.0311 578.018 78.7607 592.708C128.353 608.093 170.48 609.189 217.915 604.719C241.198 602.977 265.123 600.198 290.79 596.727C315.338 594.509 341.422 591.942 368.649 590.921C394.796 590.964 422.185 592.54 450.354 597.637C477.311 603.785 505.448 613.315 532.394 629.08C585.068 660.968 636.201 719.423 658.709 813.833C680.47 908.393 661.392 984.394 627.787 1037.66M-29.4469 801.149C-129.528 798.887 -212.617 881.104 -215.002 984.782C-217.388 1088.48 -138.166 1174.37 -38.0849 1176.63C62.0123 1178.89 145.083 1096.67 147.469 992.972C149.854 889.294 70.6504 803.41 -29.4469 801.149Z" stroke="#80C342"/>
<mask id="path-3-inside-1" fill="white">
<path d="M-216.444 220.657C-235.724 245.508 -245.661 276.104 -253.609 304.62C-260.694 335.393 -265.984 364.175 -274.776 389.477C-278.929 402.652 -284.129 414.568 -291.465 424.829C-293.266 427.453 -295.343 429.732 -297.304 432.31C-299.224 434.992 -301.284 437.562 -303.507 440.052C-307.973 445.016 -313.1 449.547 -319.104 453.646C-322.119 455.706 -325.168 457.53 -328.238 459.148C-331.254 460.84 -333.937 462.771 -336.879 464.257C-342.699 467.357 -348.691 469.656 -354.911 471.341C-361.148 473.046 -367.616 474.103 -374.311 474.702C-380.583 475.707 -387 476.341 -393.729 476.549C-407.109 476.981 -421.431 475.961 -436.417 474.532C-451.521 472.983 -465.749 472.294 -481.281 471.338C-496.581 470.542 -512.318 470.224 -528.156 471.325C-543.983 472.397 -558.37 476.002 -573.256 481.392C-580.582 484.17 -587.835 487.531 -594.948 491.584C-602.154 495.614 -609.151 500.359 -614.968 506.429C-627.126 518.274 -638.279 533.413 -647.706 552.21C-655.304 571.82 -658.987 590.221 -659.563 607.072C-660.109 615.449 -658.884 623.758 -657.005 631.718C-655.204 639.66 -652.809 647.218 -649.875 654.448C-643.817 668.952 -636.733 681.866 -626.826 694.141C-616.896 706.416 -606.033 717.648 -595.07 728.282C-583.839 738.924 -573.685 748.842 -562.288 758.808C-551.072 768.742 -540.647 778.494 -531.9 788.552C-527.503 793.576 -523.629 798.68 -520.12 803.95C-516.028 809.236 -512.433 814.667 -509.463 820.336C-506.504 826.037 -504.153 831.96 -502.52 838.273C-501.64 841.432 -501.264 844.708 -500.475 848.056C-499.571 851.396 -498.871 854.831 -498.376 858.413C-497.357 865.582 -497.242 872.409 -497.913 879.006C-498.227 882.299 -498.773 885.547 -499.454 888.759C-500.041 891.962 -500.331 895.014 -501.055 898.113C-503.688 910.397 -509.03 922.256 -515.991 934.207C-528.829 957.723 -546.659 981.076 -564.705 1007.08C-580.511 1032.2 -596.499 1060.18 -601.882 1091.05C-604.079 1106.21 -603.956 1122.27 -600.599 1139.19C-599.697 1143.38 -598.844 1147.75 -597.346 1151.92C-595.737 1156.02 -593.934 1160.18 -591.882 1164.37C-587.767 1172.75 -582.729 1181.27 -576.649 1189.85C-573.598 1194.14 -570.497 1198.18 -567.331 1201.97C-564.09 1205.7 -560.32 1208.83 -556.798 1211.93C-549.607 1218.03 -542.288 1223.23 -534.901 1227.57C-527.532 1231.92 -520.096 1235.41 -512.654 1238.18C-504.792 1240.55 -496.822 1242.1 -488.962 1243.12C-473.232 1245.13 -457.756 1244.72 -442.636 1242.95C-427.626 1241.3 -411.674 1236.73 -396.963 1232.67C-382.464 1228.31 -368.009 1223.96 -353.894 1219.72C-340.098 1215.71 -325.767 1210.8 -312.596 1208.28C-305.932 1206.93 -299.432 1205.96 -293.022 1205.55C-286.669 1205.17 -280.441 1205.34 -273.727 1205.22C-260.576 1205.49 -247.811 1208.31 -234.81 1215.03C-221.007 1219.95 -210.261 1227.35 -201.171 1236.75C-196.716 1241.72 -192.35 1246.15 -188.325 1251.02C-184.332 1255.97 -180.618 1261.36 -177.102 1267.14C-170.075 1278.44 -164.01 1292.22 -157.649 1304.97C-151.219 1318.14 -144.662 1331.63 -138.081 1345.12C-131.136 1358.58 -123.715 1373.32 -114.784 1385.38C-105.896 1397.6 -95.6608 1409.15 -83.5184 1419.25C-77.4485 1424.29 -70.9119 1429.03 -63.8148 1433.18C-56.7137 1436.72 -49.0859 1439.75 -40.8706 1442.2C-32.6511 1444.63 -23.8456 1446.47 -14.4221 1447.56C-9.73253 1448.03 -4.87559 1448.67 0.0946277 1448.5C5.06531 1448.21 10.1615 1447.76 15.3993 1447.05C25.9133 1445.67 35.6755 1443.6 44.6574 1440.92C49.1654 1439.57 53.4784 1438.07 57.6121 1436.44C61.7365 1434.73 65.5542 1432.39 69.2729 1430.2C84.1005 1421.18 96.1205 1410.39 105.902 1398.54C125.191 1373.71 135.132 1343.09 143.081 1314.58C150.188 1283.8 155.444 1255.02 164.236 1229.72C168.392 1216.56 173.589 1204.63 180.934 1194.39C182.737 1191.77 184.811 1189.49 186.788 1186.89C188.687 1184.21 190.741 1181.63 192.978 1179.14C197.444 1174.21 202.558 1169.68 208.577 1165.56C211.602 1163.49 214.618 1161.67 217.7 1160.06C220.744 1158.37 223.402 1156.41 226.372 1154.94C232.149 1151.85 238.15 1149.54 244.382 1147.86C250.618 1146.18 257.083 1145.11 263.781 1144.52C270.051 1143.51 276.47 1142.88 283.2 1142.68C296.577 1142.24 310.895 1143.22 325.878 1144.67C340.994 1146.22 355.247 1146.91 370.741 1147.86C386.072 1148.64 401.789 1148.97 417.607 1147.88C433.444 1146.81 447.838 1143.22 462.717 1137.81C470.043 1135.03 477.307 1131.67 484.441 1127.61C491.604 1123.59 498.628 1118.85 504.445 1112.78C516.586 1100.92 527.746 1085.8 537.187 1066.98C544.765 1047.38 548.456 1029 549.023 1012.13C549.578 1003.77 548.344 995.44 546.487 987.477C544.692 979.551 542.269 971.98 539.335 964.751C533.277 950.246 526.2 937.352 516.282 925.049C506.387 912.798 495.491 901.543 484.538 890.937C473.301 880.278 463.142 870.348 451.756 860.411C440.532 850.457 430.109 840.709 421.36 830.646C416.963 825.622 413.091 820.522 409.582 815.252C405.51 809.982 401.903 804.555 398.944 798.854C395.964 793.161 393.609 787.225 391.974 780.927C391.095 777.772 390.717 774.492 389.929 771.144C389.032 767.824 388.356 764.362 387.826 760.78C386.811 753.619 386.705 746.812 387.375 740.215C387.701 736.894 388.237 733.649 388.908 730.442C389.504 727.262 389.782 724.179 390.511 721.091C393.142 708.804 398.484 696.945 405.454 685.018C418.293 661.473 436.11 638.118 454.175 612.097C469.97 587.013 485.962 559.042 491.361 528.158C493.533 512.989 493.405 496.942 490.062 480.037C489.159 475.842 488.295 471.447 486.8 467.277C485.214 463.179 483.388 459.021 481.336 454.826C477.235 446.461 472.18 437.928 466.103 429.354C463.056 425.076 459.95 421.019 456.785 417.232C453.541 413.489 449.774 410.371 446.249 407.258C439.057 401.159 431.75 395.988 424.363 391.65C416.993 387.297 409.552 383.798 402.116 381.045C394.255 378.678 386.277 377.109 378.448 376.072C362.716 374.089 347.204 374.465 332.09 376.249C317.069 377.907 301.128 382.47 286.425 386.555C271.926 390.912 257.468 395.255 243.351 399.488C229.552 403.491 215.223 408.405 202.041 410.929C195.394 412.29 188.887 413.248 182.48 413.665C176.146 414.023 169.902 413.879 163.181 413.983C150.026 413.706 137.262 410.882 124.297 404.158C110.487 399.25 99.7165 391.855 90.6349 382.471C86.156 377.48 81.826 373.05 77.7923 368.183C73.7856 363.235 70.0872 357.846 66.5636 352.081C59.5269 340.76 53.4725 326.99 47.0946 314.237C40.6801 301.082 34.1191 287.58 27.5351 274.087C20.6049 260.597 13.1878 245.893 4.25416 233.834C-4.66325 221.601 -14.8768 210.038 -27.0323 199.941C-33.0886 194.931 -39.6453 190.175 -46.7216 186.049C-53.8118 182.498 -61.45 179.445 -69.6682 177.021C-77.8989 174.566 -86.6912 172.757 -96.0956 171.648C-100.794 171.164 -105.67 170.534 -110.632 170.722C-115.59 170.98 -120.69 171.46 -125.949 172.144C-136.449 173.528 -146.212 175.625 -155.208 178.304C-159.685 179.636 -164.023 181.139 -168.16 182.756C-172.274 184.492 -176.093 186.829 -179.812 189.02C-194.648 198.016 -206.668 208.809 -216.45 220.66L-216.444 220.657Z"/>
</mask>
<path d="M-216.444 220.657C-235.724 245.508 -245.661 276.104 -253.609 304.62C-260.694 335.393 -265.984 364.175 -274.776 389.477C-278.929 402.652 -284.129 414.568 -291.465 424.829C-293.266 427.453 -295.343 429.732 -297.304 432.31C-299.224 434.992 -301.284 437.562 -303.507 440.052C-307.973 445.016 -313.1 449.547 -319.104 453.646C-322.119 455.706 -325.168 457.53 -328.238 459.148C-331.254 460.84 -333.937 462.771 -336.879 464.257C-342.699 467.357 -348.691 469.656 -354.911 471.341C-361.148 473.046 -367.616 474.103 -374.311 474.702C-380.583 475.707 -387 476.341 -393.729 476.549C-407.109 476.981 -421.431 475.961 -436.417 474.532C-451.521 472.983 -465.749 472.294 -481.281 471.338C-496.581 470.542 -512.318 470.224 -528.156 471.325C-543.983 472.397 -558.37 476.002 -573.256 481.392C-580.582 484.17 -587.835 487.531 -594.948 491.584C-602.154 495.614 -609.151 500.359 -614.968 506.429C-627.126 518.274 -638.279 533.413 -647.706 552.21C-655.304 571.82 -658.987 590.221 -659.563 607.072C-660.109 615.449 -658.884 623.758 -657.005 631.718C-655.204 639.66 -652.809 647.218 -649.875 654.448C-643.817 668.952 -636.733 681.866 -626.826 694.141C-616.896 706.416 -606.033 717.648 -595.07 728.282C-583.839 738.924 -573.685 748.842 -562.288 758.808C-551.072 768.742 -540.647 778.494 -531.9 788.552C-527.503 793.576 -523.629 798.68 -520.12 803.95C-516.028 809.236 -512.433 814.667 -509.463 820.336C-506.504 826.037 -504.153 831.96 -502.52 838.273C-501.64 841.432 -501.264 844.708 -500.475 848.056C-499.571 851.396 -498.871 854.831 -498.376 858.413C-497.357 865.582 -497.242 872.409 -497.913 879.006C-498.227 882.299 -498.773 885.547 -499.454 888.759C-500.041 891.962 -500.331 895.014 -501.055 898.113C-503.688 910.397 -509.03 922.256 -515.991 934.207C-528.829 957.723 -546.659 981.076 -564.705 1007.08C-580.511 1032.2 -596.499 1060.18 -601.882 1091.05C-604.079 1106.21 -603.956 1122.27 -600.599 1139.19C-599.697 1143.38 -598.844 1147.75 -597.346 1151.92C-595.737 1156.02 -593.934 1160.18 -591.882 1164.37C-587.767 1172.75 -582.729 1181.27 -576.649 1189.85C-573.598 1194.14 -570.497 1198.18 -567.331 1201.97C-564.09 1205.7 -560.32 1208.83 -556.798 1211.93C-549.607 1218.03 -542.288 1223.23 -534.901 1227.57C-527.532 1231.92 -520.096 1235.41 -512.654 1238.18C-504.792 1240.55 -496.822 1242.1 -488.962 1243.12C-473.232 1245.13 -457.756 1244.72 -442.636 1242.95C-427.626 1241.3 -411.674 1236.73 -396.963 1232.67C-382.464 1228.31 -368.009 1223.96 -353.894 1219.72C-340.098 1215.71 -325.767 1210.8 -312.596 1208.28C-305.932 1206.93 -299.432 1205.96 -293.022 1205.55C-286.669 1205.17 -280.441 1205.34 -273.727 1205.22C-260.576 1205.49 -247.811 1208.31 -234.81 1215.03C-221.007 1219.95 -210.261 1227.35 -201.171 1236.75C-196.716 1241.72 -192.35 1246.15 -188.325 1251.02C-184.332 1255.97 -180.618 1261.36 -177.102 1267.14C-170.075 1278.44 -164.01 1292.22 -157.649 1304.97C-151.219 1318.14 -144.662 1331.63 -138.081 1345.12C-131.136 1358.58 -123.715 1373.32 -114.784 1385.38C-105.896 1397.6 -95.6608 1409.15 -83.5184 1419.25C-77.4485 1424.29 -70.9119 1429.03 -63.8148 1433.18C-56.7137 1436.72 -49.0859 1439.75 -40.8706 1442.2C-32.6511 1444.63 -23.8456 1446.47 -14.4221 1447.56C-9.73253 1448.03 -4.87559 1448.67 0.0946277 1448.5C5.06531 1448.21 10.1615 1447.76 15.3993 1447.05C25.9133 1445.67 35.6755 1443.6 44.6574 1440.92C49.1654 1439.57 53.4784 1438.07 57.6121 1436.44C61.7365 1434.73 65.5542 1432.39 69.2729 1430.2C84.1005 1421.18 96.1205 1410.39 105.902 1398.54C125.191 1373.71 135.132 1343.09 143.081 1314.58C150.188 1283.8 155.444 1255.02 164.236 1229.72C168.392 1216.56 173.589 1204.63 180.934 1194.39C182.737 1191.77 184.811 1189.49 186.788 1186.89C188.687 1184.21 190.741 1181.63 192.978 1179.14C197.444 1174.21 202.558 1169.68 208.577 1165.56C211.602 1163.49 214.618 1161.67 217.7 1160.06C220.744 1158.37 223.402 1156.41 226.372 1154.94C232.149 1151.85 238.15 1149.54 244.382 1147.86C250.618 1146.18 257.083 1145.11 263.781 1144.52C270.051 1143.51 276.47 1142.88 283.2 1142.68C296.577 1142.24 310.895 1143.22 325.878 1144.67C340.994 1146.22 355.247 1146.91 370.741 1147.86C386.072 1148.64 401.789 1148.97 417.607 1147.88C433.444 1146.81 447.838 1143.22 462.717 1137.81C470.043 1135.03 477.307 1131.67 484.441 1127.61C491.604 1123.59 498.628 1118.85 504.445 1112.78C516.586 1100.92 527.746 1085.8 537.187 1066.98C544.765 1047.38 548.456 1029 549.023 1012.13C549.578 1003.77 548.344 995.44 546.487 987.477C544.692 979.551 542.269 971.98 539.335 964.751C533.277 950.246 526.2 937.352 516.282 925.049C506.387 912.798 495.491 901.543 484.538 890.937C473.301 880.278 463.142 870.348 451.756 860.411C440.532 850.457 430.109 840.709 421.36 830.646C416.963 825.622 413.091 820.522 409.582 815.252C405.51 809.982 401.903 804.555 398.944 798.854C395.964 793.161 393.609 787.225 391.974 780.927C391.095 777.772 390.717 774.492 389.929 771.144C389.032 767.824 388.356 764.362 387.826 760.78C386.811 753.619 386.705 746.812 387.375 740.215C387.701 736.894 388.237 733.649 388.908 730.442C389.504 727.262 389.782 724.179 390.511 721.091C393.142 708.804 398.484 696.945 405.454 685.018C418.293 661.473 436.11 638.118 454.175 612.097C469.97 587.013 485.962 559.042 491.361 528.158C493.533 512.989 493.405 496.942 490.062 480.037C489.159 475.842 488.295 471.447 486.8 467.277C485.214 463.179 483.388 459.021 481.336 454.826C477.235 446.461 472.18 437.928 466.103 429.354C463.056 425.076 459.95 421.019 456.785 417.232C453.541 413.489 449.774 410.371 446.249 407.258C439.057 401.159 431.75 395.988 424.363 391.65C416.993 387.297 409.552 383.798 402.116 381.045C394.255 378.678 386.277 377.109 378.448 376.072C362.716 374.089 347.204 374.465 332.09 376.249C317.069 377.907 301.128 382.47 286.425 386.555C271.926 390.912 257.468 395.255 243.351 399.488C229.552 403.491 215.223 408.405 202.041 410.929C195.394 412.29 188.887 413.248 182.48 413.665C176.146 414.023 169.902 413.879 163.181 413.983C150.026 413.706 137.262 410.882 124.297 404.158C110.487 399.25 99.7165 391.855 90.6349 382.471C86.156 377.48 81.826 373.05 77.7923 368.183C73.7856 363.235 70.0872 357.846 66.5636 352.081C59.5269 340.76 53.4725 326.99 47.0946 314.237C40.6801 301.082 34.1191 287.58 27.5351 274.087C20.6049 260.597 13.1878 245.893 4.25416 233.834C-4.66325 221.601 -14.8768 210.038 -27.0323 199.941C-33.0886 194.931 -39.6453 190.175 -46.7216 186.049C-53.8118 182.498 -61.45 179.445 -69.6682 177.021C-77.8989 174.566 -86.6912 172.757 -96.0956 171.648C-100.794 171.164 -105.67 170.534 -110.632 170.722C-115.59 170.98 -120.69 171.46 -125.949 172.144C-136.449 173.528 -146.212 175.625 -155.208 178.304C-159.685 179.636 -164.023 181.139 -168.16 182.756C-172.274 184.492 -176.093 186.829 -179.812 189.02C-194.648 198.016 -206.668 208.809 -216.45 220.66L-216.444 220.657Z" fill="#862D91" stroke="#862D91" stroke-width="2" mask="url(#path-3-inside-1)"/>
</svg>
