<svg width="625" height="526" viewBox="0 0 625 526" fill="none" xmlns="http://www.w3.org/2000/svg">
<rect x="0.5" y="0.95752" width="624" height="524" rx="29.5" fill="#842C8E" stroke="black"/>
<path d="M504.395 302.264C502.77 302.264 501.159 302.428 499.578 302.73L472.734 253.906C476.572 249.342 478.789 243.494 478.789 237.397C478.789 231.299 476.572 225.45 472.735 220.887L499.578 172.064C501.159 172.366 502.77 172.53 504.395 172.53C518.513 172.53 530 161.043 530 146.924C530 132.805 518.513 121.319 504.395 121.319C490.276 121.319 478.789 132.805 478.789 146.924C478.789 153.023 481.007 158.871 484.843 163.434L458 212.258C456.418 211.955 454.808 211.792 453.184 211.792C442.057 211.792 432.569 218.928 429.046 228.862H361.243C357.72 218.928 348.233 211.792 337.105 211.792C335.481 211.792 333.87 211.955 332.289 212.258L305.445 163.433C309.283 158.869 311.5 153.021 311.5 146.924C311.5 140.922 309.347 135.165 305.621 130.635L332.004 86.6636C333.676 87.0033 335.384 87.1782 337.105 87.1782C351.224 87.1782 362.711 75.6916 362.711 61.5728C362.711 47.4539 351.224 35.9673 337.105 35.9673C322.987 35.9673 311.5 47.4539 311.5 61.5728C311.5 67.5747 313.653 73.3316 317.379 77.8621L290.996 121.834C289.325 121.494 287.616 121.319 285.895 121.319C274.768 121.319 265.28 128.455 261.757 138.389H193.954C190.431 128.455 180.944 121.319 169.816 121.319C155.698 121.319 144.211 132.805 144.211 146.924C144.211 153.023 146.428 158.871 150.265 163.434L123.422 212.258C121.841 211.955 120.23 211.792 118.605 211.792C104.487 211.792 93 223.278 93 237.397C93 251.516 104.487 263.002 118.605 263.002C120.23 263.002 121.841 262.839 123.422 262.536L150.266 311.361C146.428 315.925 144.211 321.772 144.211 327.87C144.211 333.968 146.428 339.816 150.265 344.379L123.422 393.204C121.841 392.901 120.23 392.737 118.605 392.737C104.487 392.737 93 404.223 93 418.342C93 432.461 104.487 443.948 118.605 443.948C132.724 443.948 144.211 432.461 144.211 418.342C144.211 412.244 141.994 406.396 138.157 401.833L165 353.008C166.581 353.311 168.192 353.475 169.816 353.475C180.943 353.475 190.431 346.339 193.954 336.405H261.757C265.28 346.339 274.767 353.475 285.895 353.475C287.519 353.475 289.13 353.311 290.711 353.009L317.555 401.834C313.717 406.397 311.5 412.246 311.5 418.342C311.5 432.461 322.987 443.948 337.105 443.948C348.232 443.948 357.72 436.812 361.243 426.877H429.046C432.569 436.812 442.056 443.948 453.184 443.948C467.302 443.948 478.789 432.461 478.789 418.342C478.789 412.244 476.572 406.396 472.735 401.833L499.578 353.009C501.16 353.311 502.77 353.475 504.395 353.475C518.513 353.475 530 341.988 530 327.87C530 313.751 518.513 302.264 504.395 302.264ZM504.395 138.389C509.101 138.389 512.93 142.218 512.93 146.924C512.93 151.631 509.101 155.459 504.395 155.459C502.845 155.459 501.328 155.04 500.001 154.242C497.408 152.687 495.859 149.952 495.859 146.924C495.859 142.218 499.688 138.389 504.395 138.389ZM337.105 53.0376C341.812 53.0376 345.641 56.8665 345.641 61.5728C345.641 66.279 341.812 70.1079 337.105 70.1079C335.556 70.1079 334.04 69.6888 332.714 68.8917C332.629 68.8037 328.57 66.6426 328.57 61.5728C328.57 56.8665 332.399 53.0376 337.105 53.0376ZM118.605 426.877C113.899 426.877 110.07 423.049 110.07 418.342C110.07 413.636 113.899 409.807 118.605 409.807C123.193 409.807 127.141 413.481 127.141 418.342C127.141 423.049 123.312 426.877 118.605 426.877ZM453.184 228.862C457.772 228.862 461.719 232.535 461.719 237.397C461.719 242.312 457.718 245.932 453.184 245.932C448.477 245.932 444.648 242.103 444.648 237.397C444.648 232.691 448.477 228.862 453.184 228.862ZM337.105 228.862C341.812 228.862 345.641 232.691 345.641 237.397C345.641 242.103 341.812 245.932 337.105 245.932C332.517 245.932 328.57 242.259 328.57 237.397C328.57 232.556 332.5 228.862 337.105 228.862ZM290.286 139.605C290.371 139.693 294.43 141.855 294.43 146.924C294.43 151.847 290.421 155.459 285.895 155.459C281.188 155.459 277.359 151.631 277.359 146.924C277.359 140.284 284.637 136.212 290.286 139.605ZM169.816 138.389C174.523 138.389 178.352 142.218 178.352 146.924C178.352 151.631 174.523 155.459 169.816 155.459C165.229 155.459 161.281 151.786 161.281 146.924C161.281 142.218 165.11 138.389 169.816 138.389ZM118.605 245.932C113.899 245.932 110.07 242.103 110.07 237.397C110.07 232.691 113.899 228.862 118.605 228.862C123.193 228.862 127.141 232.535 127.141 237.397C127.141 242.37 123.089 245.932 118.605 245.932ZM169.816 336.405C165.229 336.405 161.281 332.731 161.281 327.87C161.281 323.025 165.214 319.334 169.816 319.334C174.523 319.334 178.352 323.163 178.352 327.87C178.352 332.576 174.523 336.405 169.816 336.405ZM261.757 319.334H193.954C190.431 309.4 180.944 302.264 169.816 302.264C168.192 302.264 166.581 302.428 165 302.73L138.156 253.906C141.994 249.342 144.211 243.494 144.211 237.397C144.211 231.299 141.994 225.45 138.157 220.887L165 172.063C166.581 172.366 168.192 172.53 169.816 172.53C180.943 172.53 190.431 165.394 193.954 155.459H261.757C265.28 165.394 274.767 172.53 285.895 172.53C287.519 172.53 289.13 172.366 290.711 172.064L317.555 220.889C313.717 225.452 311.5 231.3 311.5 237.397C311.5 243.495 313.717 249.344 317.554 253.907L290.711 302.73C289.13 302.428 287.519 302.264 285.895 302.264C274.768 302.264 265.28 309.4 261.757 319.334ZM290.288 335.188C290.285 335.189 290.282 335.191 290.28 335.193C288.96 335.986 287.444 336.405 285.895 336.405C281.188 336.405 277.359 332.576 277.359 327.87C277.359 323.163 281.188 319.334 285.895 319.334C287.444 319.334 288.96 319.754 290.288 320.552C292.881 322.107 294.43 324.842 294.43 327.87C294.43 330.897 292.881 333.633 290.288 335.188ZM337.105 426.877C332.399 426.877 328.57 423.049 328.57 418.342C328.57 413.501 332.5 409.807 337.105 409.807C341.812 409.807 345.641 413.636 345.641 418.342C345.641 423.049 341.812 426.877 337.105 426.877ZM453.184 426.877C448.477 426.877 444.648 423.049 444.648 418.342C444.648 413.636 448.477 409.807 453.184 409.807C457.772 409.807 461.719 413.481 461.719 418.342C461.719 423.049 457.89 426.877 453.184 426.877ZM484.844 344.378L458 393.203C456.418 392.901 454.808 392.737 453.184 392.737C442.057 392.737 432.569 399.873 429.046 409.807H361.243C357.72 399.873 348.233 392.737 337.105 392.737C335.481 392.737 333.87 392.901 332.289 393.203L305.445 344.378C309.283 339.815 311.5 333.966 311.5 327.87C311.5 321.771 309.283 315.923 305.446 311.36L332.289 262.536C333.87 262.839 335.481 263.002 337.105 263.002C348.232 263.002 357.72 255.866 361.243 245.932H429.046C432.569 255.866 442.056 263.002 453.184 263.002C454.808 263.002 456.419 262.839 458 262.536L484.844 311.361C481.006 315.925 478.789 321.773 478.789 327.87C478.789 333.966 481.006 339.815 484.844 344.378ZM504.395 336.405C499.847 336.405 495.859 332.77 495.859 327.87C495.859 323.029 499.789 319.334 504.395 319.334C509.101 319.334 512.93 323.163 512.93 327.87C512.93 332.576 509.101 336.405 504.395 336.405Z" fill="#8E3298"/>
</svg>
