<svg width="641" height="619" viewBox="0 0 641 619" fill="none" xmlns="http://www.w3.org/2000/svg">
<rect x="16.5" y="93.9574" width="624" height="524" rx="29.5" fill="#842C8E" stroke="black"/>
<path d="M237.133 233.916C224.567 236.867 211.389 235.871 199.416 231.065C187.443 226.259 177.264 217.879 170.282 207.082C161.324 193.244 158.262 176.435 161.771 160.354C165.279 144.272 175.071 130.235 188.99 121.33C202.91 112.424 219.818 109.381 235.995 112.869C252.172 116.357 266.293 126.09 275.251 139.928C289.999 162.711 287.801 191.418 272.123 211.531L303.759 260.402C290.232 264.49 278.116 272.24 268.77 282.787L237.133 233.916ZM514.247 383.001C501.356 383.694 488.568 380.383 477.657 373.525C466.745 366.668 458.251 356.605 453.352 344.731L394.79 347.518C398.009 334.146 397.664 319.855 392.808 306.238L451.37 303.451C458.695 278.843 481.037 260.615 508.124 259.273C542.661 257.591 571.837 283.934 573.416 318.094C573.84 326.223 572.643 334.355 569.896 342.023C567.148 349.691 562.902 356.743 557.404 362.775C551.906 368.806 545.262 373.698 537.856 377.169C530.449 380.64 522.426 382.622 514.247 383.001ZM182.783 467.163C195.234 443.211 221.291 430.722 246.743 434.115L273.73 382.172C284.298 392.381 296.951 398.551 310.703 401.067L283.715 453.01C301.474 471.654 306.263 500.071 293.812 524.023C277.964 554.575 240.432 566.535 209.699 550.781C202.403 547.053 195.919 541.931 190.617 535.709C185.314 529.487 181.298 522.287 178.798 514.52C176.298 506.754 175.363 498.573 176.047 490.447C176.731 482.321 179.02 474.409 182.783 467.163ZM359.083 307.646C365.055 316.871 367.096 328.077 364.757 338.798C362.418 349.519 355.89 358.877 346.611 364.814C337.331 370.751 326.059 372.78 315.274 370.454C304.489 368.129 295.076 361.64 289.104 352.415C283.132 343.19 281.091 331.984 283.43 321.263C285.769 310.542 292.296 301.184 301.576 295.247C310.856 289.31 322.128 287.281 332.913 289.607C343.697 291.932 353.111 298.421 359.083 307.646ZM411.567 274.069L417.46 284.318L382.06 285.814C368.264 268.324 347.822 258.529 326.658 257.558L307.406 227.818C347.154 221.573 388.487 238.416 411.567 274.069ZM421.425 366.878C413.772 386.777 399.806 404.566 380.386 416.989C360.967 429.413 338.894 434.68 317.168 432.839L333.541 401.951C343.953 400.455 354.226 396.834 363.498 390.902C372.771 384.97 380.167 377.287 386.025 368.374L421.425 366.878ZM243.449 395.396L236.619 385.992C213.539 350.339 215.243 305.963 237.539 272.761L256.792 302.501C248.801 321.878 249.299 344.431 259.484 363.986L243.449 395.396Z" fill="#9837A4" fill-opacity="0.54"/>
</svg>
