<svg width="437" height="409" viewBox="0 0 437 409" fill="none" xmlns="http://www.w3.org/2000/svg">
<path d="M411.395 267.264C409.77 267.264 408.159 267.428 406.578 267.73L379.734 218.905C383.572 214.341 385.789 208.493 385.789 202.396C385.789 196.298 383.572 190.45 379.735 185.887L406.578 137.063C408.159 137.365 409.77 137.529 411.395 137.529C425.513 137.529 437 126.043 437 111.924C437 97.805 425.513 86.3184 411.395 86.3184C397.276 86.3184 385.789 97.805 385.789 111.924C385.789 118.022 388.007 123.87 391.843 128.433L365 177.257C363.418 176.955 361.808 176.791 360.184 176.791C349.057 176.791 339.569 183.927 336.046 193.861H268.243C264.72 183.927 255.233 176.791 244.105 176.791C242.481 176.791 240.87 176.955 239.289 177.257L212.445 128.433C216.283 123.869 218.5 118.02 218.5 111.924C218.5 105.922 216.347 100.165 212.621 95.6345L239.004 51.6631C240.676 52.0028 242.384 52.1777 244.105 52.1777C258.224 52.1777 269.711 40.6911 269.711 26.5723C269.711 12.4534 258.224 0.966797 244.105 0.966797C229.987 0.966797 218.5 12.4534 218.5 26.5723C218.5 32.5742 220.653 38.3312 224.379 42.8616L197.996 86.833C196.325 86.4933 194.616 86.3184 192.895 86.3184C181.768 86.3184 172.28 93.4546 168.757 103.389H100.954C97.4305 93.4546 87.9437 86.3184 76.8164 86.3184C62.6976 86.3184 51.2109 97.805 51.2109 111.924C51.2109 118.022 53.4284 123.87 57.2649 128.433L30.4219 177.258C28.8411 176.955 27.2297 176.791 25.6055 176.791C11.4866 176.791 0 188.278 0 202.396C0 216.515 11.4866 228.002 25.6055 228.002C27.2297 228.002 28.8411 227.839 30.4219 227.536L57.2658 276.36C53.4275 280.924 51.2109 286.772 51.2109 292.869C51.2109 298.967 53.4284 304.816 57.2649 309.379L30.4219 358.203C28.8411 357.9 27.2297 357.736 25.6055 357.736C11.4866 357.736 0 369.223 0 383.342C0 397.461 11.4866 408.947 25.6055 408.947C39.7243 408.947 51.2109 397.461 51.2109 383.342C51.2109 377.243 48.9935 371.395 45.157 366.832L72 318.008C73.5807 318.311 75.1922 318.475 76.8164 318.475C87.9428 318.475 97.4305 311.338 100.954 301.404H168.757C172.28 311.338 181.767 318.475 192.895 318.475C194.519 318.475 196.13 318.311 197.711 318.009L224.555 366.834C220.717 371.397 218.5 377.245 218.5 383.342C218.5 397.461 229.987 408.947 244.105 408.947C255.232 408.947 264.72 401.811 268.243 391.877H336.046C339.569 401.811 349.056 408.947 360.184 408.947C374.302 408.947 385.789 397.461 385.789 383.342C385.789 377.243 383.572 371.395 379.735 366.832L406.578 318.009C408.16 318.311 409.77 318.475 411.395 318.475C425.513 318.475 437 306.988 437 292.869C437 278.75 425.513 267.264 411.395 267.264ZM411.395 103.389C416.101 103.389 419.93 107.218 419.93 111.924C419.93 116.63 416.101 120.459 411.395 120.459C409.845 120.459 408.328 120.04 407.001 119.242C404.408 117.687 402.859 114.951 402.859 111.924C402.859 107.218 406.688 103.389 411.395 103.389ZM244.105 18.0371C248.812 18.0371 252.641 21.866 252.641 26.5723C252.641 31.2786 248.812 35.1074 244.105 35.1074C242.556 35.1074 241.04 34.6883 239.714 33.8912C239.629 33.8032 235.57 31.6421 235.57 26.5723C235.57 21.866 239.399 18.0371 244.105 18.0371ZM25.6055 391.877C20.8992 391.877 17.0703 388.048 17.0703 383.342C17.0703 378.635 20.8992 374.807 25.6055 374.807C30.1931 374.807 34.1406 378.48 34.1406 383.342C34.1406 388.048 30.3118 391.877 25.6055 391.877ZM360.184 193.861C364.772 193.861 368.719 197.535 368.719 202.396C368.719 207.311 364.718 210.932 360.184 210.932C355.477 210.932 351.648 207.103 351.648 202.396C351.648 197.69 355.477 193.861 360.184 193.861ZM244.105 193.861C248.812 193.861 252.641 197.69 252.641 202.396C252.641 207.103 248.812 210.932 244.105 210.932C239.517 210.932 235.57 207.258 235.57 202.396C235.57 197.555 239.5 193.861 244.105 193.861ZM197.286 104.605C197.371 104.693 201.43 106.855 201.43 111.924C201.43 116.847 197.421 120.459 192.895 120.459C188.188 120.459 184.359 116.63 184.359 111.924C184.359 105.283 191.637 101.211 197.286 104.605ZM76.8164 103.389C81.5227 103.389 85.3516 107.218 85.3516 111.924C85.3516 116.63 81.5227 120.459 76.8164 120.459C72.2288 120.459 68.2812 116.785 68.2812 111.924C68.2812 107.218 72.1101 103.389 76.8164 103.389ZM25.6055 210.932C20.8992 210.932 17.0703 207.103 17.0703 202.396C17.0703 197.69 20.8992 193.861 25.6055 193.861C30.1931 193.861 34.1406 197.535 34.1406 202.396C34.1406 207.369 30.089 210.932 25.6055 210.932ZM76.8164 301.404C72.2288 301.404 68.2812 297.731 68.2812 292.869C68.2812 288.025 72.2142 284.334 76.8164 284.334C81.5227 284.334 85.3516 288.163 85.3516 292.869C85.3516 297.575 81.5227 301.404 76.8164 301.404ZM168.757 284.334H100.954C97.4305 274.4 87.9437 267.264 76.8164 267.264C75.1922 267.264 73.5807 267.428 72 267.73L45.1561 218.905C48.9944 214.341 51.2109 208.494 51.2109 202.396C51.2109 196.298 48.9935 190.45 45.157 185.887L72 137.062C73.5807 137.365 75.1922 137.529 76.8164 137.529C87.9428 137.529 97.4305 130.393 100.954 120.459H168.757C172.28 130.393 181.767 137.529 192.895 137.529C194.519 137.529 196.13 137.365 197.711 137.063L224.555 185.889C220.717 190.452 218.5 196.3 218.5 202.396C218.5 208.495 220.717 214.343 224.554 218.906L197.711 267.73C196.13 267.428 194.519 267.264 192.895 267.264C181.768 267.264 172.28 274.4 168.757 284.334ZM197.288 300.187C197.285 300.189 197.282 300.191 197.28 300.192C195.96 300.985 194.444 301.404 192.895 301.404C188.188 301.404 184.359 297.575 184.359 292.869C184.359 288.163 188.188 284.334 192.895 284.334C194.444 284.334 195.96 284.753 197.288 285.551C199.881 287.106 201.43 289.842 201.43 292.869C201.43 295.897 199.881 298.632 197.288 300.187ZM244.105 391.877C239.399 391.877 235.57 388.048 235.57 383.342C235.57 378.501 239.5 374.807 244.105 374.807C248.812 374.807 252.641 378.635 252.641 383.342C252.641 388.048 248.812 391.877 244.105 391.877ZM360.184 391.877C355.477 391.877 351.648 388.048 351.648 383.342C351.648 378.635 355.477 374.807 360.184 374.807C364.772 374.807 368.719 378.48 368.719 383.342C368.719 388.048 364.89 391.877 360.184 391.877ZM391.844 309.378L365 358.202C363.418 357.9 361.808 357.736 360.184 357.736C349.057 357.736 339.569 364.873 336.046 374.807H268.243C264.72 364.873 255.233 357.736 244.105 357.736C242.481 357.736 240.87 357.9 239.289 358.202L212.445 309.378C216.283 304.814 218.5 298.966 218.5 292.869C218.5 286.771 216.283 280.922 212.446 276.36L239.289 227.536C240.87 227.838 242.481 228.002 244.105 228.002C255.232 228.002 264.72 220.866 268.243 210.932H336.046C339.569 220.866 349.056 228.002 360.184 228.002C361.808 228.002 363.419 227.839 365 227.536L391.844 276.36C388.006 280.924 385.789 286.772 385.789 292.869C385.789 298.966 388.006 304.814 391.844 309.378ZM411.395 301.404C406.847 301.404 402.859 297.769 402.859 292.869C402.859 288.028 406.789 284.334 411.395 284.334C416.101 284.334 419.93 288.163 419.93 292.869C419.93 297.575 416.101 301.404 411.395 301.404Z" fill="#8E3298"/>
</svg>
