<svg width="442" height="442" viewBox="0 0 442 442" fill="none" xmlns="http://www.w3.org/2000/svg">
<g clip-path="url(#clip0)">
<path d="M397.453 203.163C392.759 210.939 385.536 216.817 378.666 221.944C371.095 227.077 363.875 231.52 357.962 236.535C354.838 239.032 352.164 241.678 350.161 244.721C349.641 245.479 349.243 246.275 348.751 247.071C348.228 247.867 347.75 248.689 347.31 249.546C346.437 251.264 345.75 253.113 345.271 255.152C345.031 256.176 344.857 257.184 344.742 258.176C344.6 259.161 344.36 260.083 344.266 261.027C344.038 262.911 344.045 264.757 344.241 266.6C344.434 268.449 344.825 270.292 345.365 272.147C345.75 273.932 346.251 275.717 346.899 277.541C348.183 281.169 349.959 284.896 351.914 288.758C353.914 292.639 355.59 296.376 357.474 300.434C359.291 304.447 361.025 308.627 362.386 312.983C363.754 317.333 364.287 321.565 364.389 326.117C364.406 328.37 364.258 330.666 363.908 332.997C363.574 335.35 363.025 337.722 361.994 339.918C360.068 344.419 357.147 348.997 353.057 353.498C348.556 357.594 343.971 360.516 339.48 362.442C337.274 363.469 334.902 364.015 332.555 364.349C330.221 364.702 327.929 364.856 325.669 364.83C321.117 364.734 316.887 364.195 312.534 362.834C308.179 361.466 304.008 359.739 299.988 357.922C295.937 356.034 292.195 354.358 288.31 352.355C284.452 350.397 280.727 348.631 277.094 347.347C275.276 346.698 273.492 346.197 271.701 345.812C269.845 345.273 268.002 344.881 266.16 344.682C264.31 344.489 262.464 344.483 260.588 344.71C259.642 344.806 258.718 345.05 257.731 345.191C256.734 345.3 255.733 345.474 254.714 345.718C252.671 346.199 250.815 346.886 249.103 347.76C248.247 348.19 247.427 348.678 246.63 349.198C245.827 349.692 245.033 350.091 244.271 350.61C241.229 352.607 238.586 355.285 236.086 358.405C231.079 364.315 226.638 371.545 221.503 379.112C216.374 385.985 210.49 393.209 202.717 397.896C198.851 400.079 194.5 401.736 189.58 402.615C188.354 402.814 187.084 403.046 185.799 403.084C184.524 403.084 183.212 403.038 181.864 402.93C179.171 402.709 176.343 402.256 173.389 401.53C171.91 401.165 170.493 400.76 169.139 400.31C167.791 399.835 166.552 399.155 165.344 398.538C162.944 397.254 160.773 395.842 158.828 394.32C156.88 392.805 155.161 391.18 153.634 389.479C152.171 387.623 150.918 385.652 149.819 383.655C147.628 379.655 146.117 375.469 145.012 371.234C143.887 367.042 143.451 362.29 143.008 357.924C142.667 353.584 142.329 349.256 141.995 345.031C141.634 340.916 141.46 336.562 140.761 332.771C140.427 330.845 140.01 329.002 139.449 327.243C138.885 325.503 138.188 323.852 137.518 322.042C136.068 318.549 133.969 315.428 130.791 312.655C128.017 309.476 124.895 307.377 121.402 305.932C119.595 305.261 117.942 304.558 116.204 303.993C114.45 303.444 112.604 303.017 110.675 302.683C106.888 301.99 102.529 301.816 98.4194 301.454C94.1894 301.117 89.8605 300.779 85.5278 300.436C81.1637 299.993 76.4046 299.556 72.2135 298.433C67.9822 297.338 63.7888 295.813 59.791 293.624C57.7932 292.529 55.8294 291.277 53.9658 289.813C52.264 288.285 50.6475 286.561 49.1265 284.619C47.6102 282.673 46.1906 280.509 44.9077 278.101C44.292 276.894 43.6098 275.662 43.1346 274.313C42.6919 272.952 42.2819 271.539 41.9243 270.063C41.1959 267.103 40.733 264.271 40.5172 261.584C40.4084 260.236 40.3632 258.923 40.3695 257.645C40.3996 256.361 40.6315 255.093 40.8347 253.866C41.7176 248.948 43.3741 244.595 45.5511 240.73C50.2376 232.954 57.4657 227.073 64.3356 221.946C71.905 216.806 79.127 212.372 85.0399 207.358C88.1613 204.86 90.8375 202.215 92.835 199.171C93.3531 198.413 93.7531 197.618 94.2485 196.815C94.7724 196.025 95.2553 195.203 95.6919 194.343C96.557 192.629 97.2457 190.783 97.7282 188.738C97.9703 187.71 98.1445 186.712 98.2588 185.717C98.3943 184.725 98.6463 183.807 98.734 182.856C98.9635 180.985 98.9574 179.136 98.7604 177.29C98.561 175.444 98.1709 173.601 97.6294 171.745C97.2457 169.96 96.7439 168.175 96.0945 166.352C94.8126 162.724 93.0482 158.994 91.087 155.135C89.0869 151.25 87.4075 147.507 85.5279 143.459C83.7118 139.436 81.9762 135.263 80.6157 130.913C79.2474 126.559 78.7094 122.328 78.6118 117.776C78.5954 115.522 78.7434 113.224 79.0934 110.886C79.4282 108.546 79.9724 106.167 81.0032 103.971C82.9342 99.4735 85.8499 94.8955 89.9457 90.3882C94.4453 86.2981 99.024 83.3767 103.522 81.4504C105.72 80.4232 108.101 79.8773 110.446 79.5371C112.775 79.184 115.073 79.0366 117.333 79.0621C121.885 79.1587 126.109 79.6973 130.47 81.0589C134.816 82.42 138.997 84.1537 143.008 85.9708C147.064 87.8585 150.81 89.5343 154.686 91.5375C158.55 93.4959 162.274 95.2615 165.908 96.5457C167.726 97.1946 169.509 97.695 171.3 98.0802C173.149 98.6162 174.993 99.0113 176.843 99.2039C178.692 99.403 180.542 99.4096 182.415 99.185C183.359 99.0884 184.284 98.8446 185.271 98.7036C186.262 98.5945 187.268 98.4115 188.291 98.1766C190.331 97.6952 192.181 97.008 193.893 96.1348C194.756 95.698 195.576 95.2134 196.372 94.6965C197.168 94.2024 197.972 93.8038 198.73 93.284C201.773 91.2872 204.417 88.6097 206.908 85.4893C211.924 79.5757 216.366 72.3492 221.503 64.776C226.624 57.9089 232.505 50.6856 240.281 45.9921C244.151 43.8155 248.499 42.1621 253.415 41.2793C254.643 41.08 255.92 40.8489 257.203 40.8107C258.476 40.8043 259.79 40.8561 261.138 40.9643C263.827 41.1827 266.661 41.6386 269.613 42.364C271.088 42.7299 272.509 43.1348 273.863 43.5839C275.214 44.0589 276.451 44.7397 277.661 45.3561C280.061 46.6402 282.223 48.0528 284.168 49.5745C286.115 51.0898 287.84 52.7142 289.362 54.4156C290.824 56.2713 292.083 58.2425 293.183 60.2296C295.366 64.233 296.889 68.4258 297.99 72.6602C299.115 76.8562 299.551 81.6043 299.988 85.9704C300.329 90.3108 300.67 94.6384 301.005 98.8632C301.368 102.979 301.541 107.332 302.24 111.127C302.569 113.05 302.991 114.893 303.549 116.652C304.116 118.385 304.808 120.042 305.484 121.853C306.937 125.346 309.036 128.466 312.21 131.23C314.981 134.412 318.106 136.518 321.592 137.962C323.409 138.637 325.059 139.33 326.796 139.898C328.552 140.451 330.395 140.874 332.321 141.211C336.116 141.905 340.469 142.077 344.581 142.444C348.806 142.778 353.14 143.115 357.474 143.458C361.843 143.895 366.592 144.335 370.784 145.458C375.022 146.56 379.215 148.078 383.215 150.271C385.202 151.366 387.173 152.621 389.029 154.082C390.73 155.606 392.355 157.33 393.87 159.276C395.395 161.221 396.804 163.385 398.088 165.787C398.711 166.994 399.392 168.233 399.861 169.581C400.31 170.936 400.715 172.352 401.081 173.832C401.806 176.788 402.262 179.623 402.48 182.314C402.589 183.652 402.637 184.972 402.634 186.249C402.596 187.534 402.364 188.802 402.162 190.028C401.286 194.946 399.629 199.3 397.453 203.165L397.453 203.163ZM221.499 0.942017C99.4462 0.942017 0.500488 99.8887 0.500488 221.944C0.500488 343.999 99.4462 442.942 221.499 442.942C343.557 442.942 442.5 343.999 442.5 221.944C442.5 99.8887 343.557 0.942017 221.499 0.942017Z" fill="#862D91"/>
<path d="M266.089 203.475C252.28 203.475 241.082 192.279 241.082 178.469C241.082 164.656 252.28 153.46 266.089 153.46C279.9 153.46 291.096 164.656 291.096 178.469C291.096 192.279 279.9 203.475 266.089 203.475ZM357.477 173.965C355.359 170.321 352.517 167.357 349.569 164.855C346.727 162.343 343.301 160.373 340.125 158.625C333.619 155.164 326.892 152.893 321.067 150.217C314.984 147.632 310.06 144.655 305.022 139.535C299.901 134.502 296.925 129.571 294.34 123.492C291.666 117.667 289.395 110.936 285.93 104.431C284.185 101.261 282.215 97.829 279.701 94.9868C277.197 92.042 274.235 89.1966 270.591 87.0762C263.399 82.614 253.223 80.2273 240.701 83.525C228.2 86.9318 220.572 94.1656 216.486 101.531C214.463 105.297 213.284 109.211 212.546 112.945C211.957 116.845 211.828 120.631 211.898 124.236C212.117 127.99 212.533 131.576 212.906 134.954C213.444 138.483 213.886 141.774 214.187 144.976C214.925 151.507 214.905 157.326 213.008 164.21C211.199 171.11 208.226 176.198 204.468 181.478C202.545 183.987 200.49 186.681 198.343 189.492C196.083 192.276 194.145 195.131 192.094 198.265C188.149 204.511 184.96 211.687 184.686 220.278C184.6 228.663 187.52 238.803 196.59 247.965C205.753 257.037 215.895 259.963 224.277 259.873C232.87 259.597 240.05 256.415 246.289 252.463C249.429 250.41 252.282 248.472 255.064 246.214C257.876 244.074 260.57 242.011 263.08 240.087C268.359 236.33 273.446 233.356 280.35 231.55C287.238 229.651 293.051 229.632 299.579 230.37C302.784 230.672 306.075 231.114 309.603 231.653C312.982 232.022 316.571 232.442 320.322 232.66C323.928 232.733 327.71 232.606 331.611 232.012C335.348 231.274 339.259 230.09 343.025 228.073C350.39 223.986 357.627 216.357 361.031 203.856C364.332 191.333 361.942 181.157 357.477 173.965" fill="#80C342"/>
</g>
<defs>
<clipPath id="clip0">
<rect width="442" height="442" fill="white"/>
</clipPath>
</defs>
</svg>
