<svg width="40" height="41" viewBox="0 0 40 41" fill="none" xmlns="http://www.w3.org/2000/svg">
<path d="M20 22.5777C18.7639 22.5777 17.5555 22.2127 16.5277 21.5289C15.4999 20.8452 14.6988 19.8733 14.2258 18.7362C13.7527 17.5992 13.6289 16.348 13.8701 15.1409C14.1113 13.9338 14.7065 12.825 15.5806 11.9547C16.4547 11.0844 17.5683 10.4918 18.7807 10.2517C19.9931 10.0115 21.2497 10.1348 22.3918 10.6058C23.5338 11.0768 24.5099 11.8743 25.1967 12.8977C25.8834 13.921 26.25 15.1241 26.25 16.3549C26.248 18.0046 25.5889 19.5863 24.4172 20.7529C23.2456 21.9194 21.657 22.5757 20 22.5777ZM20 12.6212C19.2583 12.6212 18.5333 12.8402 17.9166 13.2504C17.2999 13.6607 16.8193 14.2438 16.5355 14.9261C16.2516 15.6083 16.1774 16.359 16.3221 17.0833C16.4668 17.8075 16.8239 18.4728 17.3484 18.995C17.8728 19.5171 18.541 19.8727 19.2684 20.0168C19.9958 20.1609 20.7498 20.0869 21.4351 19.8043C22.1203 19.5217 22.706 19.0432 23.118 18.4292C23.5301 17.8152 23.75 17.0933 23.75 16.3549C23.749 15.3649 23.3536 14.4158 22.6506 13.7159C21.9475 13.0159 20.9943 12.6222 20 12.6212Z" fill="black"/>
<path d="M20 37.5122L9.45502 25.1301C9.30849 24.9441 9.16349 24.757 9.02002 24.5688C7.21874 22.2063 6.24565 19.3207 6.25001 16.3547C6.25001 12.7238 7.69867 9.24169 10.2773 6.6743C12.8559 4.1069 16.3533 2.66455 20 2.66455C23.6467 2.66455 27.1441 4.1069 29.7227 6.6743C32.3014 9.24169 33.75 12.7238 33.75 16.3547C33.7544 19.3194 32.7817 22.2037 30.9813 24.565L30.98 24.5688C30.98 24.5688 30.605 25.0591 30.5488 25.1251L20 37.5122ZM11.015 23.0691C11.0175 23.0691 11.3075 23.4524 11.3738 23.5345L20 33.664L28.6375 23.5208C28.6925 23.4524 28.985 23.0666 28.9863 23.0653C30.4577 21.1352 31.2529 18.7779 31.25 16.3547C31.25 13.384 30.0648 10.535 27.955 8.43437C25.8452 6.33377 22.9837 5.15367 20 5.15367C17.0163 5.15367 14.1548 6.33377 12.0451 8.43437C9.93528 10.535 8.75002 13.384 8.75002 16.3547C8.74739 18.7794 9.54349 21.138 11.0163 23.0691H11.015Z" fill="black"/>
</svg>
