<svg width="880" height="411" viewBox="0 0 880 411" fill="none" xmlns="http://www.w3.org/2000/svg">
<path d="M385.035 264.814C383.515 264.814 382.007 264.968 380.527 265.251L355.403 219.554C358.996 215.283 361.07 209.81 361.07 204.104C361.07 198.396 358.995 192.922 355.404 188.652L380.527 142.956C382.007 143.239 383.515 143.393 385.035 143.393C398.249 143.393 409 132.642 409 119.428C409 106.214 398.249 95.4629 385.035 95.4629C371.821 95.4629 361.07 106.214 361.07 119.428C361.07 125.135 363.146 130.609 366.736 134.879L341.613 180.575C340.133 180.292 338.626 180.139 337.105 180.139C326.692 180.139 317.812 186.818 314.515 196.115H251.056C247.758 186.818 238.879 180.139 228.465 180.139C226.945 180.139 225.436 180.292 223.957 180.575L198.833 134.879C202.425 130.607 204.5 125.134 204.5 119.428C204.5 113.81 202.485 108.422 198.998 104.182L223.69 63.0281C225.255 63.346 226.854 63.5098 228.465 63.5098C241.679 63.5098 252.43 52.7591 252.43 39.5449C252.43 26.3307 241.679 15.5801 228.465 15.5801C215.251 15.5801 204.5 26.3307 204.5 39.5449C204.5 45.1623 206.515 50.5504 210.002 54.7906L185.31 95.9446C183.746 95.6266 182.146 95.4629 180.535 95.4629C170.122 95.4629 161.242 102.142 157.944 111.439H94.4854C91.1878 102.142 82.3089 95.4629 71.8945 95.4629C58.6803 95.4629 47.9297 106.214 47.9297 119.428C47.9297 125.135 50.005 130.609 53.5958 134.879L28.4726 180.576C26.9932 180.292 25.485 180.139 23.9648 180.139C10.7506 180.139 0 190.889 0 204.104C0 217.318 10.7506 228.068 23.9648 228.068C25.485 228.068 26.9932 227.916 28.4726 227.632L53.5966 273.328C50.0042 277.6 47.9297 283.072 47.9297 288.779C47.9297 294.487 50.005 299.96 53.5958 304.231L28.4726 349.927C26.9932 349.644 25.485 349.49 23.9648 349.49C10.7506 349.49 0 360.241 0 373.455C0 386.669 10.7506 397.42 23.9648 397.42C37.1791 397.42 47.9297 386.669 47.9297 373.455C47.9297 367.747 45.8543 362.274 42.2636 358.003L67.3867 312.307C68.8662 312.591 70.3744 312.744 71.8945 312.744C82.3081 312.744 91.1878 306.065 94.4854 296.768H157.944C161.242 306.065 170.121 312.744 180.535 312.744C182.055 312.744 183.564 312.591 185.043 312.308L210.167 358.005C206.575 362.275 204.5 367.749 204.5 373.455C204.5 386.669 215.251 397.42 228.465 397.42C238.878 397.42 247.758 390.741 251.056 381.443H314.515C317.812 390.741 326.691 397.42 337.105 397.42C350.32 397.42 361.07 386.669 361.07 373.455C361.07 367.747 358.995 362.274 355.404 358.003L380.527 312.308C382.008 312.591 383.515 312.744 385.035 312.744C398.249 312.744 409 301.993 409 288.779C409 275.565 398.249 264.814 385.035 264.814ZM385.035 111.439C389.44 111.439 393.023 115.023 393.023 119.428C393.023 123.832 389.44 127.416 385.035 127.416C383.585 127.416 382.165 127.024 380.924 126.277C378.496 124.821 377.047 122.261 377.047 119.428C377.047 115.023 380.63 111.439 385.035 111.439ZM228.465 31.5566C232.87 31.5566 236.453 35.1402 236.453 39.5449C236.453 43.9497 232.87 47.5332 228.465 47.5332C227.015 47.5332 225.596 47.141 224.355 46.3949C224.275 46.3126 220.477 44.29 220.477 39.5449C220.477 35.1402 224.06 31.5566 228.465 31.5566ZM23.9648 381.443C19.5601 381.443 15.9766 377.86 15.9766 373.455C15.9766 369.05 19.5601 365.467 23.9648 365.467C28.2585 365.467 31.9531 368.905 31.9531 373.455C31.9531 377.86 28.3696 381.443 23.9648 381.443ZM337.105 196.115C341.4 196.115 345.094 199.553 345.094 204.104C345.094 208.703 341.35 212.092 337.105 212.092C332.701 212.092 329.117 208.508 329.117 204.104C329.117 199.699 332.701 196.115 337.105 196.115ZM228.465 196.115C232.87 196.115 236.453 199.699 236.453 204.104C236.453 208.508 232.87 212.092 228.465 212.092C224.17 212.092 220.477 208.654 220.477 204.104C220.477 199.573 224.154 196.115 228.465 196.115ZM184.645 112.578C184.725 112.66 188.523 114.683 188.523 119.428C188.523 124.035 184.771 127.416 180.535 127.416C176.13 127.416 172.547 123.832 172.547 119.428C172.547 113.213 179.358 109.402 184.645 112.578ZM71.8945 111.439C76.2993 111.439 79.8828 115.023 79.8828 119.428C79.8828 123.832 76.2993 127.416 71.8945 127.416C67.6008 127.416 63.9062 123.978 63.9062 119.428C63.9062 115.023 67.4898 111.439 71.8945 111.439ZM23.9648 212.092C19.5601 212.092 15.9766 208.508 15.9766 204.104C15.9766 199.699 19.5601 196.115 23.9648 196.115C28.2585 196.115 31.9531 199.553 31.9531 204.104C31.9531 208.757 28.1611 212.092 23.9648 212.092ZM71.8945 296.768C67.6008 296.768 63.9062 293.329 63.9062 288.779C63.9062 284.245 67.5872 280.791 71.8945 280.791C76.2993 280.791 79.8828 284.375 79.8828 288.779C79.8828 293.184 76.2993 296.768 71.8945 296.768ZM157.944 280.791H94.4854C91.1878 271.493 82.3089 264.814 71.8945 264.814C70.3744 264.814 68.8662 264.968 67.3867 265.251L42.2628 219.554C45.8551 215.283 47.9297 209.81 47.9297 204.104C47.9297 198.396 45.8543 192.922 42.2636 188.652L67.3867 142.956C68.8662 143.239 70.3744 143.393 71.8945 143.393C82.3081 143.393 91.1878 136.714 94.4854 127.416H157.944C161.242 136.714 170.121 143.393 180.535 143.393C182.055 143.393 183.564 143.239 185.043 142.956L210.167 188.653C206.575 192.924 204.5 198.397 204.5 204.104C204.5 209.811 206.575 215.285 210.166 219.555L185.043 265.251C183.564 264.968 182.055 264.814 180.535 264.814C170.122 264.814 161.242 271.493 157.944 280.791ZM184.647 295.628C184.644 295.63 184.642 295.632 184.64 295.633C183.405 296.375 181.985 296.768 180.535 296.768C176.13 296.768 172.547 293.184 172.547 288.779C172.547 284.375 176.13 280.791 180.535 280.791C181.985 280.791 183.405 281.183 184.647 281.93C187.074 283.386 188.523 285.946 188.523 288.779C188.523 291.613 187.074 294.173 184.647 295.628ZM228.465 381.443C224.06 381.443 220.477 377.86 220.477 373.455C220.477 368.924 224.154 365.467 228.465 365.467C232.87 365.467 236.453 369.05 236.453 373.455C236.453 377.86 232.87 381.443 228.465 381.443ZM337.105 381.443C332.701 381.443 329.117 377.86 329.117 373.455C329.117 369.05 332.701 365.467 337.105 365.467C341.4 365.467 345.094 368.905 345.094 373.455C345.094 377.86 341.51 381.443 337.105 381.443ZM366.737 304.23L341.613 349.926C340.133 349.644 338.626 349.49 337.105 349.49C326.692 349.49 317.812 356.169 314.515 365.467H251.056C247.758 356.169 238.879 349.49 228.465 349.49C226.945 349.49 225.436 349.644 223.957 349.926L198.833 304.23C202.425 299.959 204.5 294.485 204.5 288.779C204.5 283.072 202.425 277.598 198.834 273.328L223.957 227.632C225.436 227.915 226.945 228.068 228.465 228.068C238.878 228.068 247.758 221.389 251.056 212.092H314.515C317.812 221.389 326.691 228.068 337.105 228.068C338.626 228.068 340.134 227.916 341.613 227.632L366.737 273.328C363.145 277.6 361.07 283.073 361.07 288.779C361.07 294.485 363.145 299.959 366.737 304.23ZM385.035 296.768C380.779 296.768 377.047 293.365 377.047 288.779C377.047 284.248 380.725 280.791 385.035 280.791C389.44 280.791 393.023 284.375 393.023 288.779C393.023 293.184 389.44 296.768 385.035 296.768Z" fill="#8E3298"/>
<path d="M856.035 262.814C854.515 262.814 853.007 262.968 851.527 263.251L826.403 217.554C829.996 213.283 832.07 207.81 832.07 202.104C832.07 196.396 829.995 190.922 826.404 186.652L851.527 140.956C853.007 141.239 854.515 141.393 856.035 141.393C869.249 141.393 880 130.642 880 117.428C880 104.214 869.249 93.4629 856.035 93.4629C842.821 93.4629 832.07 104.214 832.07 117.428C832.07 123.135 834.146 128.609 837.736 132.879L812.613 178.575C811.133 178.292 809.626 178.139 808.105 178.139C797.692 178.139 788.812 184.818 785.515 194.115H722.056C718.758 184.818 709.879 178.139 699.465 178.139C697.945 178.139 696.436 178.292 694.957 178.575L669.833 132.879C673.425 128.607 675.5 123.134 675.5 117.428C675.5 111.81 673.485 106.422 669.998 102.182L694.69 61.0281C696.255 61.346 697.854 61.5098 699.465 61.5098C712.679 61.5098 723.43 50.7591 723.43 37.5449C723.43 24.3307 712.679 13.5801 699.465 13.5801C686.251 13.5801 675.5 24.3307 675.5 37.5449C675.5 43.1623 677.515 48.5504 681.002 52.7906L656.31 93.9446C654.746 93.6266 653.146 93.4629 651.535 93.4629C641.122 93.4629 632.242 100.142 628.944 109.439H565.485C562.188 100.142 553.309 93.4629 542.895 93.4629C529.68 93.4629 518.93 104.214 518.93 117.428C518.93 123.135 521.005 128.609 524.596 132.879L499.473 178.576C497.993 178.292 496.485 178.139 494.965 178.139C481.751 178.139 471 188.889 471 202.104C471 215.318 481.751 226.068 494.965 226.068C496.485 226.068 497.993 225.916 499.473 225.632L524.597 271.328C521.004 275.6 518.93 281.072 518.93 286.779C518.93 292.487 521.005 297.96 524.596 302.231L499.473 347.927C497.993 347.644 496.485 347.49 494.965 347.49C481.751 347.49 471 358.241 471 371.455C471 384.669 481.751 395.42 494.965 395.42C508.179 395.42 518.93 384.669 518.93 371.455C518.93 365.747 516.854 360.274 513.264 356.003L538.387 310.307C539.866 310.591 541.374 310.744 542.895 310.744C553.308 310.744 562.188 304.065 565.485 294.768H628.944C632.242 304.065 641.121 310.744 651.535 310.744C653.055 310.744 654.564 310.591 656.043 310.308L681.167 356.005C677.575 360.275 675.5 365.749 675.5 371.455C675.5 384.669 686.251 395.42 699.465 395.42C709.878 395.42 718.758 388.741 722.056 379.443H785.515C788.812 388.741 797.691 395.42 808.105 395.42C821.32 395.42 832.07 384.669 832.07 371.455C832.07 365.747 829.995 360.274 826.404 356.003L851.527 310.308C853.008 310.591 854.515 310.744 856.035 310.744C869.249 310.744 880 299.993 880 286.779C880 273.565 869.249 262.814 856.035 262.814ZM856.035 109.439C860.44 109.439 864.023 113.023 864.023 117.428C864.023 121.832 860.44 125.416 856.035 125.416C854.585 125.416 853.165 125.024 851.924 124.277C849.496 122.821 848.047 120.261 848.047 117.428C848.047 113.023 851.63 109.439 856.035 109.439ZM699.465 29.5566C703.87 29.5566 707.453 33.1402 707.453 37.5449C707.453 41.9497 703.87 45.5332 699.465 45.5332C698.015 45.5332 696.596 45.141 695.355 44.3949C695.275 44.3126 691.477 42.29 691.477 37.5449C691.477 33.1402 695.06 29.5566 699.465 29.5566ZM494.965 379.443C490.56 379.443 486.977 375.86 486.977 371.455C486.977 367.05 490.56 363.467 494.965 363.467C499.259 363.467 502.953 366.905 502.953 371.455C502.953 375.86 499.37 379.443 494.965 379.443ZM808.105 194.115C812.4 194.115 816.094 197.553 816.094 202.104C816.094 206.703 812.35 210.092 808.105 210.092C803.701 210.092 800.117 206.508 800.117 202.104C800.117 197.699 803.701 194.115 808.105 194.115ZM699.465 194.115C703.87 194.115 707.453 197.699 707.453 202.104C707.453 206.508 703.87 210.092 699.465 210.092C695.17 210.092 691.477 206.654 691.477 202.104C691.477 197.573 695.154 194.115 699.465 194.115ZM655.645 110.578C655.725 110.66 659.523 112.683 659.523 117.428C659.523 122.035 655.771 125.416 651.535 125.416C647.13 125.416 643.547 121.832 643.547 117.428C643.547 111.213 650.358 107.402 655.645 110.578ZM542.895 109.439C547.299 109.439 550.883 113.023 550.883 117.428C550.883 121.832 547.299 125.416 542.895 125.416C538.601 125.416 534.906 121.978 534.906 117.428C534.906 113.023 538.49 109.439 542.895 109.439ZM494.965 210.092C490.56 210.092 486.977 206.508 486.977 202.104C486.977 197.699 490.56 194.115 494.965 194.115C499.259 194.115 502.953 197.553 502.953 202.104C502.953 206.757 499.161 210.092 494.965 210.092ZM542.895 294.768C538.601 294.768 534.906 291.329 534.906 286.779C534.906 282.245 538.587 278.791 542.895 278.791C547.299 278.791 550.883 282.375 550.883 286.779C550.883 291.184 547.299 294.768 542.895 294.768ZM628.944 278.791H565.485C562.188 269.493 553.309 262.814 542.895 262.814C541.374 262.814 539.866 262.968 538.387 263.251L513.263 217.554C516.855 213.283 518.93 207.81 518.93 202.104C518.93 196.396 516.854 190.922 513.264 186.652L538.387 140.956C539.866 141.239 541.374 141.393 542.895 141.393C553.308 141.393 562.188 134.714 565.485 125.416H628.944C632.242 134.714 641.121 141.393 651.535 141.393C653.055 141.393 654.564 141.239 656.043 140.956L681.167 186.653C677.575 190.924 675.5 196.397 675.5 202.104C675.5 207.811 677.575 213.285 681.166 217.555L656.043 263.251C654.564 262.968 653.055 262.814 651.535 262.814C641.122 262.814 632.242 269.493 628.944 278.791ZM655.647 293.628C655.644 293.63 655.642 293.632 655.64 293.633C654.405 294.375 652.985 294.768 651.535 294.768C647.13 294.768 643.547 291.184 643.547 286.779C643.547 282.375 647.13 278.791 651.535 278.791C652.985 278.791 654.405 279.183 655.647 279.93C658.074 281.386 659.523 283.946 659.523 286.779C659.523 289.613 658.074 292.173 655.647 293.628ZM699.465 379.443C695.06 379.443 691.477 375.86 691.477 371.455C691.477 366.924 695.154 363.467 699.465 363.467C703.87 363.467 707.453 367.05 707.453 371.455C707.453 375.86 703.87 379.443 699.465 379.443ZM808.105 379.443C803.701 379.443 800.117 375.86 800.117 371.455C800.117 367.05 803.701 363.467 808.105 363.467C812.4 363.467 816.094 366.905 816.094 371.455C816.094 375.86 812.51 379.443 808.105 379.443ZM837.737 302.23L812.613 347.926C811.133 347.644 809.626 347.49 808.105 347.49C797.692 347.49 788.812 354.169 785.515 363.467H722.056C718.758 354.169 709.879 347.49 699.465 347.49C697.945 347.49 696.436 347.644 694.957 347.926L669.833 302.23C673.425 297.959 675.5 292.485 675.5 286.779C675.5 281.072 673.425 275.598 669.834 271.328L694.957 225.632C696.436 225.915 697.945 226.068 699.465 226.068C709.878 226.068 718.758 219.389 722.056 210.092H785.515C788.812 219.389 797.691 226.068 808.105 226.068C809.626 226.068 811.134 225.916 812.613 225.632L837.737 271.328C834.145 275.6 832.07 281.073 832.07 286.779C832.07 292.485 834.145 297.959 837.737 302.23ZM856.035 294.768C851.779 294.768 848.047 291.365 848.047 286.779C848.047 282.248 851.725 278.791 856.035 278.791C860.44 278.791 864.023 282.375 864.023 286.779C864.023 291.184 860.44 294.768 856.035 294.768Z" fill="#8E3298"/>
</svg>
