<svg width="414" height="330" viewBox="0 0 414 330" fill="none" xmlns="http://www.w3.org/2000/svg">
<path d="M95.1113 511.794C35.0618 506.815 -17.8349 553.208 -23.0183 615.414C-28.2028 677.635 16.2897 732.102 76.3392 737.081C136.399 742.06 189.284 695.667 194.469 633.446C199.652 571.24 155.171 516.774 95.1113 511.794ZM481.441 677.667C470.866 693.319 457.395 705.646 443.636 715.854C430.333 726.143 414.696 733.78 400.229 740.51C370.64 753.756 340.535 761.561 314.196 771.512C286.775 780.965 264.244 792.599 240.417 813.845C216.257 834.67 201.465 855.806 187.941 882.257C174.126 907.534 161.726 937.031 144.218 965.086C135.438 978.733 125.583 993.484 113.585 1005.38C101.592 1017.74 87.6429 1029.49 71.0015 1037.73C38.0484 1055.23 -7.09485 1062.32 -60.3101 1042.95C-113.392 1023.09 -143.851 987.76 -158.856 953.11C-166.238 935.417 -169.897 917.363 -171.705 900.277C-172.802 882.494 -171.942 865.396 -170.283 849.18C-167.922 832.353 -164.766 816.348 -161.875 801.267C-158.212 785.566 -155.054 770.9 -152.543 756.588C-146.884 727.434 -144.786 701.215 -150.452 669.522C-155.731 637.787 -166.746 613.799 -181.106 588.659C-188.529 576.666 -196.455 563.787 -204.734 550.355C-213.52 536.998 -220.872 523.439 -228.616 508.582C-243.425 479.026 -254.601 445.552 -252.569 406.756C-249.797 368.953 -233.29 324.33 -190.411 286.332C-147.161 248.771 -101.958 239.25 -65.5422 242.677C-28.2812 247.016 1.74811 263.94 27.3958 283.992C40.2807 294.372 51.9617 304.129 63.2098 315.304C74.6351 325.956 85.5761 336.218 95.7694 345.793C117.317 364.617 138.318 379.846 167.665 390.471C196.906 401.509 222.177 403.691 250.839 402.721C264.891 402.517 279.366 401.713 294.914 400.556C309.743 400.111 325.507 399.512 341.903 399.883C357.612 400.855 374.011 402.793 390.751 406.874C406.725 411.543 423.286 418.287 438.905 428.733C469.4 449.798 498.008 486.769 508.116 544.308C517.77 601.91 503.558 646.883 481.441 677.669" fill="#80C342"/>
<path d="M481.441 677.667C470.866 693.319 457.395 705.646 443.636 715.854C430.333 726.143 414.696 733.78 400.229 740.51C370.64 753.756 340.535 761.561 314.196 771.512C286.775 780.965 264.244 792.599 240.417 813.845C216.257 834.67 201.465 855.806 187.941 882.257C174.126 907.534 161.726 937.031 144.218 965.086C135.438 978.733 125.583 993.484 113.585 1005.38C101.592 1017.74 87.6429 1029.49 71.0015 1037.73C38.0484 1055.23 -7.09485 1062.32 -60.3101 1042.95C-113.392 1023.09 -143.851 987.76 -158.856 953.11C-166.238 935.417 -169.897 917.363 -171.705 900.277C-172.802 882.494 -171.942 865.396 -170.283 849.18C-167.922 832.353 -164.766 816.348 -161.875 801.267C-158.212 785.566 -155.054 770.9 -152.543 756.588C-146.884 727.434 -144.786 701.215 -150.452 669.522C-155.731 637.787 -166.746 613.799 -181.106 588.659C-188.529 576.666 -196.455 563.787 -204.734 550.355C-213.52 536.998 -220.872 523.439 -228.616 508.582C-243.425 479.026 -254.601 445.552 -252.569 406.756C-249.797 368.953 -233.29 324.33 -190.411 286.332C-147.161 248.771 -101.958 239.25 -65.5422 242.677C-28.2812 247.016 1.74811 263.94 27.3958 283.992C40.2807 294.372 51.9617 304.129 63.2098 315.304C74.6351 325.956 85.5761 336.218 95.7694 345.793C117.317 364.617 138.318 379.846 167.665 390.471C196.906 401.509 222.177 403.691 250.839 402.721C264.891 402.517 279.366 401.713 294.914 400.556C309.743 400.111 325.507 399.512 341.903 399.883C357.612 400.855 374.011 402.793 390.751 406.874C406.725 411.543 423.286 418.287 438.905 428.733C469.4 449.798 498.008 486.769 508.116 544.308C517.77 601.91 503.558 646.883 481.441 677.669M95.1113 511.794C35.0618 506.815 -17.8349 553.208 -23.0183 615.414C-28.2028 677.635 16.2897 732.102 76.3392 737.081C136.399 742.06 189.284 695.667 194.469 633.446C199.652 571.24 155.171 516.774 95.1113 511.794Z" stroke="#80C342"/>
<mask id="path-3-inside-1" fill="white">
<path d="M3.75711 156.254C-8.72576 170.488 -15.8032 188.511 -21.6099 205.357C-26.9802 223.59 -31.1997 240.692 -37.3969 255.576C-40.3691 263.342 -43.9242 270.313 -48.7034 276.213C-49.8802 277.724 -51.2104 279.018 -52.4818 280.497C-53.7329 282.038 -55.0634 283.508 -56.4893 284.924C-59.3517 287.744 -62.5959 290.281 -66.3517 292.527C-68.238 293.656 -70.1357 294.641 -72.0386 295.502C-73.912 296.41 -75.5937 297.473 -77.4151 298.259C-81.0245 299.912 -84.7076 301.076 -88.5059 301.864C-92.3148 302.662 -96.239 303.064 -100.283 303.181C-104.088 303.558 -107.967 303.707 -112.017 303.588C-120.072 303.364 -128.64 302.233 -137.592 300.832C-146.611 299.355 -155.135 298.427 -164.432 297.291C-173.596 296.259 -183.04 295.499 -192.596 295.587C-202.144 295.659 -210.918 297.304 -220.057 300.004C-224.559 301.408 -229.039 303.165 -233.459 305.343C-237.934 307.504 -242.31 310.102 -246.025 313.539C-253.758 320.215 -261.007 328.908 -267.351 339.861C-272.625 351.368 -275.504 362.29 -276.459 372.394C-277.09 377.408 -276.655 382.444 -275.814 387.295C-275.019 392.132 -273.854 396.76 -272.352 401.21C-269.237 410.144 -265.448 418.158 -259.939 425.892C-254.417 433.626 -248.297 440.768 -242.094 447.554C-235.731 454.354 -229.989 460.68 -223.502 467.08C-217.123 473.455 -211.212 479.691 -206.32 486.051C-203.86 489.229 -201.717 492.435 -199.8 495.728C-197.532 499.053 -195.569 502.446 -193.989 505.959C-192.417 509.492 -191.219 513.135 -190.466 516.987C-190.052 518.917 -189.944 520.899 -189.592 522.939C-189.169 524.979 -188.873 527.068 -188.705 529.238C-188.352 533.582 -188.53 537.688 -189.172 541.627C-189.479 543.594 -189.925 545.526 -190.45 547.431C-190.919 549.335 -191.204 551.158 -191.751 552.994C-193.777 560.279 -197.416 567.211 -202.03 574.14C-210.594 587.805 -222.152 601.191 -233.935 616.164C-244.341 630.683 -254.959 646.917 -259.309 665.266C-261.178 674.298 -261.685 683.954 -260.28 694.237C-259.889 696.788 -259.535 699.443 -258.786 702.007C-257.968 704.528 -257.035 707.091 -255.954 709.686C-253.784 714.866 -251.065 720.165 -247.723 725.541C-246.044 728.229 -244.328 730.771 -242.563 733.162C-240.751 735.523 -238.598 737.537 -236.595 739.53C-232.494 743.455 -228.285 746.844 -224.004 749.717C-219.734 752.599 -215.392 754.961 -211.021 756.894C-206.383 758.602 -201.65 759.821 -196.965 760.719C-187.586 762.497 -178.273 762.814 -169.125 762.296C-160.046 761.845 -150.297 759.678 -141.311 757.768C-132.442 755.674 -123.6 753.583 -114.966 751.548C-106.531 749.637 -97.7435 747.205 -89.7388 746.168C-85.6859 745.599 -81.7453 745.248 -77.8792 745.234C-74.049 745.24 -70.3129 745.565 -66.2743 745.734C-58.3824 746.371 -50.8155 748.53 -43.2474 753.04C-35.1321 756.495 -28.9429 761.327 -23.8214 767.307C-21.3245 770.451 -18.8614 773.269 -16.6195 776.343C-14.3994 779.46 -12.3629 782.836 -10.4593 786.434C-6.64568 793.475 -3.5005 801.979 -0.139968 809.869C3.24693 818.013 6.6991 826.352 10.1652 834.695C13.8505 843.037 17.7765 852.163 22.7061 859.729C27.6044 867.392 33.3358 874.706 40.2662 881.21C43.7308 884.46 47.4868 887.542 51.6009 890.291C55.7391 892.68 60.2126 894.775 65.0601 896.542C69.9108 898.298 75.1347 899.723 80.757 900.723C83.5579 901.17 86.4529 901.732 89.4452 901.811C92.4421 901.817 95.5206 901.727 98.6932 901.492C105.06 901.043 111 900.152 116.494 898.865C119.251 898.22 121.897 897.472 124.44 896.645C126.979 895.767 129.358 894.499 131.672 893.316C140.907 888.435 148.519 882.385 154.825 875.618C167.312 861.398 174.393 843.363 180.2 826.518C185.583 808.282 189.782 791.183 195.98 776.3C198.953 768.539 202.507 761.563 207.29 755.675C208.468 754.168 209.797 752.87 211.079 751.379C212.317 749.84 213.644 748.362 215.079 746.95C217.94 744.147 221.177 741.609 224.942 739.352C226.834 738.218 228.712 737.237 230.622 736.376C232.512 735.476 234.18 734.392 236.018 733.613C239.601 731.966 243.29 730.799 247.095 730.011C250.902 729.228 254.825 728.823 258.871 728.71C262.675 728.33 266.555 728.183 270.605 728.304C278.658 728.523 287.226 729.631 296.176 731.046C305.202 732.521 313.74 733.452 323.015 734.585C332.198 735.608 341.63 736.377 351.173 736.291C360.727 736.219 369.505 734.583 378.64 731.873C383.142 730.468 387.628 728.71 392.062 726.528C396.511 724.374 400.903 721.781 404.617 718.344C412.341 711.659 419.593 702.978 425.946 692.01C431.208 680.509 434.091 669.598 435.042 659.481C435.678 654.482 435.237 649.43 434.41 644.579C433.618 639.751 432.436 635.115 430.935 630.666C427.819 621.731 424.034 613.728 418.52 605.978C413.018 598.259 406.878 591.103 400.681 584.334C394.315 577.523 388.57 571.189 382.089 564.807C375.705 558.42 369.795 552.186 364.903 545.824C362.443 542.646 360.301 539.442 358.383 536.149C356.127 532.835 354.156 529.444 352.585 525.912C351 522.383 349.8 518.732 349.045 514.889C348.632 512.961 348.523 510.977 348.171 508.937C347.752 506.909 347.471 504.805 347.282 502.633C346.931 498.294 347.114 494.201 347.755 490.261C348.071 488.277 348.51 486.347 349.029 484.444C349.503 482.555 349.781 480.713 350.331 478.885C352.356 471.597 355.995 464.665 360.614 457.751C369.18 444.069 380.729 430.681 392.524 415.701C402.922 401.2 413.542 384.973 417.904 366.613C419.757 357.578 420.26 347.931 418.864 337.654C418.473 335.1 418.113 332.428 417.365 329.869C416.561 327.349 415.614 324.785 414.532 322.19C412.371 317.016 409.643 311.706 406.302 306.335C404.626 303.654 402.906 301.105 401.142 298.714C399.328 296.348 397.177 294.339 395.172 292.341C391.071 288.416 386.868 285.045 382.587 282.171C378.316 279.289 373.972 276.918 369.604 274.995C364.967 273.288 360.23 272.057 355.563 271.151C346.183 269.39 336.849 269.055 327.704 269.58C318.619 270.033 308.876 272.198 299.894 274.12C291.025 276.214 282.181 278.3 273.546 280.333C265.11 282.239 256.323 284.673 248.312 285.712C244.269 286.29 240.325 286.63 236.461 286.649C232.642 286.635 228.896 286.323 224.853 286.142C216.959 285.499 209.393 283.341 201.846 278.832C193.726 275.384 187.523 270.551 182.406 264.585C179.895 261.424 177.454 258.605 175.206 255.535C172.978 252.418 170.951 249.046 169.042 245.455C165.224 238.398 162.084 229.906 158.713 222.013C155.335 213.877 151.882 205.527 148.414 197.182C144.738 188.826 140.814 179.723 135.882 172.154C130.967 164.482 125.249 157.165 118.31 150.659C114.853 147.43 111.085 144.335 106.983 141.6C102.851 139.21 98.3726 137.099 93.5226 135.345C88.6661 133.573 83.449 132.168 77.8386 131.161C75.0331 130.7 72.1265 130.146 69.1383 130.079C66.1497 130.055 63.0683 130.159 59.8838 130.379C53.5253 130.831 47.5831 131.738 42.0812 133.022C39.3432 133.661 36.6827 134.407 34.1385 135.229C31.6037 136.123 29.2251 137.389 26.9108 138.571C17.6716 143.439 10.0592 149.489 3.75342 156.256L3.75711 156.254Z"/>
</mask>
<path d="M3.75711 156.254C-8.72576 170.488 -15.8032 188.511 -21.6099 205.357C-26.9802 223.59 -31.1997 240.692 -37.3969 255.576C-40.3691 263.342 -43.9242 270.313 -48.7034 276.213C-49.8802 277.724 -51.2104 279.018 -52.4818 280.497C-53.7329 282.038 -55.0634 283.508 -56.4893 284.924C-59.3517 287.744 -62.5959 290.281 -66.3517 292.527C-68.238 293.656 -70.1357 294.641 -72.0386 295.502C-73.912 296.41 -75.5937 297.473 -77.4151 298.259C-81.0245 299.912 -84.7076 301.076 -88.5059 301.864C-92.3148 302.662 -96.239 303.064 -100.283 303.181C-104.088 303.558 -107.967 303.707 -112.017 303.588C-120.072 303.364 -128.64 302.233 -137.592 300.832C-146.611 299.355 -155.135 298.427 -164.432 297.291C-173.596 296.259 -183.04 295.499 -192.596 295.587C-202.144 295.659 -210.918 297.304 -220.057 300.004C-224.559 301.408 -229.039 303.165 -233.459 305.343C-237.934 307.504 -242.31 310.102 -246.025 313.539C-253.758 320.215 -261.007 328.908 -267.351 339.861C-272.625 351.368 -275.504 362.29 -276.459 372.394C-277.09 377.408 -276.655 382.444 -275.814 387.295C-275.019 392.132 -273.854 396.76 -272.352 401.21C-269.237 410.144 -265.448 418.158 -259.939 425.892C-254.417 433.626 -248.297 440.768 -242.094 447.554C-235.731 454.354 -229.989 460.68 -223.502 467.08C-217.123 473.455 -211.212 479.691 -206.32 486.051C-203.86 489.229 -201.717 492.435 -199.8 495.728C-197.532 499.053 -195.569 502.446 -193.989 505.959C-192.417 509.492 -191.219 513.135 -190.466 516.987C-190.052 518.917 -189.944 520.899 -189.592 522.939C-189.169 524.979 -188.873 527.068 -188.705 529.238C-188.352 533.582 -188.53 537.688 -189.172 541.627C-189.479 543.594 -189.925 545.526 -190.45 547.431C-190.919 549.335 -191.204 551.158 -191.751 552.994C-193.777 560.279 -197.416 567.211 -202.03 574.14C-210.594 587.805 -222.152 601.191 -233.935 616.164C-244.341 630.683 -254.959 646.917 -259.309 665.266C-261.178 674.298 -261.685 683.954 -260.28 694.237C-259.889 696.788 -259.535 699.443 -258.786 702.007C-257.968 704.528 -257.035 707.091 -255.954 709.686C-253.784 714.866 -251.065 720.165 -247.723 725.541C-246.044 728.229 -244.328 730.771 -242.563 733.162C-240.751 735.523 -238.598 737.537 -236.595 739.53C-232.494 743.455 -228.285 746.844 -224.004 749.717C-219.734 752.599 -215.392 754.961 -211.021 756.894C-206.383 758.602 -201.65 759.821 -196.965 760.719C-187.586 762.497 -178.273 762.814 -169.125 762.296C-160.046 761.845 -150.297 759.678 -141.311 757.768C-132.442 755.674 -123.6 753.583 -114.966 751.548C-106.531 749.637 -97.7435 747.205 -89.7388 746.168C-85.6859 745.599 -81.7453 745.248 -77.8792 745.234C-74.049 745.24 -70.3129 745.565 -66.2743 745.734C-58.3824 746.371 -50.8155 748.53 -43.2474 753.04C-35.1321 756.495 -28.9429 761.327 -23.8214 767.307C-21.3245 770.451 -18.8614 773.269 -16.6195 776.343C-14.3994 779.46 -12.3629 782.836 -10.4593 786.434C-6.64568 793.475 -3.5005 801.979 -0.139968 809.869C3.24693 818.013 6.6991 826.352 10.1652 834.695C13.8505 843.037 17.7765 852.163 22.7061 859.729C27.6044 867.392 33.3358 874.706 40.2662 881.21C43.7308 884.46 47.4868 887.542 51.6009 890.291C55.7391 892.68 60.2126 894.775 65.0601 896.542C69.9108 898.298 75.1347 899.723 80.757 900.723C83.5579 901.17 86.4529 901.732 89.4452 901.811C92.4421 901.817 95.5206 901.727 98.6932 901.492C105.06 901.043 111 900.152 116.494 898.865C119.251 898.22 121.897 897.472 124.44 896.645C126.979 895.767 129.358 894.499 131.672 893.316C140.907 888.435 148.519 882.385 154.825 875.618C167.312 861.398 174.393 843.363 180.2 826.518C185.583 808.282 189.782 791.183 195.98 776.3C198.953 768.539 202.507 761.563 207.29 755.675C208.468 754.168 209.797 752.87 211.079 751.379C212.317 749.84 213.644 748.362 215.079 746.95C217.94 744.147 221.177 741.609 224.942 739.352C226.834 738.218 228.712 737.237 230.622 736.376C232.512 735.476 234.18 734.392 236.018 733.613C239.601 731.966 243.29 730.799 247.095 730.011C250.902 729.228 254.825 728.823 258.871 728.71C262.675 728.33 266.555 728.183 270.605 728.304C278.658 728.523 287.226 729.631 296.176 731.046C305.202 732.521 313.74 733.452 323.015 734.585C332.198 735.608 341.63 736.377 351.173 736.291C360.727 736.219 369.505 734.583 378.64 731.873C383.142 730.468 387.628 728.71 392.062 726.528C396.511 724.374 400.903 721.781 404.617 718.344C412.341 711.659 419.593 702.978 425.946 692.01C431.208 680.509 434.091 669.598 435.042 659.481C435.678 654.482 435.237 649.43 434.41 644.579C433.618 639.751 432.436 635.115 430.935 630.666C427.819 621.731 424.034 613.728 418.52 605.978C413.018 598.259 406.878 591.103 400.681 584.334C394.315 577.523 388.57 571.189 382.089 564.807C375.705 558.42 369.795 552.186 364.903 545.824C362.443 542.646 360.301 539.442 358.383 536.149C356.127 532.835 354.156 529.444 352.585 525.912C351 522.383 349.8 518.732 349.045 514.889C348.632 512.961 348.523 510.977 348.171 508.937C347.752 506.909 347.471 504.805 347.282 502.633C346.931 498.294 347.114 494.201 347.755 490.261C348.071 488.277 348.51 486.347 349.029 484.444C349.503 482.555 349.781 480.713 350.331 478.885C352.356 471.597 355.995 464.665 360.614 457.751C369.18 444.069 380.729 430.681 392.524 415.701C402.922 401.2 413.542 384.973 417.904 366.613C419.757 357.578 420.26 347.931 418.864 337.654C418.473 335.1 418.113 332.428 417.365 329.869C416.561 327.349 415.614 324.785 414.532 322.19C412.371 317.016 409.643 311.706 406.302 306.335C404.626 303.654 402.906 301.105 401.142 298.714C399.328 296.348 397.177 294.339 395.172 292.341C391.071 288.416 386.868 285.045 382.587 282.171C378.316 279.289 373.972 276.918 369.604 274.995C364.967 273.288 360.23 272.057 355.563 271.151C346.183 269.39 336.849 269.055 327.704 269.58C318.619 270.033 308.876 272.198 299.894 274.12C291.025 276.214 282.181 278.3 273.546 280.333C265.11 282.239 256.323 284.673 248.312 285.712C244.269 286.29 240.325 286.63 236.461 286.649C232.642 286.635 228.896 286.323 224.853 286.142C216.959 285.499 209.393 283.341 201.846 278.832C193.726 275.384 187.523 270.551 182.406 264.585C179.895 261.424 177.454 258.605 175.206 255.535C172.978 252.418 170.951 249.046 169.042 245.455C165.224 238.398 162.084 229.906 158.713 222.013C155.335 213.877 151.882 205.527 148.414 197.182C144.738 188.826 140.814 179.723 135.882 172.154C130.967 164.482 125.249 157.165 118.31 150.659C114.853 147.43 111.085 144.335 106.983 141.6C102.851 139.21 98.3726 137.099 93.5226 135.345C88.6661 133.573 83.449 132.168 77.8386 131.161C75.0331 130.7 72.1265 130.146 69.1383 130.079C66.1497 130.055 63.0683 130.159 59.8838 130.379C53.5253 130.831 47.5831 131.738 42.0812 133.022C39.3432 133.661 36.6827 134.407 34.1385 135.229C31.6037 136.123 29.2251 137.389 26.9108 138.571C17.6716 143.439 10.0592 149.489 3.75342 156.256L3.75711 156.254Z" fill="#862D91" stroke="#862D91" stroke-width="2" mask="url(#path-3-inside-1)"/>
</svg>
